<svg width="104" height="104" viewBox="0 0 104 104" fill="none" xmlns="http://www.w3.org/2000/svg">
<path d="M52 0C23.3428 0 0 23.3413 0 52C0 80.6572 23.3428 104 52 104C80.6572 104 104 80.6572 104 52C104 23.3413 80.6572 0 52 0Z" fill="#FF5B5B"/>
<path d="M104 52C104 80.6572 80.6572 104 52 104V0C80.6572 0 104 23.3413 104 52Z" fill="#FF001E"/>
<path d="M60.2048 51.9998L76.4985 68.2935L68.2937 76.4982L52.0001 60.2046L35.7065 76.4982L27.5017 68.2935L43.7953 51.9998L27.5017 35.7062L35.7065 27.5015L52.0001 43.7951L68.2937 27.5015L76.4985 35.7062L60.2048 51.9998Z" fill="white"/>
</svg>
