<svg width="110" height="110" viewBox="0 0 110 110" fill="none" xmlns="http://www.w3.org/2000/svg">
<path d="M58.932 3.76357C56.676 1.8063 53.324 1.8063 51.068 3.76357L43.8541 10.0223C43.3901 10.4249 42.7669 10.5919 42.1638 10.4752L32.787 8.66195C29.8546 8.09489 26.9517 9.77091 25.9766 12.5939L22.8586 21.6211C22.658 22.2017 22.2017 22.658 21.6211 22.8585L12.5939 25.9766C9.77092 26.9517 8.09489 29.8546 8.66195 32.787L10.4752 42.1637C10.5919 42.7669 10.4249 43.3901 10.0223 43.8541L3.76357 51.068C1.8063 53.324 1.8063 56.676 3.76357 58.932L10.0223 66.1459C10.4249 66.6099 10.5919 67.2331 10.4752 67.8363L8.66195 77.213C8.09489 80.1454 9.77092 83.0483 12.5939 84.0234L21.6211 87.1414C22.2017 87.342 22.658 87.7983 22.8585 88.3789L25.9766 97.4061C26.9517 100.229 29.8546 101.905 32.787 101.338L42.1637 99.5248C42.7669 99.4081 43.3901 99.5751 43.8541 99.9777L51.068 106.236C53.324 108.194 56.676 108.194 58.932 106.236L66.1459 99.9777C66.6099 99.5751 67.2331 99.4081 67.8362 99.5248L77.213 101.338C80.1454 101.905 83.0483 100.229 84.0234 97.4061L87.1414 88.3789C87.342 87.7983 87.7983 87.342 88.3789 87.1414L97.4061 84.0234C100.229 83.0483 101.905 80.1454 101.338 77.213L99.5248 67.8363C99.4081 67.2331 99.5751 66.6099 99.9777 66.1459L106.236 58.932C108.194 56.676 108.194 53.324 106.236 51.068L99.9777 43.8541C99.5751 43.3901 99.4081 42.7669 99.5248 42.1638L101.338 32.787C101.905 29.8546 100.229 26.9517 97.4061 25.9766L88.3789 22.8585C87.7983 22.658 87.342 22.2017 87.1414 21.6211L84.0234 12.5939C83.0483 9.77092 80.1454 8.09489 77.213 8.66195L67.8363 10.4752C67.2331 10.5919 66.6099 10.4249 66.1459 10.0223L58.932 3.76357Z" fill="#3182CE" stroke="#63B3ED" stroke-width="4"/>
<path d="M38.6237 54.6463L38.2714 54.294L37.9178 54.6451L34.6045 57.9351L34.2484 58.2886L34.6032 58.6434L47.6466 71.6868L48.0001 72.0403L48.3537 71.6868L76.3537 43.6868L76.7072 43.3332L76.3537 42.9797L73.0637 39.6897L72.7103 39.3363L72.3567 39.6895L48.0003 64.0229L38.6237 54.6463Z" fill="white" stroke="white" stroke-linecap="round"/>
</svg>
