<svg width="129" height="129" viewBox="0 0 129 129" fill="none" xmlns="http://www.w3.org/2000/svg">
<g clip-path="url(#clip0)">
<path d="M64.3334 32.498C53.5626 32.498 44.7826 41.278 44.7826 52.0488V62.9499H55.4467V52.0488C55.4467 47.1434 59.4279 43.1621 64.3334 43.1621C69.2388 43.1621 73.2201 47.1434 73.2201 52.0488V62.9499H83.8842V52.0488C83.8842 41.278 75.1042 32.498 64.3334 32.498Z" fill="#5A5A5A"/>
<path d="M83.8842 52.0488V62.9499H73.2201V52.0488C73.2201 47.1434 69.2388 43.1621 64.3334 43.1621V32.498C75.1042 32.498 83.8842 41.278 83.8842 52.0488Z" fill="#444444"/>
<path d="M41.2279 61.1724V93.1646H87.4388V61.1724H41.2279Z" fill="#FFD400"/>
<path d="M87.4388 61.1724H64.3334V93.1646H87.4388V61.1724Z" fill="#FF9F00"/>
<path d="M64.3334 68.2817C61.3829 68.2817 59.0013 70.6633 59.0013 73.6138C59.0013 76.564 61.3829 78.9458 64.3334 78.9458C67.2839 78.9458 69.6654 76.564 69.6654 73.6138C69.6654 70.6633 67.2839 68.2817 64.3334 68.2817Z" fill="#5A5A5A"/>
<path d="M66.1107 77.1685H62.556V86.0552H66.1107V77.1685Z" fill="#5A5A5A"/>
<path d="M69.6654 73.6138C69.6654 76.564 67.2839 78.9458 64.3334 78.9458V68.2817C67.2839 68.2817 69.6654 70.6633 69.6654 73.6138Z" fill="#444444"/>
<path d="M66.1107 77.1685H64.3334V86.0552H66.1107V77.1685Z" fill="#444444"/>
</g>
<g opacity="0.8" clip-path="url(#clip1)">
<path d="M64.3334 12.998C35.7537 12.998 12.3334 36.4184 12.3334 64.998C12.3334 93.5777 35.7537 116.998 64.3334 116.998C92.9131 116.998 116.333 93.5777 116.333 64.998C116.333 36.4184 92.9131 12.998 64.3334 12.998ZM24.724 64.998C24.724 43.1822 42.5175 25.3887 64.3334 25.3887C72.5597 25.3887 80.482 27.9478 87.2459 32.7619L64.3334 55.6744L32.0976 87.9105C27.2832 81.1463 24.724 73.2244 24.724 64.998ZM64.3334 104.607C56.107 104.607 48.1847 102.048 41.4209 97.2338L96.5693 42.0853C101.384 48.8494 103.943 56.7713 103.943 64.998C103.943 86.8135 86.1492 104.607 64.3334 104.607Z" fill="#FF3636"/>
<path d="M116.333 64.998C116.333 93.5777 92.9131 116.998 64.3334 116.998V104.607C86.1492 104.607 103.943 86.8135 103.943 64.998C103.943 56.7713 101.384 48.8494 96.5691 42.0855L64.3334 74.3213V55.6744L87.2459 32.7619C80.482 27.9478 72.5597 25.3887 64.3334 25.3887V12.998C92.9131 12.998 116.333 36.4184 116.333 64.998Z" fill="#F40000"/>
</g>
<defs>
<clipPath id="clip0">
<rect width="60.6667" height="60.6667" fill="white" transform="translate(34 32.498)"/>
</clipPath>
<clipPath id="clip1">
<rect width="104" height="104" fill="white" transform="translate(12.3334 12.998)"/>
</clipPath>
</defs>
</svg>
