<svg width="559" height="363" viewBox="0 0 559 363" fill="none" xmlns="http://www.w3.org/2000/svg">
<path d="M120.436 315.242C117.844 315.242 115.374 314.721 113.526 313.652L32.8022 267.042C30.995 266 30 264.551 30 262.961C30 261.052 31.435 259.13 33.9326 257.688L112.395 212.392C117.086 209.684 124.22 209.387 128.288 211.742L209.012 258.351C210.819 259.394 211.814 260.842 211.814 262.433C211.814 264.342 210.379 266.264 207.881 267.706L129.419 313.002C126.853 314.484 123.557 315.242 120.436 315.242ZM121.377 210.449C118.311 210.449 115.069 211.194 112.544 212.656L34.0815 257.952C31.6786 259.34 30.3046 261.167 30.3046 262.961C30.3046 264.436 31.2454 265.79 32.9511 266.778L113.675 313.388C117.661 315.689 124.653 315.398 129.27 312.738L207.732 267.442C210.135 266.054 211.509 264.227 211.509 262.433C211.509 260.957 210.568 259.604 208.863 258.615L128.139 212.006C126.332 210.964 123.909 210.449 121.377 210.449Z" fill="#6EE8FC"/>
<path d="M100.922 225.259C104.287 225.259 107.014 222.532 107.014 219.168C107.014 215.803 104.287 213.076 100.922 213.076C97.558 213.076 94.8306 215.803 94.8306 219.168C94.8306 222.532 97.558 225.259 100.922 225.259Z" fill="url(#paint0_radial)"/>
<path d="M102.662 219.168C102.662 220.129 101.884 220.907 100.922 220.907C99.9613 220.907 99.1829 220.129 99.1829 219.168C99.1829 218.207 99.9613 217.428 100.922 217.428C101.884 217.428 102.662 218.207 102.662 219.168Z" fill="#6EE8FC"/>
<path d="M41.2294 254.703C41.2294 255.664 40.451 256.442 39.4898 256.442C38.5286 256.442 37.7502 255.664 37.7502 254.703C37.7502 253.742 38.5286 252.963 39.4898 252.963C40.451 252.97 41.2294 253.749 41.2294 254.703Z" fill="#6EE8FC"/>
<path d="M172.833 289.501C173.794 289.501 174.573 288.722 174.573 287.761C174.573 286.8 173.794 286.021 172.833 286.021C171.872 286.021 171.094 286.8 171.094 287.761C171.094 288.722 171.872 289.501 172.833 289.501Z" fill="#6EE8FC"/>
<path d="M185.869 281.101C185.869 282.062 185.091 282.84 184.13 282.84C183.169 282.84 182.39 282.062 182.39 281.101C182.39 280.14 183.169 279.361 184.13 279.361C185.091 279.368 185.869 280.147 185.869 281.101Z" fill="#6EE8FC"/>
<path d="M197.16 274.549C197.16 275.51 196.381 276.288 195.42 276.288C194.459 276.288 193.68 275.51 193.68 274.549C193.68 273.587 194.459 272.809 195.42 272.809C196.381 272.809 197.16 273.587 197.16 274.549Z" fill="#6EE8FC"/>
<g opacity="0.25" filter="url(#filter0_f)">
<path d="M111.586 295.666L40.4204 254.676C35.0118 251.561 35.69 246.122 41.9358 242.522L110.071 203.278C116.317 199.678 125.761 199.293 131.169 202.409L202.335 243.399C207.744 246.515 207.065 251.953 200.82 255.553L132.685 294.798C126.439 298.398 116.995 298.782 111.586 295.666Z" fill="#0A0E2D"/>
</g>
<path d="M196.862 228.468V216.575H166.173L129.893 195.626C125.053 192.83 116.592 193.182 111.001 196.411L76.0749 216.575H45.3721V229.144H45.3991C45.2638 231.04 46.3197 232.86 48.6413 234.207L112.362 270.995C117.201 273.791 125.662 273.439 131.253 270.21L192.259 234.986C195.488 233.124 197.045 230.715 196.862 228.468Z" fill="#312A91"/>
<path opacity="0.5" d="M196.862 228.468V216.575H166.173L129.893 195.626C125.053 192.83 116.592 193.182 111.001 196.411L76.0749 216.575H45.3721V229.144H45.3991C45.2638 231.04 46.3197 232.86 48.6413 234.207L112.362 270.995C117.201 273.791 125.662 273.439 131.253 270.21L192.259 234.986C195.488 233.124 197.045 230.715 196.862 228.468Z" fill="url(#paint1_linear)"/>
<path d="M129.899 195.626C127.571 194.279 124.41 193.67 121.127 193.751V272.864C124.674 272.776 128.349 271.882 131.26 270.21L192.266 234.986C195.495 233.125 197.045 230.715 196.869 228.468V216.575H166.18L129.899 195.626Z" fill="url(#paint2_linear)"/>
<path d="M112.369 258.426L48.6483 221.638C43.8087 218.843 44.4111 213.963 50.0021 210.734L111.008 175.51C116.599 172.281 125.06 171.929 129.9 174.724L193.62 211.512C198.46 214.308 197.857 219.188 192.266 222.417L131.26 257.641C125.662 260.87 117.208 261.222 112.369 258.426Z" fill="#312A91"/>
<path opacity="0.5" d="M112.369 258.426L48.6483 221.638C43.8087 218.843 44.4111 213.963 50.0021 210.734L111.008 175.51C116.599 172.281 125.06 171.929 129.9 174.724L193.62 211.512C198.46 214.308 197.857 219.188 192.266 222.417L131.26 257.641C125.662 260.87 117.208 261.222 112.369 258.426Z" fill="url(#paint3_linear)"/>
<path d="M114.068 250.297L62.7271 220.657C58.8283 218.403 59.3156 214.47 63.8168 211.871L112.971 183.49C117.479 180.891 124.288 180.607 128.194 182.861L179.534 212.501C183.433 214.755 182.946 218.687 178.445 221.287L129.29 249.668C124.782 252.267 117.973 252.544 114.068 250.297Z" fill="#5CFFF3"/>
<path d="M63.8165 215.709L112.971 187.327C117.479 184.728 124.288 184.444 128.194 186.698L179.534 216.338C180.495 216.893 181.192 217.556 181.626 218.267C182.756 216.189 182.106 213.976 179.534 212.493L128.194 182.853C124.295 180.599 117.479 180.884 112.971 183.483L63.8165 211.864C60.4254 213.82 59.3085 216.534 60.6352 218.721C61.2241 217.644 62.28 216.595 63.8165 215.709Z" fill="#42E8E0"/>
<path opacity="0.5" d="M114.507 258.426L50.7868 221.638C45.9472 218.842 44.7898 214.734 52.1406 210.734L113.147 175.509C115.895 173.919 119.34 173.032 122.704 172.869C118.704 172.687 114.345 173.58 111.008 175.509L50.0016 210.734C44.4107 213.962 43.8015 218.842 48.6479 221.638L112.368 258.426C114.832 259.847 118.223 260.45 121.702 260.28C118.995 260.159 116.457 259.549 114.507 258.426Z" fill="url(#paint4_linear)"/>
<path opacity="0.5" d="M192.266 227.73L131.26 262.954C125.669 266.183 117.208 266.535 112.368 263.74L48.6479 226.952C46.3195 225.612 45.2636 223.784 45.4057 221.889H45.3787V224.495H45.4057C45.2704 226.39 46.3263 228.211 48.6479 229.558L112.368 266.346C117.208 269.141 125.669 268.789 131.26 265.56L192.266 230.336C195.495 228.475 197.045 226.065 196.869 223.818V221.212C197.045 223.459 195.488 225.869 192.266 227.73Z" fill="url(#paint5_linear)"/>
<path d="M181.2 224.264C181.897 224.664 181.897 225.314 181.2 225.72C180.502 226.119 179.379 226.119 178.682 225.72C177.984 225.32 177.984 224.671 178.682 224.264C179.379 223.858 180.502 223.865 181.2 224.264Z" fill="#FCCC6B"/>
<path d="M185.125 221.997C185.822 222.397 185.822 223.046 185.125 223.453C184.428 223.859 183.304 223.852 182.607 223.453C181.91 223.053 181.91 222.403 182.607 221.997C183.298 221.598 184.428 221.598 185.125 221.997Z" fill="#FCCC6B"/>
<path d="M189.044 219.736C189.741 220.135 189.741 220.792 189.044 221.191C188.347 221.591 187.223 221.591 186.526 221.191C185.829 220.792 185.829 220.142 186.526 219.736C187.223 219.33 188.347 219.337 189.044 219.736Z" fill="#FCCC6B"/>
<path opacity="0.5" d="M115.59 243.114L75.3164 219.864C72.257 218.097 72.6428 215.011 76.1761 212.973L114.731 190.711C118.264 188.674 123.611 188.45 126.67 190.217L166.944 213.467C170.004 215.234 169.618 218.321 166.085 220.358L127.53 242.62C123.997 244.658 118.65 244.881 115.59 243.114Z" fill="#0B0244"/>
<path opacity="0.5" d="M196.862 216.574C196.875 216.351 196.882 216.12 196.862 215.904V182.676L144.073 182.913L129.892 174.73C125.053 171.934 116.592 172.286 111.001 175.515L97.8224 183.123L45.3718 183.353V216.581H45.3989C45.2635 218.469 46.3194 220.297 48.6411 221.644L112.362 258.431C117.201 261.227 125.662 260.875 131.253 257.646L192.259 222.422C195.17 220.743 196.713 218.618 196.862 216.574Z" fill="#5CFFF3"/>
<path d="M196.862 182.676V170.784H166.173L129.892 149.835C125.053 147.039 116.592 147.391 111.001 150.62L76.0746 170.784H45.3718V183.353H45.3989C45.2635 185.242 46.3194 187.069 48.6411 188.416L112.362 225.204C117.201 228 125.662 227.648 131.253 224.419L192.259 189.195C195.488 187.333 197.045 184.917 196.862 182.676Z" fill="#312A91"/>
<path opacity="0.5" d="M196.862 182.676V170.784H166.173L129.892 149.835C125.053 147.039 116.592 147.391 111.001 150.62L76.0746 170.784H45.3718V183.353H45.3989C45.2635 185.242 46.3194 187.069 48.6411 188.416L112.362 225.204C117.201 228 125.662 227.648 131.253 224.419L192.259 189.195C195.488 187.333 197.045 184.917 196.862 182.676Z" fill="url(#paint6_linear)"/>
<path d="M129.899 149.835C127.571 148.488 124.41 147.879 121.127 147.96V227.072C124.674 226.984 128.349 226.091 131.26 224.419L192.266 189.195C195.495 187.333 197.045 184.924 196.869 182.676V170.784H166.179L129.899 149.835Z" fill="url(#paint7_linear)"/>
<path d="M112.368 212.628L48.6478 175.84C43.8082 173.045 44.4106 168.165 50.0016 164.936L111.008 129.712C116.599 126.483 125.06 126.131 129.899 128.927L193.62 165.714C198.459 168.51 197.857 173.39 192.266 176.619L131.26 211.843C125.662 215.079 117.208 215.424 112.368 212.628Z" fill="#312A91"/>
<path opacity="0.5" d="M112.368 212.628L48.6478 175.84C43.8082 173.045 44.4106 168.165 50.0016 164.936L111.008 129.712C116.599 126.483 125.06 126.131 129.899 128.927L193.62 165.714C198.459 168.51 197.857 173.39 192.266 176.619L131.26 211.843C125.662 215.079 117.208 215.424 112.368 212.628Z" fill="url(#paint8_linear)"/>
<path opacity="0.5" d="M114.507 212.628L50.7868 175.84C45.9472 173.045 44.7898 168.936 52.1406 164.936L113.147 129.711C115.895 128.121 119.34 127.234 122.704 127.072C118.704 126.889 114.345 127.782 111.008 129.711L50.0016 164.936C44.4107 168.164 43.8015 173.045 48.6479 175.84L112.368 212.628C114.832 214.049 118.223 214.652 121.702 214.483C118.995 214.361 116.457 213.758 114.507 212.628Z" fill="url(#paint9_linear)"/>
<path opacity="0.5" d="M192.266 181.939L131.26 217.163C125.669 220.392 117.208 220.744 112.368 217.948L48.6477 181.16C46.3193 179.82 45.2633 177.993 45.4055 176.097H45.3784V178.703H45.4055C45.2701 180.592 46.326 182.419 48.6477 183.766L112.368 220.554C117.208 223.35 125.669 222.998 131.26 219.769L192.266 184.545C195.494 182.683 197.044 180.274 196.868 178.026V175.42C197.044 177.661 195.488 180.077 192.266 181.939Z" fill="url(#paint10_linear)"/>
<path opacity="0.2" d="M116.064 173.445C117.391 174.21 117.391 175.448 116.064 176.213C114.737 176.978 112.599 176.978 111.272 176.213C109.945 175.448 109.945 174.21 111.272 173.445C112.599 172.68 114.737 172.68 116.064 173.445Z" fill="#5CFFF3"/>
<path opacity="0.6" d="M123.53 169.133C124.857 169.898 124.857 171.136 123.53 171.901C122.203 172.666 120.064 172.666 118.738 171.901C117.411 171.136 117.411 169.898 118.738 169.133C120.058 168.368 122.203 168.368 123.53 169.133Z" fill="#5CFFF3"/>
<path d="M130.989 164.828C132.316 165.593 132.316 166.832 130.989 167.596C129.662 168.361 127.524 168.361 126.197 167.596C124.87 166.832 124.87 165.593 126.197 164.828C127.524 164.063 129.669 164.063 130.989 164.828Z" fill="#5CFFF3"/>
<path opacity="0.5" d="M120.714 203.593C118.352 203.593 116.091 203.112 114.412 202.144L67.2956 174.941C65.5831 173.953 64.6355 172.558 64.6355 171.022C64.6355 169.201 65.9689 167.387 68.2974 166.047L113.404 140.001C117.661 137.544 124.146 137.28 127.848 139.419L174.965 166.622C176.678 167.61 177.625 169.005 177.625 170.541C177.625 172.362 176.292 174.176 173.963 175.516L128.857 201.562C126.535 202.902 123.55 203.593 120.714 203.593ZM114.886 201.305C118.325 203.295 124.376 203.031 128.376 200.723L173.483 174.677C175.5 173.513 176.664 171.996 176.664 170.534C176.664 169.357 175.892 168.26 174.491 167.448L127.375 140.244C123.936 138.254 117.885 138.518 113.885 140.827L68.7779 166.872C66.7541 168.037 65.5967 169.546 65.5967 171.015C65.5967 172.193 66.3683 173.289 67.7762 174.101L114.886 201.305Z" fill="#0B0244"/>
<path d="M120.436 222.139C117.844 222.139 115.374 221.618 113.526 220.548L32.8022 173.939C30.995 172.896 30 171.448 30 169.857C30 167.949 31.435 166.026 33.9326 164.585L112.395 119.288C117.086 116.581 124.22 116.283 128.288 118.639L209.012 165.248C210.819 166.29 211.814 167.739 211.814 169.329C211.814 171.238 210.379 173.16 207.881 174.602L129.419 219.898C126.853 221.381 123.557 222.139 120.436 222.139ZM121.377 117.353C118.311 117.353 115.069 118.097 112.544 119.559L34.0815 164.855C31.6786 166.243 30.3046 168.07 30.3046 169.864C30.3046 171.34 31.2454 172.693 32.9511 173.682L113.675 220.291C117.661 222.592 124.66 222.301 129.27 219.641L207.732 174.345C210.135 172.957 211.509 171.13 211.509 169.336C211.509 167.861 210.568 166.507 208.863 165.519L128.139 118.903C126.332 117.86 123.909 117.353 121.377 117.353Z" fill="#6EE8FC"/>
<path d="M102.662 126.064C102.662 127.025 101.884 127.804 100.922 127.804C99.9613 127.804 99.1829 127.025 99.1829 126.064C99.1829 125.103 99.9613 124.325 100.922 124.325C101.884 124.331 102.662 125.11 102.662 126.064Z" fill="#6EE8FC"/>
<path d="M39.4898 163.346C40.4505 163.346 41.2294 162.567 41.2294 161.606C41.2294 160.646 40.4505 159.867 39.4898 159.867C38.5291 159.867 37.7502 160.646 37.7502 161.606C37.7502 162.567 38.5291 163.346 39.4898 163.346Z" fill="#6EE8FC"/>
<path d="M174.573 194.658C174.573 195.619 173.794 196.398 172.833 196.398C171.872 196.398 171.094 195.619 171.094 194.658C171.094 193.697 171.872 192.918 172.833 192.918C173.794 192.918 174.573 193.697 174.573 194.658Z" fill="#6EE8FC"/>
<path d="M184.13 189.744C185.091 189.744 185.869 188.965 185.869 188.005C185.869 187.044 185.091 186.265 184.13 186.265C183.169 186.265 182.39 187.044 182.39 188.005C182.39 188.965 183.169 189.744 184.13 189.744Z" fill="#6EE8FC"/>
<path d="M197.16 181.446C197.16 182.407 196.381 183.185 195.42 183.185C194.459 183.185 193.68 182.407 193.68 181.446C193.68 180.484 194.459 179.706 195.42 179.706C196.381 179.713 197.16 180.491 197.16 181.446Z" fill="#6EE8FC"/>
<path d="M295.08 339.373C292.487 339.373 290.017 338.852 288.169 337.782L207.445 291.173C205.638 290.131 204.643 288.682 204.643 287.092C204.643 285.183 206.078 283.261 208.576 281.819L287.038 236.523C291.729 233.815 298.863 233.518 302.931 235.873L383.655 282.482C385.462 283.525 386.457 284.973 386.457 286.564C386.457 288.473 385.022 290.395 382.524 291.837L304.062 337.133C301.496 338.615 298.2 339.373 295.08 339.373ZM296.02 234.58C292.954 234.58 289.712 235.325 287.187 236.787L208.725 282.083C206.322 283.47 204.948 285.298 204.948 287.092C204.948 288.567 205.889 289.921 207.594 290.909L288.318 337.518C292.304 339.82 299.296 339.529 303.913 336.869L382.375 291.573C384.778 290.185 386.152 288.357 386.152 286.564C386.152 285.088 385.211 283.734 383.506 282.746L302.782 236.137C300.975 235.095 298.552 234.58 296.02 234.58Z" fill="#6EE8FC"/>
<path d="M275.565 249.39C278.93 249.39 281.657 246.662 281.657 243.298C281.657 239.933 278.93 237.206 275.565 237.206C272.201 237.206 269.473 239.933 269.473 243.298C269.473 246.662 272.201 249.39 275.565 249.39Z" fill="url(#paint11_radial)"/>
<path d="M277.305 243.298C277.305 244.259 276.527 245.037 275.565 245.037C274.604 245.037 273.826 244.259 273.826 243.298C273.826 242.336 274.604 241.558 275.565 241.558C276.527 241.558 277.305 242.336 277.305 243.298Z" fill="#6EE8FC"/>
<path d="M215.872 278.833C215.872 279.794 215.094 280.573 214.133 280.573C213.171 280.573 212.393 279.794 212.393 278.833C212.393 277.872 213.171 277.094 214.133 277.094C215.094 277.101 215.872 277.879 215.872 278.833Z" fill="#6EE8FC"/>
<path d="M347.476 313.631C348.437 313.631 349.215 312.853 349.215 311.892C349.215 310.931 348.437 310.152 347.476 310.152C346.515 310.152 345.736 310.931 345.736 311.892C345.736 312.853 346.515 313.631 347.476 313.631Z" fill="#6EE8FC"/>
<path d="M360.512 305.232C360.512 306.193 359.734 306.971 358.773 306.971C357.812 306.971 357.033 306.193 357.033 305.232C357.033 304.271 357.812 303.492 358.773 303.492C359.734 303.499 360.512 304.277 360.512 305.232Z" fill="#6EE8FC"/>
<path d="M371.802 298.679C371.802 299.64 371.024 300.419 370.063 300.419C369.102 300.419 368.323 299.64 368.323 298.679C368.323 297.718 369.102 296.939 370.063 296.939C371.024 296.939 371.802 297.718 371.802 298.679Z" fill="#6EE8FC"/>
<g opacity="0.25" filter="url(#filter1_f)">
<path d="M287.858 324.374L230.324 291.16C225.951 288.635 226.499 284.229 231.549 281.311L286.633 249.512C291.682 246.595 299.317 246.283 303.69 248.808L361.223 282.022C365.596 284.547 365.048 288.953 359.998 291.87L304.915 323.67C299.865 326.587 292.23 326.898 287.858 324.374Z" fill="#0A0E2D"/>
</g>
<path d="M371.505 252.598V240.706H340.816L304.536 219.757C299.696 216.961 291.235 217.313 285.644 220.542L250.718 240.706H220.015V253.275H220.042C219.907 255.17 220.963 256.991 223.284 258.338L287.005 295.126C291.844 297.922 300.305 297.57 305.896 294.341L366.902 259.117C370.131 257.255 371.688 254.846 371.505 252.598Z" fill="#312A91"/>
<path opacity="0.5" d="M371.505 252.598V240.706H340.816L304.536 219.757C299.696 216.961 291.235 217.313 285.644 220.542L250.718 240.706H220.015V253.275H220.042C219.907 255.17 220.963 256.991 223.284 258.338L287.005 295.126C291.844 297.922 300.305 297.57 305.896 294.341L366.902 259.117C370.131 257.255 371.688 254.846 371.505 252.598Z" fill="url(#paint12_linear)"/>
<path d="M304.543 219.757C302.214 218.41 299.053 217.8 295.77 217.882V296.994C299.317 296.906 302.992 296.013 305.903 294.341L366.909 259.117C370.138 257.255 371.688 254.845 371.512 252.598V240.706H340.823L304.543 219.757Z" fill="url(#paint13_linear)"/>
<path d="M287.011 282.556L223.291 245.769C218.451 242.973 219.053 238.093 224.644 234.864L285.651 199.64C291.242 196.411 299.702 196.059 304.542 198.855L368.262 235.643C373.102 238.438 372.5 243.318 366.909 246.547L305.903 281.771C300.305 285 291.851 285.352 287.011 282.556Z" fill="#312A91"/>
<path opacity="0.5" d="M287.011 282.556L223.291 245.769C218.451 242.973 219.053 238.093 224.644 234.864L285.651 199.64C291.242 196.411 299.702 196.059 304.542 198.855L368.262 235.643C373.102 238.438 372.5 243.318 366.909 246.547L305.903 281.771C300.305 285 291.851 285.352 287.011 282.556Z" fill="url(#paint14_linear)"/>
<path d="M288.711 274.427L237.37 244.787C233.471 242.533 233.959 238.601 238.46 236.002L287.614 207.621C292.122 205.021 298.931 204.737 302.837 206.991L354.177 236.631C358.076 238.885 357.589 242.818 353.088 245.417L303.933 273.798C299.425 276.397 292.616 276.675 288.711 274.427Z" fill="#5CFFF3"/>
<path d="M238.46 239.839L287.614 211.458C292.122 208.859 298.931 208.575 302.837 210.829L354.177 240.469C355.138 241.024 355.835 241.687 356.269 242.398C357.399 240.32 356.749 238.107 354.177 236.624L302.837 206.984C298.938 204.73 292.122 205.014 287.614 207.614L238.46 235.995C235.068 237.951 233.952 240.665 235.278 242.851C235.867 241.775 236.923 240.726 238.46 239.839Z" fill="#42E8E0"/>
<path opacity="0.5" d="M289.15 282.557L225.43 245.769C220.59 242.973 219.433 238.865 226.784 234.864L287.79 199.64C290.538 198.049 293.983 197.163 297.347 197C293.347 196.818 288.988 197.711 285.651 199.64L224.645 234.864C219.054 238.093 218.445 242.973 223.291 245.769L287.011 282.557C289.475 283.978 292.866 284.58 296.345 284.411C293.638 284.289 291.1 283.68 289.15 282.557Z" fill="url(#paint15_linear)"/>
<path opacity="0.5" d="M366.909 251.861L305.903 287.085C300.312 290.313 291.851 290.665 287.012 287.87L223.291 251.082C220.963 249.742 219.907 247.914 220.049 246.019H220.022V248.625H220.049C219.914 250.52 220.97 252.341 223.291 253.688L287.012 290.476C291.851 293.271 300.312 292.919 305.903 289.691L366.909 254.466C370.138 252.605 371.688 250.195 371.512 247.948V245.342C371.688 247.589 370.131 249.999 366.909 251.861Z" fill="url(#paint16_linear)"/>
<path d="M355.843 248.395C356.54 248.794 356.54 249.444 355.843 249.85C355.145 250.249 354.022 250.249 353.325 249.85C352.627 249.451 352.627 248.801 353.325 248.395C354.022 247.989 355.145 247.995 355.843 248.395Z" fill="#FCCC6B"/>
<path d="M359.768 246.128C360.465 246.527 360.465 247.177 359.768 247.583C359.071 247.99 357.947 247.983 357.25 247.583C356.553 247.184 356.553 246.534 357.25 246.128C357.941 245.729 359.071 245.729 359.768 246.128Z" fill="#FCCC6B"/>
<path d="M363.687 243.867C364.384 244.266 364.384 244.923 363.687 245.322C362.99 245.722 361.867 245.722 361.169 245.322C360.472 244.923 360.472 244.273 361.169 243.867C361.867 243.461 362.99 243.468 363.687 243.867Z" fill="#FCCC6B"/>
<path opacity="0.5" d="M290.233 267.246L249.959 243.995C246.9 242.229 247.286 239.142 250.819 237.105L289.374 214.842C292.907 212.805 298.254 212.582 301.314 214.348L341.587 237.599C344.647 239.365 344.261 242.452 340.728 244.489L302.173 266.752C298.64 268.789 293.293 269.012 290.233 267.246Z" fill="#0B0244"/>
<path opacity="0.5" d="M371.505 240.706C371.518 240.482 371.525 240.252 371.505 240.036V206.808L318.716 207.045L304.536 198.862C299.696 196.066 291.235 196.418 285.644 199.647L272.465 207.255L220.015 207.485V240.712H220.042C219.907 242.601 220.963 244.428 223.284 245.775L287.005 282.563C291.844 285.359 300.305 285.007 305.896 281.778L366.902 246.554C369.813 244.875 371.356 242.75 371.505 240.706Z" fill="#5CFFF3"/>
<path d="M371.505 206.808V194.916H340.816L304.536 173.967C299.696 171.171 291.235 171.523 285.644 174.752L250.718 194.916H220.015V207.485H220.042C219.907 209.374 220.963 211.201 223.284 212.548L287.005 249.336C291.844 252.131 300.305 251.78 305.896 248.551L366.902 213.327C370.131 211.465 371.688 209.049 371.505 206.808Z" fill="#312A91"/>
<path opacity="0.5" d="M371.505 206.808V194.916H340.816L304.536 173.967C299.696 171.171 291.235 171.523 285.644 174.752L250.718 194.916H220.015V207.485H220.042C219.907 209.374 220.963 211.201 223.284 212.548L287.005 249.336C291.844 252.131 300.305 251.78 305.896 248.551L366.902 213.327C370.131 211.465 371.688 209.049 371.505 206.808Z" fill="url(#paint17_linear)"/>
<path d="M304.542 173.966C302.214 172.619 299.053 172.01 295.77 172.091V251.204C299.317 251.116 302.992 250.222 305.903 248.55L366.909 213.326C370.138 211.465 371.688 209.055 371.512 206.808V194.915H340.822L304.542 173.966Z" fill="url(#paint18_linear)"/>
<path d="M287.011 236.759L223.29 199.971C218.451 197.176 219.053 192.296 224.644 189.067L285.65 153.843C291.241 150.614 299.702 150.262 304.542 153.057L368.262 189.845C373.102 192.641 372.499 197.521 366.909 200.75L305.902 235.974C300.305 239.209 291.85 239.555 287.011 236.759Z" fill="#312A91"/>
<path opacity="0.5" d="M287.011 236.759L223.29 199.971C218.451 197.176 219.053 192.296 224.644 189.067L285.65 153.843C291.241 150.614 299.702 150.262 304.542 153.057L368.262 189.845C373.102 192.641 372.499 197.521 366.909 200.75L305.902 235.974C300.305 239.209 291.85 239.555 287.011 236.759Z" fill="url(#paint19_linear)"/>
<path opacity="0.5" d="M289.15 236.759L225.43 199.971C220.59 197.175 219.433 193.067 226.783 189.067L287.79 153.842C290.538 152.252 293.983 151.365 297.347 151.202C293.347 151.02 288.988 151.913 285.651 153.842L224.644 189.067C219.054 192.295 218.444 197.175 223.291 199.971L287.011 236.759C289.475 238.18 292.866 238.783 296.345 238.613C293.638 238.492 291.099 237.889 289.15 236.759Z" fill="url(#paint20_linear)"/>
<path opacity="0.5" d="M366.909 206.07L305.903 241.295C300.312 244.523 291.851 244.875 287.011 242.08L223.291 205.292C220.963 203.952 219.907 202.124 220.049 200.229H220.022V202.835H220.049C219.913 204.724 220.969 206.551 223.291 207.898L287.011 244.686C291.851 247.481 300.312 247.129 305.903 243.901L366.909 208.676C370.138 206.815 371.688 204.405 371.512 202.158V199.552C371.688 201.793 370.131 204.209 366.909 206.07Z" fill="url(#paint21_linear)"/>
<path opacity="0.2" d="M290.707 197.575C292.034 198.34 292.034 199.579 290.707 200.344C289.381 201.108 287.242 201.108 285.915 200.344C284.589 199.579 284.589 198.34 285.915 197.575C287.242 196.81 289.381 196.81 290.707 197.575Z" fill="#5CFFF3"/>
<path opacity="0.6" d="M298.173 193.263C299.5 194.028 299.5 195.267 298.173 196.032C296.847 196.796 294.708 196.796 293.381 196.032C292.054 195.267 292.054 194.028 293.381 193.263C294.701 192.498 296.847 192.498 298.173 193.263Z" fill="#5CFFF3"/>
<path d="M305.632 188.958C306.959 189.723 306.959 190.962 305.632 191.727C304.306 192.492 302.167 192.492 300.84 191.727C299.514 190.962 299.514 189.723 300.84 188.958C302.167 188.194 304.313 188.194 305.632 188.958Z" fill="#5CFFF3"/>
<path opacity="0.5" d="M295.357 227.724C292.995 227.724 290.734 227.243 289.056 226.275L241.939 199.072C240.226 198.083 239.279 196.689 239.279 195.153C239.279 193.332 240.612 191.518 242.94 190.178L288.047 164.132C292.304 161.675 298.789 161.411 302.491 163.55L349.608 190.753C351.321 191.741 352.268 193.135 352.268 194.672C352.268 196.493 350.935 198.307 348.606 199.647L303.5 225.693C301.178 227.033 298.193 227.724 295.357 227.724ZM289.529 225.436C292.968 227.426 299.019 227.162 303.019 224.854L348.126 198.808C350.143 197.643 351.307 196.127 351.307 194.665C351.307 193.487 350.536 192.391 349.134 191.579L302.018 164.375C298.579 162.385 292.528 162.649 288.528 164.957L243.421 191.003C241.397 192.168 240.24 193.677 240.24 195.146C240.24 196.324 241.011 197.42 242.419 198.232L289.529 225.436Z" fill="#0B0244"/>
<path d="M295.08 246.27C292.488 246.27 290.017 245.748 288.169 244.679L207.446 198.07C205.639 197.027 204.644 195.579 204.644 193.988C204.644 192.079 206.079 190.157 208.576 188.715L287.039 143.419C291.73 140.712 298.864 140.414 302.932 142.77L383.655 189.379C385.463 190.421 386.458 191.87 386.458 193.46C386.458 195.369 385.023 197.291 382.525 198.733L304.062 244.029C301.497 245.511 298.201 246.27 295.08 246.27ZM296.021 141.483C292.955 141.483 289.713 142.228 287.188 143.69L208.725 188.986C206.322 190.374 204.948 192.201 204.948 193.995C204.948 195.471 205.889 196.824 207.595 197.813L288.318 244.422C292.305 246.723 299.304 246.432 303.913 243.772L382.376 198.476C384.779 197.088 386.153 195.261 386.153 193.467C386.153 191.991 385.212 190.638 383.506 189.649L302.783 143.034C300.976 141.991 298.553 141.483 296.021 141.483Z" fill="#6EE8FC"/>
<path d="M277.305 150.195C277.305 151.156 276.527 151.934 275.565 151.934C274.604 151.934 273.826 151.156 273.826 150.195C273.826 149.233 274.604 148.455 275.565 148.455C276.527 148.462 277.305 149.24 277.305 150.195Z" fill="#6EE8FC"/>
<path d="M214.133 187.477C215.094 187.477 215.872 186.698 215.872 185.737C215.872 184.776 215.094 183.998 214.133 183.998C213.172 183.998 212.393 184.776 212.393 185.737C212.393 186.698 213.172 187.477 214.133 187.477Z" fill="#6EE8FC"/>
<path d="M349.216 218.788C349.216 219.75 348.437 220.528 347.476 220.528C346.515 220.528 345.737 219.75 345.737 218.788C345.737 217.827 346.515 217.049 347.476 217.049C348.437 217.049 349.216 217.827 349.216 218.788Z" fill="#6EE8FC"/>
<path d="M358.773 213.875C359.734 213.875 360.513 213.096 360.513 212.136C360.513 211.175 359.734 210.396 358.773 210.396C357.812 210.396 357.033 211.175 357.033 212.136C357.033 213.096 357.812 213.875 358.773 213.875Z" fill="#6EE8FC"/>
<path d="M371.803 205.576C371.803 206.538 371.024 207.316 370.063 207.316C369.102 207.316 368.323 206.538 368.323 205.576C368.323 204.615 369.102 203.837 370.063 203.837C371.024 203.844 371.803 204.622 371.803 205.576Z" fill="#6EE8FC"/>
<path d="M288.71 227.047L237.37 197.407C233.471 195.153 233.958 191.22 238.46 188.621L287.614 160.24C292.122 157.64 298.931 157.356 302.837 159.61L354.177 189.25C358.076 191.504 357.589 195.437 353.087 198.036L303.933 226.417C299.425 229.016 292.616 229.294 288.71 227.047Z" fill="#5CFFF3"/>
<path opacity="0.5" d="M289.699 219.424L249.425 196.174C246.365 194.407 246.751 191.321 250.284 189.283L288.839 167.021C292.372 164.984 297.719 164.76 300.779 166.527L341.053 189.778C344.112 191.544 343.726 194.631 340.193 196.668L301.639 218.93C298.105 220.968 292.758 221.191 289.699 219.424Z" fill="#0B0244"/>
<path opacity="0.5" d="M370.97 194.915C370.984 194.691 370.991 194.461 370.97 194.245V161.017L318.181 161.254L304.001 153.071C299.161 150.275 290.7 150.627 285.109 153.856L271.931 161.464L219.48 161.694V194.921H219.507C219.372 196.81 220.428 198.637 222.749 199.984L286.47 236.772C291.31 239.568 299.77 239.216 305.361 235.987L366.368 200.763C369.278 199.084 370.821 196.959 370.97 194.915Z" fill="#5CFFF3"/>
<path d="M370.97 161.017V149.125H340.281L304.001 128.176C299.161 125.38 290.7 125.732 285.109 128.961L250.183 149.125H219.48V161.694H219.507C219.372 163.583 220.428 165.41 222.749 166.757L286.47 203.545C291.31 206.34 299.77 205.989 305.361 202.76L366.368 167.536C369.596 165.674 371.153 163.258 370.97 161.017Z" fill="#312A91"/>
<path opacity="0.5" d="M370.97 161.017V149.125H340.281L304.001 128.176C299.161 125.38 290.7 125.732 285.109 128.961L250.183 149.125H219.48V161.694H219.507C219.372 163.583 220.428 165.41 222.749 166.757L286.47 203.545C291.31 206.34 299.77 205.989 305.361 202.76L366.368 167.536C369.596 165.674 371.153 163.258 370.97 161.017Z" fill="url(#paint22_linear)"/>
<path d="M304.008 128.176C301.679 126.829 298.518 126.219 295.235 126.301V205.413C298.782 205.325 302.458 204.432 305.368 202.76L366.374 167.535C369.603 165.674 371.153 163.264 370.977 161.017V149.125H340.288L304.008 128.176Z" fill="url(#paint23_linear)"/>
<path d="M286.477 190.969L222.757 154.181C217.917 151.385 218.52 146.505 224.11 143.276L285.117 108.052C290.708 104.823 299.168 104.471 304.008 107.267L367.729 144.055C372.568 146.85 371.966 151.73 366.375 154.959L305.369 190.183C299.771 193.419 291.317 193.764 286.477 190.969Z" fill="#312A91"/>
<path opacity="0.5" d="M286.477 190.969L222.757 154.181C217.917 151.385 218.52 146.505 224.11 143.276L285.117 108.052C290.708 104.823 299.168 104.471 304.008 107.267L367.729 144.055C372.568 146.85 371.966 151.73 366.375 154.959L305.369 190.183C299.771 193.419 291.317 193.764 286.477 190.969Z" fill="url(#paint24_linear)"/>
<path opacity="0.5" d="M288.616 190.968L224.896 154.18C220.056 151.385 218.899 147.276 226.25 143.276L287.256 108.052C290.004 106.461 293.449 105.574 296.813 105.412C292.813 105.229 288.454 106.123 285.117 108.052L224.111 143.276C218.52 146.505 217.911 151.385 222.757 154.18L286.477 190.968C288.941 192.39 292.332 192.992 295.812 192.823C293.104 192.701 290.566 192.099 288.616 190.968Z" fill="url(#paint25_linear)"/>
<path opacity="0.5" d="M366.374 160.279L305.368 195.503C299.777 198.732 291.316 199.084 286.477 196.288L222.756 159.501C220.428 158.16 219.372 156.333 219.514 154.438H219.487V157.044H219.514C219.379 158.932 220.435 160.76 222.756 162.107L286.477 198.894C291.316 201.69 299.777 201.338 305.368 198.109L366.374 162.885C369.603 161.024 371.153 158.614 370.977 156.367V153.761C371.153 156.001 369.596 158.418 366.374 160.279Z" fill="url(#paint26_linear)"/>
<path opacity="0.2" d="M290.172 151.785C291.499 152.549 291.499 153.788 290.172 154.553C288.846 155.318 286.707 155.318 285.38 154.553C284.054 153.788 284.054 152.549 285.38 151.785C286.707 151.02 288.846 151.02 290.172 151.785Z" fill="#5CFFF3"/>
<path opacity="0.6" d="M297.638 147.473C298.965 148.237 298.965 149.476 297.638 150.241C296.312 151.006 294.173 151.006 292.846 150.241C291.519 149.476 291.519 148.237 292.846 147.473C294.166 146.708 296.312 146.708 297.638 147.473Z" fill="#5CFFF3"/>
<path d="M305.098 143.168C306.424 143.933 306.424 145.171 305.098 145.936C303.771 146.701 301.632 146.701 300.305 145.936C298.979 145.171 298.979 143.933 300.305 143.168C301.632 142.403 303.778 142.403 305.098 143.168Z" fill="#5CFFF3"/>
<path opacity="0.5" d="M294.823 181.932C292.46 181.932 290.199 181.452 288.521 180.484L241.404 153.281C239.692 152.292 238.744 150.898 238.744 149.362C238.744 147.541 240.077 145.727 242.406 144.387L287.512 118.341C291.77 115.884 298.254 115.62 301.957 117.759L349.074 144.962C350.786 145.95 351.734 147.344 351.734 148.881C351.734 150.702 350.4 152.516 348.072 153.856L302.965 179.902C300.644 181.242 297.659 181.932 294.823 181.932ZM288.995 179.645C292.433 181.635 298.484 181.371 302.485 179.063L347.591 153.017C349.608 151.852 350.773 150.336 350.773 148.874C350.773 147.696 350.001 146.6 348.6 145.788L301.483 118.584C298.044 116.594 291.993 116.858 287.993 119.166L242.886 145.212C240.862 146.377 239.705 147.886 239.705 149.355C239.705 150.533 240.477 151.629 241.885 152.441L288.995 179.645Z" fill="#0B0244"/>
<path d="M294.545 200.479C291.952 200.479 289.482 199.957 287.634 198.888L206.911 152.279C205.103 151.236 204.108 149.788 204.108 148.197C204.108 146.288 205.543 144.366 208.041 142.924L286.504 97.6283C291.194 94.9208 298.329 94.623 302.397 96.9785L383.12 143.588C384.927 144.63 385.922 146.079 385.922 147.669C385.922 149.578 384.487 151.5 381.99 152.942L303.527 198.238C300.962 199.72 297.665 200.479 294.545 200.479ZM295.486 95.6925C292.42 95.6925 289.177 96.437 286.653 97.899L208.19 143.195C205.787 144.583 204.413 146.41 204.413 148.204C204.413 149.68 205.354 151.033 207.06 152.022L287.783 198.631C291.77 200.932 298.769 200.641 303.378 197.981L381.841 152.685C384.244 151.297 385.618 149.47 385.618 147.676C385.618 146.2 384.677 144.847 382.971 143.858L302.248 97.2425C300.44 96.2001 298.017 95.6925 295.486 95.6925Z" fill="#6EE8FC"/>
<path d="M276.771 104.404C276.771 105.365 275.992 106.144 275.031 106.144C274.07 106.144 273.292 105.365 273.292 104.404C273.292 103.443 274.07 102.665 275.031 102.665C275.992 102.671 276.771 103.45 276.771 104.404Z" fill="#6EE8FC"/>
<path d="M213.598 141.686C214.559 141.686 215.338 140.907 215.338 139.946C215.338 138.985 214.559 138.207 213.598 138.207C212.638 138.207 211.859 138.985 211.859 139.946C211.859 140.907 212.638 141.686 213.598 141.686Z" fill="#6EE8FC"/>
<path d="M348.681 172.997C348.681 173.959 347.903 174.737 346.942 174.737C345.981 174.737 345.202 173.959 345.202 172.997C345.202 172.036 345.981 171.258 346.942 171.258C347.903 171.258 348.681 172.036 348.681 172.997Z" fill="#6EE8FC"/>
<path d="M358.239 168.084C359.199 168.084 359.978 167.305 359.978 166.345C359.978 165.384 359.199 164.605 358.239 164.605C357.278 164.605 356.499 165.384 356.499 166.345C356.499 167.305 357.278 168.084 358.239 168.084Z" fill="#6EE8FC"/>
<path d="M371.268 159.785C371.268 160.746 370.49 161.525 369.528 161.525C368.567 161.525 367.789 160.746 367.789 159.785C367.789 158.824 368.567 158.045 369.528 158.045C370.49 158.052 371.268 158.831 371.268 159.785Z" fill="#6EE8FC"/>
<path opacity="0.5" d="M370.97 147.534C370.984 147.311 370.991 147.081 370.97 146.864V113.637L318.181 113.874L304.001 105.69C299.161 102.895 290.7 103.247 285.109 106.475L271.931 114.083L219.48 114.314V147.541H219.507C219.372 149.43 220.428 151.257 222.749 152.604L286.47 189.392C291.31 192.187 299.77 191.835 305.361 188.607L366.368 153.382C369.278 151.704 370.821 149.578 370.97 147.534Z" fill="#5CFFF3"/>
<path d="M370.97 113.637V101.744H340.281L304.001 80.7953C299.161 77.9998 290.7 78.3518 285.109 81.5804L250.183 101.744H219.48V114.314H219.507C219.372 116.202 220.428 118.03 222.749 119.377L286.47 156.165C291.31 158.96 299.77 158.608 305.361 155.379L366.368 120.155C369.596 118.294 371.153 115.877 370.97 113.637Z" fill="#312A91"/>
<path opacity="0.5" d="M370.97 113.637V101.744H340.281L304.001 80.7953C299.161 77.9998 290.7 78.3518 285.109 81.5804L250.183 101.744H219.48V114.314H219.507C219.372 116.202 220.428 118.03 222.749 119.377L286.47 156.165C291.31 158.96 299.77 158.608 305.361 155.379L366.368 120.155C369.596 118.294 371.153 115.877 370.97 113.637Z" fill="url(#paint27_linear)"/>
<path d="M304.008 80.7952C301.679 79.4482 298.518 78.839 295.235 78.9202V158.033C298.782 157.945 302.458 157.051 305.368 155.379L366.374 120.155C369.603 118.294 371.153 115.884 370.977 113.637V101.744H340.288L304.008 80.7952Z" fill="url(#paint28_linear)"/>
<path d="M286.477 143.588L222.757 106.8C217.917 104.005 218.52 99.1247 224.11 95.896L285.117 60.6717C290.708 57.4431 299.168 57.0911 304.008 59.8866L367.729 96.6744C372.568 99.4699 371.966 104.35 366.375 107.579L305.369 142.803C299.771 146.038 291.317 146.384 286.477 143.588Z" fill="#312A91"/>
<path opacity="0.5" d="M286.477 143.588L222.757 106.8C217.917 104.005 218.52 99.1247 224.11 95.896L285.117 60.6717C290.708 57.4431 299.168 57.0911 304.008 59.8866L367.729 96.6744C372.568 99.4699 371.966 104.35 366.375 107.579L305.369 142.803C299.771 146.038 291.317 146.384 286.477 143.588Z" fill="url(#paint29_linear)"/>
<path opacity="0.5" d="M288.616 143.589L224.896 106.801C220.056 104.006 218.899 99.8969 226.25 95.8966L287.256 60.6724C290.004 59.0817 293.449 58.195 296.813 58.0326C292.813 57.8498 288.454 58.7433 285.117 60.6724L224.111 95.8966C218.52 99.1253 217.911 104.006 222.757 106.801L286.477 143.589C288.941 145.01 292.332 145.613 295.812 145.443C293.104 145.322 290.566 144.719 288.616 143.589Z" fill="url(#paint30_linear)"/>
<path opacity="0.5" d="M366.374 112.899L305.368 148.123C299.777 151.352 291.316 151.704 286.477 148.909L222.756 112.121C220.428 110.781 219.372 108.953 219.514 107.058H219.487V109.664H219.514C219.379 111.552 220.435 113.38 222.756 114.727L286.477 151.514C291.316 154.31 299.777 153.958 305.368 150.729L366.374 115.505C369.603 113.644 371.153 111.234 370.977 108.987V106.381C371.153 108.621 369.596 111.038 366.374 112.899Z" fill="url(#paint31_linear)"/>
<path opacity="0.2" d="M290.173 104.404C291.499 105.169 291.499 106.408 290.173 107.173C288.846 107.937 286.707 107.937 285.38 107.173C284.054 106.408 284.054 105.169 285.38 104.404C286.707 103.639 288.846 103.639 290.173 104.404Z" fill="#5CFFF3"/>
<path opacity="0.6" d="M297.639 100.092C298.965 100.857 298.965 102.096 297.639 102.861C296.312 103.625 294.173 103.625 292.846 102.861C291.52 102.096 291.52 100.857 292.846 100.092C294.166 99.3273 296.312 99.3273 297.639 100.092Z" fill="#5CFFF3"/>
<path d="M305.098 95.7875C306.424 96.5524 306.424 97.7911 305.098 98.5559C303.771 99.3208 301.632 99.3208 300.306 98.5559C298.979 97.7911 298.979 96.5524 300.306 95.7875C301.632 95.0227 303.778 95.0227 305.098 95.7875Z" fill="#5CFFF3"/>
<path opacity="0.5" d="M294.823 134.552C292.46 134.552 290.199 134.072 288.521 133.104L241.404 105.9C239.692 104.912 238.744 103.518 238.744 101.981C238.744 100.16 240.077 98.3464 242.406 97.0062L287.512 70.9603C291.77 68.5032 298.254 68.2393 301.957 70.3782L349.074 97.5815C350.786 98.5698 351.734 99.9641 351.734 101.501C351.734 103.321 350.4 105.135 348.072 106.476L302.965 132.522C300.644 133.862 297.659 134.552 294.823 134.552ZM288.995 132.264C292.433 134.254 298.484 133.99 302.485 131.682L347.591 105.636C349.608 104.472 350.773 102.956 350.773 101.494C350.773 100.316 350.001 99.2196 348.6 98.4073L301.483 71.2039C298.044 69.2139 291.993 69.4779 287.993 71.786L242.886 97.832C240.862 98.9962 239.705 100.506 239.705 101.974C239.705 103.152 240.477 104.249 241.885 105.061L288.995 132.264Z" fill="#0B0244"/>
<path d="M294.545 153.098C291.952 153.098 289.482 152.577 287.634 151.508L206.911 104.898C205.103 103.856 204.108 102.407 204.108 100.817C204.108 98.9081 205.543 96.9857 208.041 95.544L286.504 50.2479C291.194 47.5405 298.329 47.2426 302.397 49.5981L383.12 96.2073C384.927 97.2497 385.922 98.6982 385.922 100.289C385.922 102.198 384.487 104.12 381.99 105.562L303.527 150.858C300.962 152.34 297.665 153.098 294.545 153.098ZM295.486 48.3121C292.42 48.3121 289.177 49.0566 286.653 50.5187L208.19 95.8148C205.787 97.2023 204.413 99.0299 204.413 100.824C204.413 102.299 205.354 103.653 207.06 104.641L287.783 151.25C291.77 153.552 298.769 153.261 303.378 150.601L381.841 105.304C384.244 103.917 385.618 102.089 385.618 100.296C385.618 98.8201 384.677 97.4663 382.971 96.4781L302.248 49.8621C300.44 48.8197 298.017 48.3121 295.486 48.3121Z" fill="#6EE8FC"/>
<path d="M276.771 57.0237C276.771 57.9849 275.992 58.7633 275.031 58.7633C274.07 58.7633 273.292 57.9849 273.292 57.0237C273.292 56.0626 274.07 55.2842 275.031 55.2842C275.992 55.2909 276.771 56.0693 276.771 57.0237Z" fill="#6EE8FC"/>
<path d="M213.598 94.3053C214.559 94.3053 215.338 93.5265 215.338 92.5657C215.338 91.605 214.559 90.8262 213.598 90.8262C212.638 90.8262 211.859 91.605 211.859 92.5657C211.859 93.5265 212.638 94.3053 213.598 94.3053Z" fill="#6EE8FC"/>
<path d="M348.681 125.617C348.681 126.578 347.903 127.357 346.942 127.357C345.981 127.357 345.202 126.578 345.202 125.617C345.202 124.656 345.981 123.877 346.942 123.877C347.903 123.877 348.681 124.656 348.681 125.617Z" fill="#6EE8FC"/>
<path d="M358.239 120.704C359.199 120.704 359.978 119.925 359.978 118.964C359.978 118.003 359.199 117.225 358.239 117.225C357.278 117.225 356.499 118.003 356.499 118.964C356.499 119.925 357.278 120.704 358.239 120.704Z" fill="#6EE8FC"/>
<path d="M371.268 112.405C371.268 113.366 370.49 114.145 369.528 114.145C368.567 114.145 367.789 113.366 367.789 112.405C367.789 111.444 368.567 110.666 369.528 110.666C370.49 110.672 371.268 111.451 371.268 112.405Z" fill="#6EE8FC"/>
<path opacity="0.5" d="M370.97 100.154C370.984 99.9306 370.991 99.7004 370.97 99.4838V66.2563L318.181 66.4932L304.001 58.3099C299.161 55.5144 290.7 55.8664 285.109 59.0951L271.931 66.7031L219.48 66.9332V100.161H219.507C219.372 102.049 220.428 103.877 222.749 105.224L286.47 142.012C291.31 144.807 299.77 144.455 305.361 141.226L366.368 106.002C369.278 104.323 370.821 102.198 370.97 100.154Z" fill="#5CFFF3"/>
<path d="M370.97 66.2561V54.3635H340.281L304.001 33.4144C299.161 30.6189 290.7 30.9709 285.109 34.1996L250.183 54.3635H219.48V66.933H219.507C219.372 68.8214 220.428 70.649 222.749 71.9959L286.47 108.784C291.31 111.579 299.77 111.227 305.361 107.999L366.368 72.7743C369.596 70.9129 371.153 68.4965 370.97 66.2561Z" fill="#312A91"/>
<path opacity="0.5" d="M370.97 66.2561V54.3635H340.281L304.001 33.4144C299.161 30.6189 290.7 30.9709 285.109 34.1996L250.183 54.3635H219.48V66.933H219.507C219.372 68.8214 220.428 70.649 222.749 71.9959L286.47 108.784C291.31 111.579 299.77 111.227 305.361 107.999L366.368 72.7743C369.596 70.9129 371.153 68.4965 370.97 66.2561Z" fill="url(#paint32_linear)"/>
<path d="M304.008 33.4138C301.679 32.0669 298.518 31.4577 295.235 31.5389V110.651C298.782 110.563 302.458 109.67 305.368 107.998L366.374 72.7738C369.603 70.9124 371.153 68.5027 370.977 66.2555V54.3629H340.288L304.008 33.4138Z" fill="url(#paint33_linear)"/>
<path d="M286.477 96.2073L222.757 59.4195C217.917 56.624 218.52 51.7438 224.11 48.5151L285.117 13.2909C290.708 10.0622 299.168 9.71023 304.008 12.5057L367.729 49.2935C372.568 52.089 371.966 56.9692 366.375 60.1979L305.369 95.4222C299.771 98.6576 291.317 99.0028 286.477 96.2073Z" fill="#312A91"/>
<path opacity="0.5" d="M286.477 96.2073L222.757 59.4195C217.917 56.624 218.52 51.7438 224.11 48.5151L285.117 13.2909C290.708 10.0622 299.168 9.71023 304.008 12.5057L367.729 49.2935C372.568 52.089 371.966 56.9692 366.375 60.1979L305.369 95.4222C299.771 98.6576 291.317 99.0028 286.477 96.2073Z" fill="url(#paint34_linear)"/>
<path opacity="0.5" d="M288.616 96.208L224.896 59.4201C220.056 56.6247 218.899 52.5161 226.25 48.5158L287.256 13.2915C290.004 11.7009 293.449 10.8142 296.813 10.6517C292.813 10.469 288.454 11.3624 285.117 13.2915L224.111 48.5158C218.52 51.7444 217.911 56.6247 222.757 59.4201L286.477 96.208C288.941 97.6294 292.332 98.2318 295.812 98.0626C293.104 97.9408 290.566 97.3383 288.616 96.208Z" fill="url(#paint35_linear)"/>
<path opacity="0.5" d="M366.374 65.5182L305.368 100.743C299.777 103.971 291.316 104.323 286.477 101.528L222.756 64.7398C220.428 63.3996 219.372 61.5721 219.514 59.6769H219.487V62.2828H219.514C219.379 64.1713 220.435 65.9988 222.756 67.3458L286.477 104.134C291.316 106.929 299.777 106.577 305.368 103.348L366.374 68.1242C369.603 66.2628 371.153 63.8531 370.977 61.6059V59C371.153 61.2404 369.596 63.6569 366.374 65.5182Z" fill="url(#paint36_linear)"/>
<path opacity="0.2" d="M290.173 57.0234C291.499 57.7882 291.499 59.0269 290.173 59.7917C288.846 60.5566 286.707 60.5566 285.38 59.7917C284.054 59.0269 284.054 57.7882 285.38 57.0234C286.707 56.2585 288.846 56.2585 290.173 57.0234Z" fill="#5CFFF3"/>
<path opacity="0.6" d="M297.639 52.7113C298.965 53.4762 298.965 54.7149 297.639 55.4797C296.312 56.2446 294.173 56.2446 292.846 55.4797C291.52 54.7149 291.52 53.4762 292.846 52.7113C294.166 51.9465 296.312 51.9465 297.639 52.7113Z" fill="#5CFFF3"/>
<path d="M305.098 48.4067C306.424 49.1715 306.424 50.4102 305.098 51.1751C303.771 51.9399 301.632 51.9399 300.306 51.1751C298.979 50.4102 298.979 49.1715 300.306 48.4067C301.632 47.6418 303.778 47.6418 305.098 48.4067Z" fill="#5CFFF3"/>
<path opacity="0.5" d="M294.823 87.1713C292.46 87.1713 290.199 86.6907 288.521 85.7228L241.404 58.5194C239.692 57.5312 238.744 56.1368 238.744 54.6003C238.744 52.7795 240.077 50.9655 242.406 49.6253L287.512 23.5794C291.77 21.1224 298.254 20.8584 301.957 22.9973L349.074 50.2007C350.786 51.1889 351.734 52.5832 351.734 54.1197C351.734 55.9405 350.4 57.7545 348.072 59.0947L302.965 85.1407C300.644 86.4809 297.659 87.1713 294.823 87.1713ZM288.995 84.8834C292.433 86.8734 298.484 86.6095 302.485 84.3013L347.591 58.2554C349.608 57.0912 350.773 55.575 350.773 54.113C350.773 52.9352 350.001 51.8387 348.6 51.0265L301.483 23.8231C298.044 21.8331 291.993 22.0971 287.993 24.4052L242.886 50.4511C240.862 51.6153 239.705 53.1247 239.705 54.5935C239.705 55.7713 240.477 56.8678 241.885 57.6801L288.995 84.8834Z" fill="#0B0244"/>
<path d="M294.545 105.717C291.952 105.717 289.482 105.196 287.634 104.127L206.911 57.5175C205.103 56.4751 204.108 55.0266 204.108 53.436C204.108 51.5272 205.543 49.6049 208.041 48.1632L286.504 2.86707C291.194 0.159597 298.329 -0.13823 302.397 2.21727L383.12 48.8265C384.927 49.8689 385.922 51.3174 385.922 52.908C385.922 54.8168 384.487 56.7391 381.99 58.1808L303.527 103.477C300.962 104.959 297.665 105.717 294.545 105.717ZM295.486 0.931227C292.42 0.931227 289.177 1.67578 286.653 3.13782L208.19 48.4339C205.787 49.8215 204.413 51.649 204.413 53.4427C204.413 54.9183 205.354 56.272 207.06 57.2603L287.783 103.869C291.77 106.171 298.769 105.88 303.378 103.22L381.841 57.9236C384.244 56.536 385.618 54.7085 385.618 52.9148C385.618 51.4392 384.677 50.0855 382.971 49.0972L302.248 2.48126C300.44 1.43888 298.017 0.931227 295.486 0.931227Z" fill="#6EE8FC"/>
<path d="M276.771 9.64239C276.771 10.6035 275.992 11.3819 275.031 11.3819C274.07 11.3819 273.292 10.6035 273.292 9.64239C273.292 8.68123 274.07 7.90283 275.031 7.90283C275.992 7.9096 276.771 8.688 276.771 9.64239Z" fill="#6EE8FC"/>
<path d="M213.598 46.9249C214.559 46.9249 215.338 46.1461 215.338 45.1854C215.338 44.2246 214.559 43.4458 213.598 43.4458C212.638 43.4458 211.859 44.2246 211.859 45.1854C211.859 46.1461 212.638 46.9249 213.598 46.9249Z" fill="#6EE8FC"/>
<path d="M348.681 78.2366C348.681 79.1978 347.903 79.9762 346.942 79.9762C345.981 79.9762 345.202 79.1978 345.202 78.2366C345.202 77.2755 345.981 76.4971 346.942 76.4971C347.903 76.4971 348.681 77.2755 348.681 78.2366Z" fill="#6EE8FC"/>
<path d="M358.239 73.3229C359.199 73.3229 359.978 72.544 359.978 71.5833C359.978 70.6226 359.199 69.8438 358.239 69.8438C357.278 69.8438 356.499 70.6226 356.499 71.5833C356.499 72.544 357.278 73.3229 358.239 73.3229Z" fill="#6EE8FC"/>
<path d="M371.268 65.0242C371.268 65.9854 370.49 66.7638 369.528 66.7638C368.567 66.7638 367.789 65.9854 367.789 65.0242C367.789 64.0631 368.567 63.2847 369.528 63.2847C370.49 63.2914 371.268 64.0698 371.268 65.0242Z" fill="#6EE8FC"/>
<path d="M466.623 335.395C464.03 335.395 461.56 334.873 459.712 333.804L378.988 287.195C377.181 286.152 376.186 284.704 376.186 283.113C376.186 281.204 377.621 279.282 380.119 277.84L458.581 232.544C463.272 229.837 470.406 229.539 474.474 231.895L555.198 278.504C557.005 279.546 558 280.995 558 282.585C558 284.494 556.565 286.416 554.067 287.858L475.605 333.154C473.039 334.636 469.743 335.395 466.623 335.395ZM467.563 230.602C464.497 230.602 461.255 231.346 458.73 232.808L380.268 278.104C377.865 279.492 376.491 281.319 376.491 283.113C376.491 284.589 377.431 285.943 379.137 286.931L459.861 333.54C463.847 335.841 470.839 335.55 475.456 332.89L553.918 287.594C556.321 286.206 557.695 284.379 557.695 282.585C557.695 281.11 556.754 279.756 555.049 278.768L474.325 232.159C472.518 231.116 470.095 230.602 467.563 230.602Z" fill="#6EE8FC"/>
<path d="M447.108 245.411C450.473 245.411 453.2 242.684 453.2 239.319C453.2 235.955 450.473 233.228 447.108 233.228C443.744 233.228 441.017 235.955 441.017 239.319C441.017 242.684 443.744 245.411 447.108 245.411Z" fill="url(#paint37_radial)"/>
<path d="M448.848 239.32C448.848 240.281 448.07 241.06 447.109 241.06C446.148 241.06 445.369 240.281 445.369 239.32C445.369 238.359 446.148 237.581 447.109 237.581C448.07 237.581 448.848 238.359 448.848 239.32Z" fill="#6EE8FC"/>
<path d="M387.416 274.855C387.416 275.816 386.637 276.595 385.676 276.595C384.715 276.595 383.937 275.816 383.937 274.855C383.937 273.894 384.715 273.116 385.676 273.116C386.637 273.122 387.416 273.901 387.416 274.855Z" fill="#6EE8FC"/>
<path d="M519.019 309.653C519.98 309.653 520.759 308.875 520.759 307.914C520.759 306.953 519.98 306.174 519.019 306.174C518.059 306.174 517.28 306.953 517.28 307.914C517.28 308.875 518.059 309.653 519.019 309.653Z" fill="#6EE8FC"/>
<path d="M532.055 301.254C532.055 302.215 531.277 302.993 530.316 302.993C529.355 302.993 528.576 302.215 528.576 301.254C528.576 300.293 529.355 299.514 530.316 299.514C531.277 299.521 532.055 300.299 532.055 301.254Z" fill="#6EE8FC"/>
<path d="M543.345 294.701C543.345 295.663 542.567 296.441 541.606 296.441C540.645 296.441 539.866 295.663 539.866 294.701C539.866 293.74 540.645 292.962 541.606 292.962C542.567 292.962 543.345 293.74 543.345 294.701Z" fill="#6EE8FC"/>
<g opacity="0.25" filter="url(#filter2_f)">
<path d="M458.724 296.029L401.19 262.815C396.817 260.29 397.365 255.883 402.415 252.966L457.498 221.167C462.548 218.25 470.183 217.938 474.556 220.463L532.089 253.677C536.462 256.202 535.914 260.608 530.864 263.525L475.781 295.325C470.731 298.242 463.096 298.553 458.724 296.029Z" fill="#0A0E2D"/>
</g>
<path d="M543.048 248.62V236.728H512.359L476.079 215.779C471.239 212.983 462.778 213.335 457.187 216.564L422.261 236.728H391.558V249.297H391.585C391.45 251.192 392.505 253.013 394.827 254.36L458.548 291.148C463.387 293.943 471.848 293.592 477.439 290.363L538.445 255.139C541.674 253.277 543.231 250.868 543.048 248.62Z" fill="#312A91"/>
<path opacity="0.5" d="M543.048 248.62V236.728H512.359L476.079 215.779C471.239 212.983 462.778 213.335 457.187 216.564L422.261 236.728H391.558V249.297H391.585C391.45 251.192 392.505 253.013 394.827 254.36L458.548 291.148C463.387 293.943 471.848 293.592 477.439 290.363L538.445 255.139C541.674 253.277 543.231 250.868 543.048 248.62Z" fill="url(#paint38_linear)"/>
<path d="M476.085 215.779C473.757 214.432 470.596 213.822 467.313 213.904V293.016C470.86 292.928 474.535 292.035 477.446 290.363L538.452 255.139C541.681 253.277 543.231 250.867 543.055 248.62V236.728H512.365L476.085 215.779Z" fill="url(#paint39_linear)"/>
<path d="M458.555 278.578L394.834 241.791C389.995 238.995 390.597 234.115 396.188 230.886L457.194 195.662C462.785 192.433 471.246 192.081 476.086 194.877L539.806 231.665C544.646 234.46 544.043 239.34 538.452 242.569L477.446 277.793C471.849 281.022 463.394 281.374 458.555 278.578Z" fill="#312A91"/>
<path opacity="0.5" d="M458.555 278.578L394.834 241.791C389.995 238.995 390.597 234.115 396.188 230.886L457.194 195.662C462.785 192.433 471.246 192.081 476.086 194.877L539.806 231.665C544.646 234.46 544.043 239.34 538.452 242.569L477.446 277.793C471.849 281.022 463.394 281.374 458.555 278.578Z" fill="url(#paint40_linear)"/>
<path d="M460.254 270.449L408.913 240.809C405.014 238.555 405.502 234.622 410.003 232.023L459.157 203.642C463.665 201.043 470.474 200.759 474.38 203.013L525.72 232.653C529.619 234.907 529.132 238.839 524.631 241.438L475.476 269.819C470.968 272.419 464.159 272.696 460.254 270.449Z" fill="#5CFFF3"/>
<path d="M410.003 235.861L459.157 207.48C463.665 204.881 470.474 204.597 474.38 206.851L525.72 236.491C526.681 237.046 527.378 237.709 527.812 238.42C528.942 236.342 528.292 234.129 525.72 232.646L474.38 203.006C470.481 200.752 463.665 201.036 459.157 203.636L410.003 232.017C406.611 233.973 405.495 236.687 406.821 238.873C407.41 237.797 408.466 236.748 410.003 235.861Z" fill="#42E8E0"/>
<path opacity="0.5" d="M460.693 278.578L396.973 241.79C392.133 238.995 390.976 234.886 398.326 230.886L459.333 195.662C462.081 194.071 465.526 193.184 468.89 193.022C464.89 192.839 460.531 193.733 457.194 195.662L396.187 230.886C390.596 234.115 389.987 238.995 394.834 241.79L458.554 278.578C461.018 280 464.409 280.602 467.888 280.433C465.181 280.311 462.642 279.702 460.693 278.578Z" fill="url(#paint41_linear)"/>
<path opacity="0.5" d="M538.452 247.883L477.446 283.107C471.855 286.335 463.394 286.687 458.554 283.892L394.834 247.104C392.505 245.764 391.449 243.936 391.592 242.041H391.564V244.647H391.592C391.456 246.542 392.512 248.363 394.834 249.71L458.554 286.498C463.394 289.293 471.855 288.941 477.446 285.713L538.452 250.488C541.68 248.627 543.231 246.217 543.055 243.97V241.364C543.231 243.611 541.674 246.021 538.452 247.883Z" fill="url(#paint42_linear)"/>
<path d="M527.386 244.417C528.083 244.816 528.083 245.466 527.386 245.872C526.688 246.271 525.565 246.271 524.868 245.872C524.17 245.473 524.17 244.823 524.868 244.417C525.565 244.011 526.688 244.017 527.386 244.417Z" fill="#FCCC6B"/>
<path d="M531.311 242.15C532.009 242.549 532.009 243.199 531.311 243.605C530.614 244.011 529.491 244.004 528.793 243.605C528.096 243.206 528.096 242.556 528.793 242.15C529.484 241.75 530.614 241.75 531.311 242.15Z" fill="#FCCC6B"/>
<path d="M535.23 239.888C535.927 240.288 535.927 240.944 535.23 241.344C534.533 241.743 533.41 241.743 532.712 241.344C532.015 240.944 532.015 240.295 532.712 239.888C533.41 239.482 534.533 239.489 535.23 239.888Z" fill="#FCCC6B"/>
<path opacity="0.5" d="M461.776 263.268L421.502 240.017C418.443 238.251 418.829 235.164 422.362 233.127L460.916 210.864C464.45 208.827 469.797 208.604 472.856 210.37L513.13 233.621C516.189 235.387 515.804 238.474 512.27 240.511L473.716 262.774C470.183 264.811 464.835 265.034 461.776 263.268Z" fill="#0B0244"/>
<path opacity="0.5" d="M543.048 236.727C543.061 236.504 543.068 236.274 543.048 236.057V202.83L490.259 203.066L476.078 194.883C471.239 192.088 462.778 192.44 457.187 195.668L444.008 203.276L391.558 203.506V236.734H391.585C391.449 238.622 392.505 240.45 394.827 241.797L458.547 278.585C463.387 281.38 471.848 281.028 477.439 277.8L538.445 242.575C541.355 240.897 542.899 238.771 543.048 236.727Z" fill="#5CFFF3"/>
<path d="M543.048 202.829V190.937H512.358L476.078 169.988C471.239 167.192 462.778 167.544 457.187 170.773L422.26 190.937H391.558V203.506H391.585C391.449 205.395 392.505 207.222 394.827 208.569L458.547 245.357C463.387 248.152 471.848 247.801 477.439 244.572L538.445 209.348C541.674 207.486 543.23 205.07 543.048 202.829Z" fill="#312A91"/>
<path opacity="0.5" d="M543.048 202.829V190.937H512.358L476.078 169.988C471.239 167.192 462.778 167.544 457.187 170.773L422.26 190.937H391.558V203.506H391.585C391.449 205.395 392.505 207.222 394.827 208.569L458.547 245.357C463.387 248.152 471.848 247.801 477.439 244.572L538.445 209.348C541.674 207.486 543.23 205.07 543.048 202.829Z" fill="url(#paint43_linear)"/>
<path d="M476.085 169.988C473.757 168.641 470.596 168.032 467.313 168.113V247.226C470.86 247.138 474.535 246.244 477.446 244.572L538.452 209.348C541.681 207.487 543.231 205.077 543.055 202.83V190.937H512.365L476.085 169.988Z" fill="url(#paint44_linear)"/>
<path d="M458.554 232.781L394.834 195.993C389.994 193.198 390.596 188.318 396.187 185.089L457.194 149.865C462.785 146.636 471.245 146.284 476.085 149.079L539.805 185.867C544.645 188.663 544.043 193.543 538.452 196.772L477.445 231.996C471.848 235.231 463.394 235.577 458.554 232.781Z" fill="#312A91"/>
<path opacity="0.5" d="M458.554 232.781L394.834 195.993C389.994 193.198 390.596 188.318 396.187 185.089L457.194 149.865C462.785 146.636 471.245 146.284 476.085 149.079L539.805 185.867C544.645 188.663 544.043 193.543 538.452 196.772L477.445 231.996C471.848 235.231 463.394 235.577 458.554 232.781Z" fill="url(#paint45_linear)"/>
<path opacity="0.5" d="M460.694 232.781L396.973 195.993C392.134 193.197 390.976 189.089 398.327 185.089L459.333 149.864C462.081 148.274 465.527 147.387 468.891 147.224C464.89 147.042 460.531 147.935 457.194 149.864L396.188 185.089C390.597 188.317 389.988 193.197 394.834 195.993L458.555 232.781C461.019 234.202 464.41 234.805 467.889 234.635C465.181 234.514 462.643 233.911 460.694 232.781Z" fill="url(#paint46_linear)"/>
<path opacity="0.5" d="M538.452 202.091L477.446 237.316C471.855 240.544 463.394 240.896 458.554 238.101L394.834 201.313C392.505 199.973 391.449 198.145 391.592 196.25H391.564V198.856H391.592C391.456 200.745 392.512 202.572 394.834 203.919L458.554 240.707C463.394 243.502 471.855 243.15 477.446 239.922L538.452 204.697C541.68 202.836 543.231 200.426 543.055 198.179V195.573C543.231 197.814 541.674 200.23 538.452 202.091Z" fill="url(#paint47_linear)"/>
<path opacity="0.2" d="M462.251 193.597C463.577 194.362 463.577 195.601 462.251 196.365C460.924 197.13 458.785 197.13 457.458 196.365C456.132 195.601 456.132 194.362 457.458 193.597C458.785 192.832 460.924 192.832 462.251 193.597Z" fill="#5CFFF3"/>
<path opacity="0.6" d="M469.716 189.285C471.043 190.05 471.043 191.289 469.716 192.053C468.39 192.818 466.251 192.818 464.924 192.053C463.598 191.289 463.598 190.05 464.924 189.285C466.244 188.52 468.39 188.52 469.716 189.285Z" fill="#5CFFF3"/>
<path d="M477.175 184.98C478.502 185.745 478.502 186.984 477.175 187.749C475.849 188.514 473.71 188.514 472.383 187.749C471.057 186.984 471.057 185.745 472.383 184.98C473.71 184.216 475.856 184.216 477.175 184.98Z" fill="#5CFFF3"/>
<path opacity="0.5" d="M466.9 223.745C464.538 223.745 462.277 223.264 460.598 222.296L413.482 195.093C411.769 194.105 410.822 192.711 410.822 191.174C410.822 189.353 412.155 187.539 414.483 186.199L459.59 160.153C463.847 157.696 470.332 157.432 474.034 159.571L521.151 186.774C522.864 187.763 523.811 189.157 523.811 190.693C523.811 192.514 522.478 194.328 520.149 195.668L475.043 221.714C472.721 223.055 469.736 223.745 466.9 223.745ZM461.072 221.457C464.511 223.447 470.562 223.183 474.562 220.875L519.669 194.829C521.686 193.665 522.85 192.149 522.85 190.687C522.85 189.509 522.079 188.412 520.677 187.6L473.561 160.397C470.122 158.407 464.071 158.671 460.071 160.979L414.964 187.025C412.94 188.189 411.783 189.698 411.783 191.167C411.783 192.345 412.554 193.442 413.962 194.254L461.072 221.457Z" fill="#0B0244"/>
<path d="M466.623 242.292C464.03 242.292 461.56 241.77 459.712 240.701L378.989 194.092C377.181 193.049 376.186 191.601 376.186 190.01C376.186 188.101 377.621 186.179 380.119 184.737L458.582 139.441C463.272 136.734 470.406 136.436 474.474 138.791L555.198 185.401C557.005 186.443 558 187.892 558 189.482C558 191.391 556.565 193.313 554.067 194.755L475.605 240.051C473.039 241.533 469.743 242.292 466.623 242.292ZM467.564 137.505C464.497 137.505 461.255 138.25 458.73 139.712L380.268 185.008C377.865 186.396 376.491 188.223 376.491 190.017C376.491 191.493 377.432 192.846 379.137 193.834L459.861 240.444C463.848 242.745 470.846 242.454 475.456 239.794L553.919 194.498C556.321 193.11 557.695 191.283 557.695 189.489C557.695 188.013 556.755 186.66 555.049 185.671L474.326 139.055C472.518 138.013 470.095 137.505 467.564 137.505Z" fill="#6EE8FC"/>
<path d="M448.848 146.217C448.848 147.178 448.069 147.957 447.108 147.957C446.147 147.957 445.369 147.178 445.369 146.217C445.369 145.256 446.147 144.478 447.108 144.478C448.069 144.484 448.848 145.263 448.848 146.217Z" fill="#6EE8FC"/>
<path d="M385.676 183.499C386.637 183.499 387.415 182.72 387.415 181.759C387.415 180.798 386.637 180.02 385.676 180.02C384.715 180.02 383.936 180.798 383.936 181.759C383.936 182.72 384.715 183.499 385.676 183.499Z" fill="#6EE8FC"/>
<path d="M520.758 214.81C520.758 215.772 519.98 216.55 519.019 216.55C518.058 216.55 517.279 215.772 517.279 214.81C517.279 213.849 518.058 213.071 519.019 213.071C519.98 213.071 520.758 213.849 520.758 214.81Z" fill="#6EE8FC"/>
<path d="M530.316 209.897C531.276 209.897 532.055 209.118 532.055 208.157C532.055 207.196 531.276 206.417 530.316 206.417C529.355 206.417 528.576 207.196 528.576 208.157C528.576 209.118 529.355 209.897 530.316 209.897Z" fill="#6EE8FC"/>
<path d="M543.345 201.598C543.345 202.559 542.567 203.338 541.606 203.338C540.645 203.338 539.866 202.559 539.866 201.598C539.866 200.637 540.645 199.858 541.606 199.858C542.567 199.865 543.345 200.644 543.345 201.598Z" fill="#6EE8FC"/>
<path opacity="0.5" d="M543.97 190.154C543.984 189.931 543.991 189.7 543.97 189.484V156.256L491.181 156.493L477.001 148.31C472.161 145.514 463.7 145.866 458.109 149.095L444.931 156.703L392.48 156.933V190.161H392.507C392.372 192.049 393.428 193.877 395.749 195.224L459.47 232.012C464.31 234.807 472.77 234.455 478.361 231.226L539.368 196.002C542.278 194.323 543.821 192.198 543.97 190.154Z" fill="#5CFFF3"/>
<path d="M543.97 156.256V144.363H513.281L477.001 123.414C472.161 120.619 463.7 120.971 458.109 124.2L423.183 144.363H392.48V156.933H392.507C392.372 158.821 393.428 160.649 395.749 161.996L459.47 198.784C464.31 201.579 472.77 201.227 478.361 197.999L539.368 162.774C542.596 160.913 544.153 158.497 543.97 156.256Z" fill="#312A91"/>
<path opacity="0.5" d="M543.97 156.256V144.363H513.281L477.001 123.414C472.161 120.619 463.7 120.971 458.109 124.2L423.183 144.363H392.48V156.933H392.507C392.372 158.821 393.428 160.649 395.749 161.996L459.47 198.784C464.31 201.579 472.77 201.227 478.361 197.999L539.368 162.774C542.596 160.913 544.153 158.497 543.97 156.256Z" fill="url(#paint48_linear)"/>
<path d="M477.008 123.414C474.679 122.067 471.518 121.458 468.235 121.539V200.651C471.782 200.563 475.458 199.67 478.368 197.998L539.374 162.774C542.603 160.912 544.153 158.503 543.977 156.256V144.363H513.288L477.008 123.414Z" fill="url(#paint49_linear)"/>
<path d="M459.477 186.207L395.757 149.42C390.917 146.624 391.52 141.744 397.11 138.515L458.117 103.291C463.708 100.062 472.168 99.7102 477.008 102.506L540.729 139.294C545.568 142.089 544.966 146.969 539.375 150.198L478.369 185.422C472.771 188.658 464.317 189.003 459.477 186.207Z" fill="#312A91"/>
<path opacity="0.5" d="M459.477 186.207L395.757 149.42C390.917 146.624 391.52 141.744 397.11 138.515L458.117 103.291C463.708 100.062 472.168 99.7102 477.008 102.506L540.729 139.294C545.568 142.089 544.966 146.969 539.375 150.198L478.369 185.422C472.771 188.658 464.317 189.003 459.477 186.207Z" fill="url(#paint50_linear)"/>
<path opacity="0.5" d="M461.616 186.208L397.896 149.42C393.056 146.625 391.899 142.516 399.25 138.516L460.256 103.292C463.004 101.701 466.449 100.814 469.813 100.652C465.813 100.469 461.454 101.362 458.117 103.292L397.111 138.516C391.52 141.744 390.911 146.625 395.757 149.42L459.477 186.208C461.941 187.629 465.332 188.232 468.812 188.063C466.104 187.941 463.566 187.338 461.616 186.208Z" fill="url(#paint51_linear)"/>
<path opacity="0.5" d="M539.374 155.518L478.368 190.743C472.777 193.971 464.316 194.323 459.477 191.528L395.756 154.74C393.428 153.4 392.372 151.572 392.514 149.677H392.487V152.283H392.514C392.379 154.171 393.435 155.999 395.756 157.346L459.477 194.134C464.316 196.929 472.777 196.577 478.368 193.348L539.374 158.124C542.603 156.263 544.153 153.853 543.977 151.606V149C544.153 151.24 542.596 153.657 539.374 155.518Z" fill="url(#paint52_linear)"/>
<path opacity="0.2" d="M463.172 147.023C464.499 147.788 464.499 149.027 463.172 149.792C461.846 150.557 459.707 150.557 458.38 149.792C457.054 149.027 457.054 147.788 458.38 147.023C459.707 146.258 461.846 146.258 463.172 147.023Z" fill="#5CFFF3"/>
<path opacity="0.6" d="M470.638 142.711C471.965 143.476 471.965 144.715 470.638 145.48C469.312 146.245 467.173 146.245 465.846 145.48C464.519 144.715 464.519 143.476 465.846 142.711C467.166 141.946 469.312 141.946 470.638 142.711Z" fill="#5CFFF3"/>
<path d="M478.097 138.407C479.424 139.172 479.424 140.41 478.097 141.175C476.771 141.94 474.632 141.94 473.305 141.175C471.978 140.41 471.978 139.172 473.305 138.407C474.632 137.642 476.777 137.642 478.097 138.407Z" fill="#5CFFF3"/>
<path opacity="0.5" d="M467.823 177.171C465.46 177.171 463.199 176.691 461.521 175.723L414.404 148.519C412.692 147.531 411.744 146.137 411.744 144.6C411.744 142.78 413.077 140.966 415.406 139.625L460.512 113.579C464.77 111.122 471.254 110.858 474.957 112.997L522.074 140.201C523.786 141.189 524.734 142.583 524.734 144.12C524.734 145.941 523.4 147.755 521.072 149.095L475.965 175.141C473.644 176.481 470.659 177.171 467.823 177.171ZM461.995 174.883C465.433 176.873 471.484 176.609 475.485 174.301L520.591 148.255C522.608 147.091 523.773 145.575 523.773 144.113C523.773 142.935 523.001 141.839 521.6 141.026L474.483 113.823C471.044 111.833 464.993 112.097 460.993 114.405L415.886 140.451C413.862 141.615 412.705 143.125 412.705 144.594C412.705 145.771 413.477 146.868 414.885 147.68L461.995 174.883Z" fill="#0B0244"/>
<path d="M467.545 195.717C464.952 195.717 462.482 195.196 460.634 194.127L379.911 147.517C378.103 146.475 377.108 145.027 377.108 143.436C377.108 141.527 378.543 139.605 381.041 138.163L459.504 92.8671C464.194 90.1596 471.329 89.8618 475.397 92.2173L556.12 138.826C557.927 139.869 558.922 141.317 558.922 142.908C558.922 144.817 557.487 146.739 554.99 148.181L476.527 193.477C473.962 194.959 470.665 195.717 467.545 195.717ZM468.486 90.9312C465.42 90.9312 462.177 91.6758 459.653 93.1378L381.19 138.434C378.787 139.821 377.413 141.649 377.413 143.443C377.413 144.918 378.354 146.272 380.06 147.26L460.783 193.869C464.77 196.171 471.769 195.88 476.378 193.22L554.841 147.924C557.244 146.536 558.618 144.708 558.618 142.915C558.618 141.439 557.677 140.085 555.971 139.097L475.248 92.4813C473.44 91.4389 471.017 90.9312 468.486 90.9312Z" fill="#6EE8FC"/>
<path d="M449.771 99.6424C449.771 100.604 448.992 101.382 448.031 101.382C447.07 101.382 446.292 100.604 446.292 99.6424C446.292 98.6812 447.07 97.9028 448.031 97.9028C448.992 97.9096 449.771 98.688 449.771 99.6424Z" fill="#6EE8FC"/>
<path d="M386.598 136.925C387.559 136.925 388.338 136.146 388.338 135.185C388.338 134.225 387.559 133.446 386.598 133.446C385.638 133.446 384.859 134.225 384.859 135.185C384.859 136.146 385.638 136.925 386.598 136.925Z" fill="#6EE8FC"/>
<path d="M521.681 168.237C521.681 169.198 520.903 169.976 519.942 169.976C518.981 169.976 518.202 169.198 518.202 168.237C518.202 167.275 518.981 166.497 519.942 166.497C520.903 166.497 521.681 167.275 521.681 168.237Z" fill="#6EE8FC"/>
<path d="M531.239 163.323C532.199 163.323 532.978 162.544 532.978 161.583C532.978 160.623 532.199 159.844 531.239 159.844C530.278 159.844 529.499 160.623 529.499 161.583C529.499 162.544 530.278 163.323 531.239 163.323Z" fill="#6EE8FC"/>
<path d="M544.268 155.024C544.268 155.985 543.49 156.764 542.529 156.764C541.567 156.764 540.789 155.985 540.789 155.024C540.789 154.063 541.567 153.285 542.529 153.285C543.49 153.291 544.268 154.07 544.268 155.024Z" fill="#6EE8FC"/>
<defs>
<filter id="filter0_f" x="0.769043" y="164.303" width="241.217" height="169.469" filterUnits="userSpaceOnUse" color-interpolation-filters="sRGB">
<feFlood flood-opacity="0" result="BackgroundImageFix"/>
<feBlend mode="normal" in="SourceGraphic" in2="BackgroundImageFix" result="shape"/>
<feGaussianBlur stdDeviation="18" result="effect1_foregroundBlur"/>
</filter>
<filter id="filter1_f" x="191.372" y="211.102" width="208.804" height="150.979" filterUnits="userSpaceOnUse" color-interpolation-filters="sRGB">
<feFlood flood-opacity="0" result="BackgroundImageFix"/>
<feBlend mode="normal" in="SourceGraphic" in2="BackgroundImageFix" result="shape"/>
<feGaussianBlur stdDeviation="18" result="effect1_foregroundBlur"/>
</filter>
<filter id="filter2_f" x="390.238" y="210.756" width="152.804" height="94.9787" filterUnits="userSpaceOnUse" color-interpolation-filters="sRGB">
<feFlood flood-opacity="0" result="BackgroundImageFix"/>
<feBlend mode="normal" in="SourceGraphic" in2="BackgroundImageFix" result="shape"/>
<feGaussianBlur stdDeviation="4" result="effect1_foregroundBlur"/>
</filter>
<radialGradient id="paint0_radial" cx="0" cy="0" r="1" gradientUnits="userSpaceOnUse" gradientTransform="translate(100.924 219.168) scale(6.09277)">
<stop stop-color="#42E8E0"/>
<stop offset="0.0225" stop-color="#3FD8D7"/>
<stop offset="0.0983" stop-color="#36A9BA"/>
<stop offset="0.1786" stop-color="#2E7FA0"/>
<stop offset="0.2622" stop-color="#275C8B"/>
<stop offset="0.35" stop-color="#223F79"/>
<stop offset="0.4433" stop-color="#1D296C"/>
<stop offset="0.5449" stop-color="#1A1962"/>
<stop offset="0.6608" stop-color="#19105D"/>
<stop offset="0.8226" stop-color="#180D5B"/>
</radialGradient>
<linearGradient id="paint1_linear" x1="11.8851" y1="233.311" x2="163.389" y2="233.311" gradientUnits="userSpaceOnUse">
<stop stop-color="#42E8E0"/>
<stop offset="0.1022" stop-color="#3CCACE"/>
<stop offset="0.3445" stop-color="#2F87A5"/>
<stop offset="0.564" stop-color="#255385"/>
<stop offset="0.7534" stop-color="#1E2D6E"/>
<stop offset="0.905" stop-color="#1A1660"/>
<stop offset="1" stop-color="#180D5B"/>
</linearGradient>
<linearGradient id="paint2_linear" x1="121.126" y1="233.308" x2="196.878" y2="233.308" gradientUnits="userSpaceOnUse">
<stop stop-color="#2B237C"/>
<stop offset="1" stop-color="#180D5B"/>
</linearGradient>
<linearGradient id="paint3_linear" x1="45.3744" y1="216.575" x2="196.889" y2="216.575" gradientUnits="userSpaceOnUse">
<stop stop-color="#42E8E0"/>
<stop offset="0.1022" stop-color="#3CCACE"/>
<stop offset="0.3445" stop-color="#2F87A5"/>
<stop offset="0.564" stop-color="#255385"/>
<stop offset="0.7534" stop-color="#1E2D6E"/>
<stop offset="0.905" stop-color="#1A1660"/>
<stop offset="1" stop-color="#180D5B"/>
</linearGradient>
<linearGradient id="paint4_linear" x1="45.3739" y1="216.577" x2="122.704" y2="216.577" gradientUnits="userSpaceOnUse">
<stop stop-color="#42E8E0"/>
<stop offset="0.1022" stop-color="#3CCACE"/>
<stop offset="0.3445" stop-color="#2F87A5"/>
<stop offset="0.564" stop-color="#255385"/>
<stop offset="0.7534" stop-color="#1E2D6E"/>
<stop offset="0.905" stop-color="#1A1660"/>
<stop offset="1" stop-color="#180D5B"/>
</linearGradient>
<linearGradient id="paint5_linear" x1="65.9813" y1="260.663" x2="192.799" y2="177.772" gradientUnits="userSpaceOnUse">
<stop stop-color="#42E8E0"/>
<stop offset="0.1022" stop-color="#3CCACE"/>
<stop offset="0.3445" stop-color="#2F87A5"/>
<stop offset="0.564" stop-color="#255385"/>
<stop offset="0.7534" stop-color="#1E2D6E"/>
<stop offset="0.905" stop-color="#1A1660"/>
<stop offset="1" stop-color="#180D5B"/>
</linearGradient>
<linearGradient id="paint6_linear" x1="11.8849" y1="187.516" x2="163.389" y2="187.516" gradientUnits="userSpaceOnUse">
<stop stop-color="#42E8E0"/>
<stop offset="0.1022" stop-color="#3CCACE"/>
<stop offset="0.3445" stop-color="#2F87A5"/>
<stop offset="0.564" stop-color="#255385"/>
<stop offset="0.7534" stop-color="#1E2D6E"/>
<stop offset="0.905" stop-color="#1A1660"/>
<stop offset="1" stop-color="#180D5B"/>
</linearGradient>
<linearGradient id="paint7_linear" x1="121.126" y1="187.512" x2="196.878" y2="187.512" gradientUnits="userSpaceOnUse">
<stop stop-color="#2B237C"/>
<stop offset="1" stop-color="#180D5B"/>
</linearGradient>
<linearGradient id="paint8_linear" x1="45.3739" y1="170.779" x2="196.888" y2="170.779" gradientUnits="userSpaceOnUse">
<stop stop-color="#42E8E0"/>
<stop offset="0.1022" stop-color="#3CCACE"/>
<stop offset="0.3445" stop-color="#2F87A5"/>
<stop offset="0.564" stop-color="#255385"/>
<stop offset="0.7534" stop-color="#1E2D6E"/>
<stop offset="0.905" stop-color="#1A1660"/>
<stop offset="1" stop-color="#180D5B"/>
</linearGradient>
<linearGradient id="paint9_linear" x1="45.3739" y1="170.781" x2="122.704" y2="170.781" gradientUnits="userSpaceOnUse">
<stop stop-color="#42E8E0"/>
<stop offset="0.1022" stop-color="#3CCACE"/>
<stop offset="0.3445" stop-color="#2F87A5"/>
<stop offset="0.564" stop-color="#255385"/>
<stop offset="0.7534" stop-color="#1E2D6E"/>
<stop offset="0.905" stop-color="#1A1660"/>
<stop offset="1" stop-color="#180D5B"/>
</linearGradient>
<linearGradient id="paint10_linear" x1="65.9811" y1="214.867" x2="192.798" y2="131.976" gradientUnits="userSpaceOnUse">
<stop stop-color="#42E8E0"/>
<stop offset="0.1022" stop-color="#3CCACE"/>
<stop offset="0.3445" stop-color="#2F87A5"/>
<stop offset="0.564" stop-color="#255385"/>
<stop offset="0.7534" stop-color="#1E2D6E"/>
<stop offset="0.905" stop-color="#1A1660"/>
<stop offset="1" stop-color="#180D5B"/>
</linearGradient>
<radialGradient id="paint11_radial" cx="0" cy="0" r="1" gradientUnits="userSpaceOnUse" gradientTransform="translate(275.566 243.298) scale(6.09277)">
<stop stop-color="#42E8E0"/>
<stop offset="0.0225" stop-color="#3FD8D7"/>
<stop offset="0.0983" stop-color="#36A9BA"/>
<stop offset="0.1786" stop-color="#2E7FA0"/>
<stop offset="0.2622" stop-color="#275C8B"/>
<stop offset="0.35" stop-color="#223F79"/>
<stop offset="0.4433" stop-color="#1D296C"/>
<stop offset="0.5449" stop-color="#1A1962"/>
<stop offset="0.6608" stop-color="#19105D"/>
<stop offset="0.8226" stop-color="#180D5B"/>
</radialGradient>
<linearGradient id="paint12_linear" x1="186.528" y1="257.442" x2="338.032" y2="257.442" gradientUnits="userSpaceOnUse">
<stop stop-color="#42E8E0"/>
<stop offset="0.1022" stop-color="#3CCACE"/>
<stop offset="0.3445" stop-color="#2F87A5"/>
<stop offset="0.564" stop-color="#255385"/>
<stop offset="0.7534" stop-color="#1E2D6E"/>
<stop offset="0.905" stop-color="#1A1660"/>
<stop offset="1" stop-color="#180D5B"/>
</linearGradient>
<linearGradient id="paint13_linear" x1="295.769" y1="257.439" x2="371.521" y2="257.439" gradientUnits="userSpaceOnUse">
<stop stop-color="#2B237C"/>
<stop offset="1" stop-color="#180D5B"/>
</linearGradient>
<linearGradient id="paint14_linear" x1="220.017" y1="240.705" x2="371.531" y2="240.705" gradientUnits="userSpaceOnUse">
<stop stop-color="#42E8E0"/>
<stop offset="0.1022" stop-color="#3CCACE"/>
<stop offset="0.3445" stop-color="#2F87A5"/>
<stop offset="0.564" stop-color="#255385"/>
<stop offset="0.7534" stop-color="#1E2D6E"/>
<stop offset="0.905" stop-color="#1A1660"/>
<stop offset="1" stop-color="#180D5B"/>
</linearGradient>
<linearGradient id="paint15_linear" x1="220.017" y1="240.708" x2="297.347" y2="240.708" gradientUnits="userSpaceOnUse">
<stop stop-color="#42E8E0"/>
<stop offset="0.1022" stop-color="#3CCACE"/>
<stop offset="0.3445" stop-color="#2F87A5"/>
<stop offset="0.564" stop-color="#255385"/>
<stop offset="0.7534" stop-color="#1E2D6E"/>
<stop offset="0.905" stop-color="#1A1660"/>
<stop offset="1" stop-color="#180D5B"/>
</linearGradient>
<linearGradient id="paint16_linear" x1="240.625" y1="284.793" x2="367.442" y2="201.902" gradientUnits="userSpaceOnUse">
<stop stop-color="#42E8E0"/>
<stop offset="0.1022" stop-color="#3CCACE"/>
<stop offset="0.3445" stop-color="#2F87A5"/>
<stop offset="0.564" stop-color="#255385"/>
<stop offset="0.7534" stop-color="#1E2D6E"/>
<stop offset="0.905" stop-color="#1A1660"/>
<stop offset="1" stop-color="#180D5B"/>
</linearGradient>
<linearGradient id="paint17_linear" x1="186.528" y1="211.648" x2="338.032" y2="211.648" gradientUnits="userSpaceOnUse">
<stop stop-color="#42E8E0"/>
<stop offset="0.1022" stop-color="#3CCACE"/>
<stop offset="0.3445" stop-color="#2F87A5"/>
<stop offset="0.564" stop-color="#255385"/>
<stop offset="0.7534" stop-color="#1E2D6E"/>
<stop offset="0.905" stop-color="#1A1660"/>
<stop offset="1" stop-color="#180D5B"/>
</linearGradient>
<linearGradient id="paint18_linear" x1="295.769" y1="211.644" x2="371.521" y2="211.644" gradientUnits="userSpaceOnUse">
<stop stop-color="#2B237C"/>
<stop offset="1" stop-color="#180D5B"/>
</linearGradient>
<linearGradient id="paint19_linear" x1="220.016" y1="194.91" x2="371.531" y2="194.91" gradientUnits="userSpaceOnUse">
<stop stop-color="#42E8E0"/>
<stop offset="0.1022" stop-color="#3CCACE"/>
<stop offset="0.3445" stop-color="#2F87A5"/>
<stop offset="0.564" stop-color="#255385"/>
<stop offset="0.7534" stop-color="#1E2D6E"/>
<stop offset="0.905" stop-color="#1A1660"/>
<stop offset="1" stop-color="#180D5B"/>
</linearGradient>
<linearGradient id="paint20_linear" x1="220.017" y1="194.912" x2="297.346" y2="194.912" gradientUnits="userSpaceOnUse">
<stop stop-color="#42E8E0"/>
<stop offset="0.1022" stop-color="#3CCACE"/>
<stop offset="0.3445" stop-color="#2F87A5"/>
<stop offset="0.564" stop-color="#255385"/>
<stop offset="0.7534" stop-color="#1E2D6E"/>
<stop offset="0.905" stop-color="#1A1660"/>
<stop offset="1" stop-color="#180D5B"/>
</linearGradient>
<linearGradient id="paint21_linear" x1="240.624" y1="238.998" x2="367.442" y2="156.108" gradientUnits="userSpaceOnUse">
<stop stop-color="#42E8E0"/>
<stop offset="0.1022" stop-color="#3CCACE"/>
<stop offset="0.3445" stop-color="#2F87A5"/>
<stop offset="0.564" stop-color="#255385"/>
<stop offset="0.7534" stop-color="#1E2D6E"/>
<stop offset="0.905" stop-color="#1A1660"/>
<stop offset="1" stop-color="#180D5B"/>
</linearGradient>
<linearGradient id="paint22_linear" x1="185.993" y1="165.857" x2="337.497" y2="165.857" gradientUnits="userSpaceOnUse">
<stop stop-color="#42E8E0"/>
<stop offset="0.1022" stop-color="#3CCACE"/>
<stop offset="0.3445" stop-color="#2F87A5"/>
<stop offset="0.564" stop-color="#255385"/>
<stop offset="0.7534" stop-color="#1E2D6E"/>
<stop offset="0.905" stop-color="#1A1660"/>
<stop offset="1" stop-color="#180D5B"/>
</linearGradient>
<linearGradient id="paint23_linear" x1="295.234" y1="165.853" x2="370.986" y2="165.853" gradientUnits="userSpaceOnUse">
<stop stop-color="#2B237C"/>
<stop offset="1" stop-color="#180D5B"/>
</linearGradient>
<linearGradient id="paint24_linear" x1="219.483" y1="149.12" x2="370.997" y2="149.12" gradientUnits="userSpaceOnUse">
<stop stop-color="#42E8E0"/>
<stop offset="0.1022" stop-color="#3CCACE"/>
<stop offset="0.3445" stop-color="#2F87A5"/>
<stop offset="0.564" stop-color="#255385"/>
<stop offset="0.7534" stop-color="#1E2D6E"/>
<stop offset="0.905" stop-color="#1A1660"/>
<stop offset="1" stop-color="#180D5B"/>
</linearGradient>
<linearGradient id="paint25_linear" x1="219.483" y1="149.122" x2="296.813" y2="149.122" gradientUnits="userSpaceOnUse">
<stop stop-color="#42E8E0"/>
<stop offset="0.1022" stop-color="#3CCACE"/>
<stop offset="0.3445" stop-color="#2F87A5"/>
<stop offset="0.564" stop-color="#255385"/>
<stop offset="0.7534" stop-color="#1E2D6E"/>
<stop offset="0.905" stop-color="#1A1660"/>
<stop offset="1" stop-color="#180D5B"/>
</linearGradient>
<linearGradient id="paint26_linear" x1="240.09" y1="193.207" x2="366.907" y2="110.316" gradientUnits="userSpaceOnUse">
<stop stop-color="#42E8E0"/>
<stop offset="0.1022" stop-color="#3CCACE"/>
<stop offset="0.3445" stop-color="#2F87A5"/>
<stop offset="0.564" stop-color="#255385"/>
<stop offset="0.7534" stop-color="#1E2D6E"/>
<stop offset="0.905" stop-color="#1A1660"/>
<stop offset="1" stop-color="#180D5B"/>
</linearGradient>
<linearGradient id="paint27_linear" x1="185.993" y1="118.476" x2="337.497" y2="118.476" gradientUnits="userSpaceOnUse">
<stop stop-color="#42E8E0"/>
<stop offset="0.1022" stop-color="#3CCACE"/>
<stop offset="0.3445" stop-color="#2F87A5"/>
<stop offset="0.564" stop-color="#255385"/>
<stop offset="0.7534" stop-color="#1E2D6E"/>
<stop offset="0.905" stop-color="#1A1660"/>
<stop offset="1" stop-color="#180D5B"/>
</linearGradient>
<linearGradient id="paint28_linear" x1="295.234" y1="118.473" x2="370.986" y2="118.473" gradientUnits="userSpaceOnUse">
<stop stop-color="#2B237C"/>
<stop offset="1" stop-color="#180D5B"/>
</linearGradient>
<linearGradient id="paint29_linear" x1="219.483" y1="101.739" x2="370.997" y2="101.739" gradientUnits="userSpaceOnUse">
<stop stop-color="#42E8E0"/>
<stop offset="0.1022" stop-color="#3CCACE"/>
<stop offset="0.3445" stop-color="#2F87A5"/>
<stop offset="0.564" stop-color="#255385"/>
<stop offset="0.7534" stop-color="#1E2D6E"/>
<stop offset="0.905" stop-color="#1A1660"/>
<stop offset="1" stop-color="#180D5B"/>
</linearGradient>
<linearGradient id="paint30_linear" x1="219.483" y1="101.742" x2="296.813" y2="101.742" gradientUnits="userSpaceOnUse">
<stop stop-color="#42E8E0"/>
<stop offset="0.1022" stop-color="#3CCACE"/>
<stop offset="0.3445" stop-color="#2F87A5"/>
<stop offset="0.564" stop-color="#255385"/>
<stop offset="0.7534" stop-color="#1E2D6E"/>
<stop offset="0.905" stop-color="#1A1660"/>
<stop offset="1" stop-color="#180D5B"/>
</linearGradient>
<linearGradient id="paint31_linear" x1="240.09" y1="145.827" x2="366.907" y2="62.9362" gradientUnits="userSpaceOnUse">
<stop stop-color="#42E8E0"/>
<stop offset="0.1022" stop-color="#3CCACE"/>
<stop offset="0.3445" stop-color="#2F87A5"/>
<stop offset="0.564" stop-color="#255385"/>
<stop offset="0.7534" stop-color="#1E2D6E"/>
<stop offset="0.905" stop-color="#1A1660"/>
<stop offset="1" stop-color="#180D5B"/>
</linearGradient>
<linearGradient id="paint32_linear" x1="185.993" y1="71.0954" x2="337.497" y2="71.0954" gradientUnits="userSpaceOnUse">
<stop stop-color="#42E8E0"/>
<stop offset="0.1022" stop-color="#3CCACE"/>
<stop offset="0.3445" stop-color="#2F87A5"/>
<stop offset="0.564" stop-color="#255385"/>
<stop offset="0.7534" stop-color="#1E2D6E"/>
<stop offset="0.905" stop-color="#1A1660"/>
<stop offset="1" stop-color="#180D5B"/>
</linearGradient>
<linearGradient id="paint33_linear" x1="295.234" y1="71.0915" x2="370.986" y2="71.0915" gradientUnits="userSpaceOnUse">
<stop stop-color="#2B237C"/>
<stop offset="1" stop-color="#180D5B"/>
</linearGradient>
<linearGradient id="paint34_linear" x1="219.483" y1="54.3583" x2="370.997" y2="54.3583" gradientUnits="userSpaceOnUse">
<stop stop-color="#42E8E0"/>
<stop offset="0.1022" stop-color="#3CCACE"/>
<stop offset="0.3445" stop-color="#2F87A5"/>
<stop offset="0.564" stop-color="#255385"/>
<stop offset="0.7534" stop-color="#1E2D6E"/>
<stop offset="0.905" stop-color="#1A1660"/>
<stop offset="1" stop-color="#180D5B"/>
</linearGradient>
<linearGradient id="paint35_linear" x1="219.483" y1="54.3614" x2="296.813" y2="54.3614" gradientUnits="userSpaceOnUse">
<stop stop-color="#42E8E0"/>
<stop offset="0.1022" stop-color="#3CCACE"/>
<stop offset="0.3445" stop-color="#2F87A5"/>
<stop offset="0.564" stop-color="#255385"/>
<stop offset="0.7534" stop-color="#1E2D6E"/>
<stop offset="0.905" stop-color="#1A1660"/>
<stop offset="1" stop-color="#180D5B"/>
</linearGradient>
<linearGradient id="paint36_linear" x1="240.09" y1="98.4462" x2="366.907" y2="15.5553" gradientUnits="userSpaceOnUse">
<stop stop-color="#42E8E0"/>
<stop offset="0.1022" stop-color="#3CCACE"/>
<stop offset="0.3445" stop-color="#2F87A5"/>
<stop offset="0.564" stop-color="#255385"/>
<stop offset="0.7534" stop-color="#1E2D6E"/>
<stop offset="0.905" stop-color="#1A1660"/>
<stop offset="1" stop-color="#180D5B"/>
</linearGradient>
<radialGradient id="paint37_radial" cx="0" cy="0" r="1" gradientUnits="userSpaceOnUse" gradientTransform="translate(447.11 239.32) scale(6.09277)">
<stop stop-color="#42E8E0"/>
<stop offset="0.0225" stop-color="#3FD8D7"/>
<stop offset="0.0983" stop-color="#36A9BA"/>
<stop offset="0.1786" stop-color="#2E7FA0"/>
<stop offset="0.2622" stop-color="#275C8B"/>
<stop offset="0.35" stop-color="#223F79"/>
<stop offset="0.4433" stop-color="#1D296C"/>
<stop offset="0.5449" stop-color="#1A1962"/>
<stop offset="0.6608" stop-color="#19105D"/>
<stop offset="0.8226" stop-color="#180D5B"/>
</radialGradient>
<linearGradient id="paint38_linear" x1="358.071" y1="253.464" x2="509.575" y2="253.464" gradientUnits="userSpaceOnUse">
<stop stop-color="#42E8E0"/>
<stop offset="0.1022" stop-color="#3CCACE"/>
<stop offset="0.3445" stop-color="#2F87A5"/>
<stop offset="0.564" stop-color="#255385"/>
<stop offset="0.7534" stop-color="#1E2D6E"/>
<stop offset="0.905" stop-color="#1A1660"/>
<stop offset="1" stop-color="#180D5B"/>
</linearGradient>
<linearGradient id="paint39_linear" x1="467.312" y1="253.461" x2="543.064" y2="253.461" gradientUnits="userSpaceOnUse">
<stop stop-color="#2B237C"/>
<stop offset="1" stop-color="#180D5B"/>
</linearGradient>
<linearGradient id="paint40_linear" x1="391.56" y1="236.727" x2="543.075" y2="236.727" gradientUnits="userSpaceOnUse">
<stop stop-color="#42E8E0"/>
<stop offset="0.1022" stop-color="#3CCACE"/>
<stop offset="0.3445" stop-color="#2F87A5"/>
<stop offset="0.564" stop-color="#255385"/>
<stop offset="0.7534" stop-color="#1E2D6E"/>
<stop offset="0.905" stop-color="#1A1660"/>
<stop offset="1" stop-color="#180D5B"/>
</linearGradient>
<linearGradient id="paint41_linear" x1="391.56" y1="236.729" x2="468.889" y2="236.729" gradientUnits="userSpaceOnUse">
<stop stop-color="#42E8E0"/>
<stop offset="0.1022" stop-color="#3CCACE"/>
<stop offset="0.3445" stop-color="#2F87A5"/>
<stop offset="0.564" stop-color="#255385"/>
<stop offset="0.7534" stop-color="#1E2D6E"/>
<stop offset="0.905" stop-color="#1A1660"/>
<stop offset="1" stop-color="#180D5B"/>
</linearGradient>
<linearGradient id="paint42_linear" x1="412.167" y1="280.815" x2="538.984" y2="197.924" gradientUnits="userSpaceOnUse">
<stop stop-color="#42E8E0"/>
<stop offset="0.1022" stop-color="#3CCACE"/>
<stop offset="0.3445" stop-color="#2F87A5"/>
<stop offset="0.564" stop-color="#255385"/>
<stop offset="0.7534" stop-color="#1E2D6E"/>
<stop offset="0.905" stop-color="#1A1660"/>
<stop offset="1" stop-color="#180D5B"/>
</linearGradient>
<linearGradient id="paint43_linear" x1="358.071" y1="207.669" x2="509.574" y2="207.669" gradientUnits="userSpaceOnUse">
<stop stop-color="#42E8E0"/>
<stop offset="0.1022" stop-color="#3CCACE"/>
<stop offset="0.3445" stop-color="#2F87A5"/>
<stop offset="0.564" stop-color="#255385"/>
<stop offset="0.7534" stop-color="#1E2D6E"/>
<stop offset="0.905" stop-color="#1A1660"/>
<stop offset="1" stop-color="#180D5B"/>
</linearGradient>
<linearGradient id="paint44_linear" x1="467.312" y1="207.666" x2="543.064" y2="207.666" gradientUnits="userSpaceOnUse">
<stop stop-color="#2B237C"/>
<stop offset="1" stop-color="#180D5B"/>
</linearGradient>
<linearGradient id="paint45_linear" x1="391.56" y1="190.932" x2="543.074" y2="190.932" gradientUnits="userSpaceOnUse">
<stop stop-color="#42E8E0"/>
<stop offset="0.1022" stop-color="#3CCACE"/>
<stop offset="0.3445" stop-color="#2F87A5"/>
<stop offset="0.564" stop-color="#255385"/>
<stop offset="0.7534" stop-color="#1E2D6E"/>
<stop offset="0.905" stop-color="#1A1660"/>
<stop offset="1" stop-color="#180D5B"/>
</linearGradient>
<linearGradient id="paint46_linear" x1="391.56" y1="190.934" x2="468.89" y2="190.934" gradientUnits="userSpaceOnUse">
<stop stop-color="#42E8E0"/>
<stop offset="0.1022" stop-color="#3CCACE"/>
<stop offset="0.3445" stop-color="#2F87A5"/>
<stop offset="0.564" stop-color="#255385"/>
<stop offset="0.7534" stop-color="#1E2D6E"/>
<stop offset="0.905" stop-color="#1A1660"/>
<stop offset="1" stop-color="#180D5B"/>
</linearGradient>
<linearGradient id="paint47_linear" x1="412.167" y1="235.019" x2="538.984" y2="152.129" gradientUnits="userSpaceOnUse">
<stop stop-color="#42E8E0"/>
<stop offset="0.1022" stop-color="#3CCACE"/>
<stop offset="0.3445" stop-color="#2F87A5"/>
<stop offset="0.564" stop-color="#255385"/>
<stop offset="0.7534" stop-color="#1E2D6E"/>
<stop offset="0.905" stop-color="#1A1660"/>
<stop offset="1" stop-color="#180D5B"/>
</linearGradient>
<linearGradient id="paint48_linear" x1="358.993" y1="161.095" x2="510.497" y2="161.095" gradientUnits="userSpaceOnUse">
<stop stop-color="#42E8E0"/>
<stop offset="0.1022" stop-color="#3CCACE"/>
<stop offset="0.3445" stop-color="#2F87A5"/>
<stop offset="0.564" stop-color="#255385"/>
<stop offset="0.7534" stop-color="#1E2D6E"/>
<stop offset="0.905" stop-color="#1A1660"/>
<stop offset="1" stop-color="#180D5B"/>
</linearGradient>
<linearGradient id="paint49_linear" x1="468.234" y1="161.091" x2="543.986" y2="161.091" gradientUnits="userSpaceOnUse">
<stop stop-color="#2B237C"/>
<stop offset="1" stop-color="#180D5B"/>
</linearGradient>
<linearGradient id="paint50_linear" x1="392.483" y1="144.358" x2="543.997" y2="144.358" gradientUnits="userSpaceOnUse">
<stop stop-color="#42E8E0"/>
<stop offset="0.1022" stop-color="#3CCACE"/>
<stop offset="0.3445" stop-color="#2F87A5"/>
<stop offset="0.564" stop-color="#255385"/>
<stop offset="0.7534" stop-color="#1E2D6E"/>
<stop offset="0.905" stop-color="#1A1660"/>
<stop offset="1" stop-color="#180D5B"/>
</linearGradient>
<linearGradient id="paint51_linear" x1="392.483" y1="144.361" x2="469.813" y2="144.361" gradientUnits="userSpaceOnUse">
<stop stop-color="#42E8E0"/>
<stop offset="0.1022" stop-color="#3CCACE"/>
<stop offset="0.3445" stop-color="#2F87A5"/>
<stop offset="0.564" stop-color="#255385"/>
<stop offset="0.7534" stop-color="#1E2D6E"/>
<stop offset="0.905" stop-color="#1A1660"/>
<stop offset="1" stop-color="#180D5B"/>
</linearGradient>
<linearGradient id="paint52_linear" x1="413.09" y1="188.446" x2="539.907" y2="105.555" gradientUnits="userSpaceOnUse">
<stop stop-color="#42E8E0"/>
<stop offset="0.1022" stop-color="#3CCACE"/>
<stop offset="0.3445" stop-color="#2F87A5"/>
<stop offset="0.564" stop-color="#255385"/>
<stop offset="0.7534" stop-color="#1E2D6E"/>
<stop offset="0.905" stop-color="#1A1660"/>
<stop offset="1" stop-color="#180D5B"/>
</linearGradient>
</defs>
</svg>
