<svg width="129" height="129" viewBox="0 0 129 129" fill="none" xmlns="http://www.w3.org/2000/svg">
<g clip-path="url(#clip0)">
<path d="M58.0459 57.8094C58.0459 67.8649 49.8945 76.0163 39.839 76.0163C29.7835 76.0163 21.6321 67.8649 21.6321 57.8094C21.6321 47.7539 29.7835 39.6025 39.839 39.6025C49.8945 39.6025 58.0459 47.7539 58.0459 57.8094Z" fill="#63B3ED"/>
<path d="M54.7356 57.8096C54.7356 66.037 48.0664 72.7062 39.8391 72.7062C31.6117 72.7062 24.9425 66.037 24.9425 57.8096C24.9425 49.5823 31.6117 42.9131 39.8391 42.9131C48.0664 42.9131 54.7356 49.5823 54.7356 57.8096Z" fill="#F3F3FB"/>
<path d="M112.667 34.6371C112.667 44.6926 104.515 52.844 94.4597 52.844C84.4042 52.844 76.2528 44.6926 76.2528 34.6371C76.2528 24.5816 84.4042 16.4302 94.4597 16.4302C104.515 16.4302 112.667 24.5816 112.667 34.6371Z" fill="#4299E1"/>
<path d="M109.356 34.6373C109.356 42.8646 102.687 49.5338 94.4598 49.5338C86.2324 49.5338 79.5632 42.8646 79.5632 34.6373C79.5632 26.4099 86.2324 19.7407 94.4598 19.7407C102.687 19.7407 109.356 26.4099 109.356 34.6373Z" fill="#F3F3FB"/>
<path d="M91.1494 94.2235C91.1494 104.279 82.998 112.43 72.9425 112.43C62.887 112.43 54.7356 104.279 54.7356 94.2235C54.7356 84.168 62.887 76.0166 72.9425 76.0166C82.998 76.0166 91.1494 84.168 91.1494 94.2235Z" fill="#4299E1"/>
<path d="M87.839 94.2232C87.839 102.451 81.1698 109.12 72.9425 109.12C64.7151 109.12 58.0459 102.451 58.0459 94.2232C58.0459 85.9958 64.7151 79.3267 72.9425 79.3267C81.1698 79.3267 87.839 85.9958 87.839 94.2232Z" fill="#F3F3FB"/>
<path d="M106.046 79.3268C103.729 79.3268 101.676 78.1347 100.501 76.3147C99.8229 75.2713 99.4253 74.0299 99.4253 72.7061C99.4253 69.0483 102.388 66.0854 106.046 66.0854C109.704 66.0854 112.667 69.0483 112.667 72.7061C112.667 76.364 109.704 79.3268 106.046 79.3268Z" fill="#48BB78"/>
<path d="M106.013 48.7221C102.868 51.2882 98.8457 52.8439 94.4597 52.8439C92.2751 52.8439 90.1892 52.4633 88.269 51.7682V51.7512C86.2994 51.0562 84.4955 50.0136 82.9066 48.7221C83.3204 43.6249 87.607 39.6025 92.8045 39.6025H96.1149C101.312 39.6025 105.599 43.6249 106.013 48.7221Z" fill="#EE964B"/>
<path d="M101.08 32.982C101.08 36.6383 98.1159 39.6027 94.4597 39.6027C90.8034 39.6027 87.839 36.6383 87.839 32.982C87.839 29.3258 90.8034 26.3613 94.4597 26.3613C98.1159 26.3613 101.08 29.3258 101.08 32.982Z" fill="#EE964B"/>
<path d="M72.9425 112.43C68.5395 112.43 64.501 110.875 61.3563 108.276C61.7863 103.194 66.0737 99.189 71.2542 99.189H74.5646C79.762 99.189 84.0487 103.211 84.4625 108.309L84.4794 108.326C81.334 110.891 77.3286 112.43 72.9425 112.43Z" fill="#FFCA55"/>
<path d="M79.5301 92.568C79.5301 96.2242 76.5656 99.1886 72.9094 99.1886C69.2531 99.1886 66.2887 96.2242 66.2887 92.568C66.2887 88.9117 69.2531 85.9473 72.9094 85.9473C76.5656 85.9473 79.5301 88.9117 79.5301 92.568Z" fill="#FFCA55"/>
<path d="M63.0114 16.4302C66.6693 16.4302 69.6321 19.393 69.6321 23.0509C69.6321 23.8623 69.4834 24.6236 69.2183 25.3348C68.2913 27.8677 65.8587 29.6716 63.0114 29.6716C59.3536 29.6716 56.3907 26.7087 56.3907 23.0509C56.3907 19.393 59.3536 16.4302 63.0114 16.4302Z" fill="#48BB78"/>
<path d="M39.839 76.0163C36.6281 76.0163 33.616 75.1887 31.0007 73.7323C30.0236 73.2022 29.1135 72.5734 28.2528 71.8622C28.6828 66.7803 32.9702 62.7749 38.1507 62.7749H41.4611C46.6585 62.7749 50.9452 66.7973 51.3589 71.8945L51.3759 71.9115C48.2304 74.4767 44.2251 76.0163 39.839 76.0163Z" fill="#5DBCD9"/>
<path d="M46.4266 56.1544C46.4266 59.8106 43.4621 62.7751 39.8059 62.7751C36.1496 62.7751 33.1852 59.8106 33.1852 56.1544C33.1852 52.4981 36.1496 49.5337 39.8059 49.5337C43.4621 49.5337 46.4266 52.4981 46.4266 56.1544Z" fill="#5DBCD9"/>
<path d="M38.1839 109.12C34.5261 109.12 31.5632 106.157 31.5632 102.499C31.5632 98.8412 34.5261 95.8784 38.1839 95.8784C41.3124 95.8784 43.9277 98.0468 44.6228 100.96C44.7383 101.457 44.8046 101.97 44.8046 102.499C44.8046 106.157 41.8418 109.12 38.1839 109.12Z" fill="#48BB78"/>
<path d="M23.2873 80.9819C24.4463 80.9819 25.5551 81.2802 26.4983 81.8257C28.5341 82.9515 29.908 85.1199 29.908 87.6026C29.908 91.2605 26.9452 94.2233 23.2873 94.2233C19.6294 94.2233 16.6666 91.2605 16.6666 87.6026C16.6666 83.9448 19.6294 80.9819 23.2873 80.9819Z" fill="#48BB78"/>
<path d="M23.2873 16.4302C26.9452 16.4302 29.908 19.393 29.908 23.0509C29.908 25.6823 28.3684 27.9671 26.1346 29.0096C25.2738 29.4396 24.2967 29.6716 23.2873 29.6716C19.6294 29.6716 16.6666 26.7087 16.6666 23.0509C16.6666 19.393 19.6294 16.4302 23.2873 16.4302Z" fill="#48BB78"/>
<path d="M24.6402 29.7203L27.6297 28.2979L33.5052 40.6454L30.5157 42.0678L24.6402 29.7203Z" fill="#CBD5E0"/>
<path d="M25.0491 81.0198L29.5516 72.9282L32.4441 74.5373L27.9416 82.6297L25.0491 81.0198Z" fill="#CBD5E0"/>
<path d="M68.647 26.8883L69.7938 23.7808L77.9533 26.7937L76.8065 29.9012L68.647 26.8883Z" fill="#CBD5E0"/>
<path d="M77.5814 76.5328L86.7083 51.2041L89.8215 52.3251L80.6946 77.6545L77.5814 76.5328Z" fill="#CBD5E0"/>
<path d="M87.2959 82.9209L99.5974 74.9312L101.401 77.7089L89.1006 85.6987L87.2959 82.9209Z" fill="#CBD5E0"/>
<path d="M50.8604 72.3984L53.3108 70.1719L61.9172 79.6414L59.4676 81.868L50.8604 72.3984Z" fill="#CBD5E0"/>
<path d="M44.2363 99.3482L54.8454 96.8291L55.6092 100.048L45.0009 102.567L44.2363 99.3482Z" fill="#CBD5E0"/>
<path d="M55.96 49.1668L77.0505 40.2314L78.342 43.2799L57.2514 52.2145L55.96 49.1668Z" fill="#CBD5E0"/>
</g>
<defs>
<clipPath id="clip0">
<rect width="96" height="96" fill="white" transform="translate(16.6666 16.4302)"/>
</clipPath>
</defs>
</svg>
