<svg width="256" height="224" viewBox="0 0 256 224" fill="none" xmlns="http://www.w3.org/2000/svg">
<g clip-path="url(#clip0)">
<path d="M87 106H168L218 224H37L87 106Z" fill="url(#paint0_linear)"/>
<path d="M128 116.416C151.439 116.416 170.44 108.955 170.44 99.7518C170.44 90.5486 151.439 83.0879 128 83.0879C104.561 83.0879 85.5601 90.5486 85.5601 99.7518C85.5601 108.955 104.561 116.416 128 116.416Z" fill="#FFAA00"/>
<path d="M128.003 83.0762C151.448 83.0762 170.439 90.5283 170.439 99.7324C170.439 108.937 151.447 116.396 128.003 116.396" fill="#FF7F00"/>
<path d="M256 71.7803C256 89.5441 198.688 103.952 128 103.952C57.3082 103.952 0 89.5441 0 71.7803C0 54.0165 57.3082 31.3965 128 31.3965C198.688 31.4005 256 54.0165 256 71.7803Z" fill="#09B2A5"/>
<path d="M256 71.7798C256 89.5436 198.688 103.952 128 103.952C57.3082 103.952 0 89.5436 0 71.7798C0 54.016 57.3082 35.9277 128 35.9277C198.688 35.9277 256 54.016 256 71.7798Z" fill="#089992"/>
<path d="M256 71.7801C256 89.5439 198.688 103.952 128 103.952C57.3082 103.952 0 89.5439 0 71.7801C0 54.0163 57.3082 71.092 128 71.092C198.688 71.092 256 54.0163 256 71.7801Z" fill="#048389"/>
<path d="M180.004 40.9762C176.728 19.8964 154.724 3.58447 128 3.58447C101.288 3.58447 79.2798 19.8964 76.0039 40.9762H180.004Z" fill="#A0EAEA"/>
<path d="M76.0039 40.9762H180.004C176.728 19.8964 154.724 3.58447 128 3.58447" fill="#79CCC8"/>
<path d="M154.528 40.9763V36.5325C154.528 31.9926 150.852 28.3125 146.312 28.3125H109.696C105.156 28.3125 101.476 31.9926 101.476 36.5325V40.9763H154.528Z" fill="#66BCB5"/>
<path d="M180.004 40.9762C176.728 19.8964 154.724 3.58447 128 3.58447Z" fill="#66BCB5"/>
<path d="M186.332 41.6396C186.332 42.1317 185.928 42.5394 185.433 42.5394H71.7242C71.2205 42.5394 70.8203 42.1317 70.8203 41.6396C70.8203 41.1475 71.2205 40.7397 71.7242 40.7397H185.436C185.928 40.7438 186.332 41.148 186.332 41.6396Z" fill="#09B2A5"/>
<path d="M39.4606 51.8439C40.2005 53.2719 38.8888 55.4159 38.3327 55.712C37.7645 55.9999 35.2645 55.8359 34.5247 54.4079L21.9406 26.6199C21.2047 25.2 21.0605 23.8 21.6288 23.5121C22.1929 23.2241 23.2527 24.1362 23.9886 25.5601L39.4606 51.8439Z" fill="#048389"/>
<path d="M21.9362 26.616C21.2003 25.1961 21.0561 23.7961 21.6244 23.5081C22.1885 23.2202 23.2483 24.1322 23.9842 25.5562L39.4603 51.8436C40.2001 53.2716 38.8885 55.4155 38.3324 55.7116" fill="#089992"/>
<path d="M33.4358 73.5997L17.624 70.7559L35.4157 52.9678L38.2559 55.8115L33.4358 73.5997Z" fill="#048389"/>
<path d="M21.624 27.7959C24.0783 27.7959 26.0679 25.8064 26.0679 23.3521C26.0679 20.8978 24.0783 18.9082 21.624 18.9082C19.1698 18.9082 17.1802 20.8978 17.1802 23.3521C17.1802 25.8064 19.1698 27.7959 21.624 27.7959Z" fill="#FF7F00"/>
<path d="M18.4766 20.2039C20.2163 18.4601 23.0327 18.4677 24.7724 20.2039C26.5046 21.9402 26.5163 24.76 24.7724 26.4998" fill="#FFAA00"/>
<path d="M216.54 51.8439C215.804 53.2719 217.112 55.4159 217.672 55.712C218.24 55.9999 220.736 55.8359 221.476 54.4079L234.06 26.6199C234.8 25.2 234.944 23.8 234.372 23.5121C233.808 23.2241 232.756 24.1362 232.02 25.5601L216.54 51.8439Z" fill="#048389"/>
<path d="M234.064 26.616C234.804 25.1961 234.948 23.7961 234.376 23.5081C233.812 23.2202 232.76 24.1322 232.024 25.5562L216.54 51.8436C215.804 53.2716 217.112 55.4155 217.672 55.7116" fill="#089992"/>
<path d="M222.568 73.5997L238.38 70.7559L220.584 52.9678L217.744 55.8115L222.568 73.5997Z" fill="#048389"/>
<path d="M234.36 27.7997C236.817 27.7997 238.808 25.8083 238.808 23.3517C238.808 20.8952 236.817 18.9038 234.36 18.9038C231.904 18.9038 229.912 20.8952 229.912 23.3517C229.912 25.8083 231.904 27.7997 234.36 27.7997Z" fill="#FF7F00"/>
<path d="M237.528 20.2039C235.788 18.4601 232.971 18.4677 231.232 20.2039C229.5 21.9402 229.492 24.76 231.232 26.4998" fill="#FFAA00"/>
<path d="M23.868 67.6719C23.868 70.1317 24.188 74.436 21.724 74.436C19.2718 74.436 14.9722 70.1317 14.9722 67.6719C14.9722 65.2197 16.9643 63.228 19.416 63.228C21.8759 63.228 23.868 65.2202 23.868 67.6719Z" fill="#04727A"/>
<path d="M19.4167 72.1195C21.8732 72.1195 23.8646 70.1281 23.8646 67.6716C23.8646 65.215 21.8732 63.2236 19.4167 63.2236C16.9602 63.2236 14.9688 65.215 14.9688 67.6716C14.9688 70.1281 16.9602 72.1195 19.4167 72.1195Z" fill="#BFD7E2"/>
<path d="M16.2676 64.5317C18.0155 62.7797 20.8196 62.7878 22.5634 64.5235C24.2996 66.2674 24.3073 69.0796 22.5634 70.8194" fill="#AAC7D1"/>
<path d="M47.996 67.6719C47.996 70.1317 48.3159 74.436 45.852 74.436C43.3997 74.436 39.1001 70.1317 39.1001 67.6719C39.1001 65.2197 41.0882 63.228 43.544 63.228C46.0038 63.228 47.996 65.2202 47.996 67.6719Z" fill="#04727A"/>
<path d="M43.548 72.1195C46.0046 72.1195 47.996 70.1281 47.996 67.6716C47.996 65.215 46.0046 63.2236 43.548 63.2236C41.0915 63.2236 39.1001 65.215 39.1001 67.6716C39.1001 70.1281 41.0915 72.1195 43.548 72.1195Z" fill="#BFD7E2"/>
<path d="M40.4004 64.5317C42.1442 62.7797 44.9565 62.7878 46.6963 64.5235C48.4243 66.2674 48.4401 69.0796 46.6963 70.8194" fill="#AAC7D1"/>
<path d="M72.1203 67.6719C72.1203 70.1317 72.4443 74.436 69.9804 74.436C67.5282 74.436 63.2285 70.1317 63.2285 67.6719C63.2285 65.2197 65.2125 63.228 67.6724 63.228C70.1322 63.228 72.1203 65.2202 72.1203 67.6719Z" fill="#04727A"/>
<path d="M67.672 72.1195C70.1286 72.1195 72.12 70.1281 72.12 67.6716C72.12 65.215 70.1286 63.2236 67.672 63.2236C65.2155 63.2236 63.2241 65.215 63.2241 67.6716C63.2241 70.1281 65.2155 72.1195 67.672 72.1195Z" fill="#BFD7E2"/>
<path d="M64.5278 64.5317C66.2676 62.7797 69.0839 62.7878 70.8196 64.5235C72.5559 66.2674 72.5635 69.0796 70.8196 70.8194" fill="#AAC7D1"/>
<path d="M96.2484 67.6719C96.2484 70.1317 96.5683 74.436 94.1085 74.436C91.6562 74.436 87.3525 70.1317 87.3525 67.6719C87.3525 65.2197 89.3447 63.228 91.8005 63.228C94.2603 63.228 96.2484 65.2202 96.2484 67.6719Z" fill="#04727A"/>
<path d="M91.8 72.1195C94.2565 72.1195 96.2479 70.1281 96.2479 67.6716C96.2479 65.215 94.2565 63.2236 91.8 63.2236C89.3435 63.2236 87.3521 65.215 87.3521 67.6716C87.3521 70.1281 89.3435 72.1195 91.8 72.1195Z" fill="#BFD7E2"/>
<path d="M88.6558 64.5317C90.3955 62.7797 93.2119 62.7878 94.9516 64.5235C96.6878 66.2674 96.6878 69.0796 94.9516 70.8194" fill="#AAC7D1"/>
<path d="M120.38 67.6719C120.38 70.1317 120.7 74.436 118.24 74.436C115.788 74.436 111.488 70.1317 111.488 67.6719C111.488 65.2197 113.476 63.228 115.932 63.228C118.392 63.228 120.38 65.2202 120.38 67.6719Z" fill="#04727A"/>
<path d="M115.932 72.1195C118.389 72.1195 120.38 70.1281 120.38 67.6716C120.38 65.215 118.389 63.2236 115.932 63.2236C113.476 63.2236 111.484 65.215 111.484 67.6716C111.484 70.1281 113.476 72.1195 115.932 72.1195Z" fill="#BFD7E2"/>
<path d="M112.784 64.5317C114.524 62.7797 117.34 62.7878 119.08 64.5235C120.812 66.2674 120.82 69.0796 119.08 70.8194" fill="#AAC7D1"/>
<path d="M144.508 67.6719C144.508 70.1317 144.828 74.436 142.369 74.436C139.913 74.436 135.617 70.1317 135.617 67.6719C135.617 65.2197 137.605 63.228 140.056 63.228C142.52 63.228 144.508 65.2202 144.508 67.6719Z" fill="#04727A"/>
<path d="M140.06 72.1195C142.516 72.1195 144.508 70.1281 144.508 67.6716C144.508 65.215 142.516 63.2236 140.06 63.2236C137.603 63.2236 135.612 65.215 135.612 67.6716C135.612 70.1281 137.603 72.1195 140.06 72.1195Z" fill="#BFD7E2"/>
<path d="M136.912 64.5317C138.655 62.7797 141.472 62.7878 143.207 64.5235C144.944 66.2674 144.947 69.0796 143.207 70.8194" fill="#AAC7D1"/>
<path d="M168.636 67.6719C168.636 70.1317 168.951 74.436 166.492 74.436C164.039 74.436 159.74 70.1317 159.74 67.6719C159.74 65.2197 161.728 63.228 164.184 63.228C166.648 63.228 168.636 65.2202 168.636 67.6719Z" fill="#04727A"/>
<path d="M164.188 72.1195C166.644 72.1195 168.636 70.1281 168.636 67.6716C168.636 65.215 166.644 63.2236 164.188 63.2236C161.731 63.2236 159.74 65.215 159.74 67.6716C159.74 70.1281 161.731 72.1195 164.188 72.1195Z" fill="#BFD7E2"/>
<path d="M161.04 64.5317C162.784 62.7797 165.6 62.7878 167.336 64.5235C169.072 66.2674 169.08 69.0796 167.336 70.8194" fill="#AAC7D1"/>
<path d="M192.764 67.6719C192.764 70.1317 193.084 74.436 190.624 74.436C188.169 74.436 183.873 70.1317 183.873 67.6719C183.873 65.2197 185.861 63.228 188.312 63.228C190.776 63.228 192.764 65.2202 192.764 67.6719Z" fill="#04727A"/>
<path d="M188.32 72.1195C190.777 72.1195 192.768 70.1281 192.768 67.6716C192.768 65.215 190.777 63.2236 188.32 63.2236C185.864 63.2236 183.873 65.215 183.873 67.6716C183.873 70.1281 185.864 72.1195 188.32 72.1195Z" fill="#BFD7E2"/>
<path d="M185.168 64.5317C186.912 62.7797 189.729 62.7878 191.464 64.5235C193.201 66.2674 193.208 69.0796 191.464 70.8194" fill="#AAC7D1"/>
<path d="M216.892 67.6719C216.892 70.1317 217.212 74.436 214.752 74.436C212.3 74.436 208 70.1317 208 67.6719C208 65.2197 209.992 63.228 212.444 63.228C214.908 63.228 216.892 65.2202 216.892 67.6719Z" fill="#04727A"/>
<path d="M212.444 72.1195C214.901 72.1195 216.892 70.1281 216.892 67.6716C216.892 65.215 214.901 63.2236 212.444 63.2236C209.988 63.2236 207.996 65.215 207.996 67.6716C207.996 70.1281 209.988 72.1195 212.444 72.1195Z" fill="#BFD7E2"/>
<path d="M209.296 64.5317C211.04 62.7797 213.852 62.7878 215.592 64.5235C217.328 66.2674 217.336 69.0796 215.592 70.8194" fill="#AAC7D1"/>
<path d="M241.024 67.6719C241.024 70.1317 241.344 74.436 238.876 74.436C236.424 74.436 232.124 70.1317 232.124 67.6719C232.124 65.2197 234.116 63.228 236.568 63.228C239.032 63.228 241.024 65.2202 241.024 67.6719Z" fill="#04727A"/>
<path d="M236.56 72.1195C239.016 72.1195 241.008 70.1281 241.008 67.6716C241.008 65.215 239.016 63.2236 236.56 63.2236C234.103 63.2236 232.112 65.215 232.112 67.6716C232.112 70.1281 234.103 72.1195 236.56 72.1195Z" fill="#BFD7E2"/>
<path d="M233.42 64.5317C235.168 62.7797 237.98 62.7878 239.72 64.5235C241.452 66.2674 241.464 69.0796 239.72 70.8194" fill="#AAC7D1"/>
<path d="M137.884 47.8684C137.884 48.2203 137.596 48.5082 137.244 48.5082H118.76C118.408 48.5082 118.12 48.2203 118.12 47.8684C118.12 47.5083 118.408 47.2285 118.76 47.2285H137.244C137.592 47.2285 137.884 47.5083 137.884 47.8684Z" fill="#048389"/>
<path d="M137.884 52.4846C137.884 52.8446 137.596 53.1244 137.244 53.1244H118.76C118.408 53.1244 118.12 52.8446 118.12 52.4846C118.12 52.1327 118.408 51.8447 118.76 51.8447H137.244C137.592 51.8442 137.884 52.1327 137.884 52.4846Z" fill="#048389"/>
<path d="M137.884 57.1084C137.884 57.4603 137.596 57.7483 137.244 57.7483H118.76C118.408 57.7483 118.12 57.4603 118.12 57.1084C118.12 56.7484 118.408 56.4604 118.76 56.4604H137.244C137.592 56.4599 137.884 56.7484 137.884 57.1084Z" fill="#048389"/>
</g>
<defs>
<linearGradient id="paint0_linear" x1="128" y1="138.418" x2="128" y2="224" gradientUnits="userSpaceOnUse">
<stop stop-color="#FEDB41"/>
<stop offset="1" stop-color="#FEDB41" stop-opacity="0"/>
</linearGradient>
<clipPath id="clip0">
<rect width="256" height="224" fill="white"/>
</clipPath>
</defs>
</svg>
