<svg width="131" height="40" viewBox="0 0 131 40" fill="none" xmlns="http://www.w3.org/2000/svg">
<mask id="mask0" mask-type="alpha" maskUnits="userSpaceOnUse" x="0" y="0" width="41" height="40">
<path fill-rule="evenodd" clip-rule="evenodd" d="M0.5 0H40.5V40H0.5V0Z" fill="white"/>
</mask>
<g mask="url(#mask0)">
<path fill-rule="evenodd" clip-rule="evenodd" d="M20.5 40.0001C9.5 40.0001 0.5 31.0001 0.5 19.9001C0.6 8.90009 9.5 -0.0999071 20.6 9.29355e-05C31.6 0.100093 40.5 9.00009 40.5 20.2001C40.4 31.1001 31.5 40.0001 20.5 40.0001Z" fill="#0090FF"/>
<path fill-rule="evenodd" clip-rule="evenodd" d="M22.4 17.6001L21.8 20.8001L27.5 21.6001L27.1 23.1001L21.5 22.3001C21.1 23.6001 20.9 25.0001 20.4 26.2001C19.9 27.6001 19.4 29.0001 18.8 30.3001C18 32.0001 16.6 33.2001 14.7 33.5001C13.6 33.7001 12.4 33.6001 11.5 32.9001C11.2 32.7001 10.9 32.3001 10.9 32.0001C10.9 31.6001 11.1 31.1001 11.4 30.9001C11.6 30.8001 12.1 30.9001 12.4 31.0001C12.7 31.3001 13 31.7001 13.2 32.1001C13.8 32.9001 14.6 33.0001 15.4 32.4001C16.3 31.6001 16.8 30.5001 17.1 29.4001C17.7 27.0001 18.3 24.7001 18.8 22.3001V21.9001L13.5 21.1001L13.7 19.6001L19.2 20.4001L19.9 17.3001L14.2 16.4001L14.4 14.8001L20.3 15.6001C20.5 15.0001 20.6 14.5001 20.8 14.0001C21.3 12.2001 21.8 10.4001 23 8.80008C24.2 7.20008 25.6 6.20008 27.7 6.30008C28.6 6.30008 29.5 6.60008 30.1 7.30008C30.2 7.40008 30.4 7.60008 30.4 7.80008C30.4 8.20008 30.4 8.70008 30.1 9.00008C29.7 9.30008 29.2 9.20008 28.8 8.80008C28.5 8.50008 28.3 8.20008 28 7.90008C27.4 7.10008 26.5 7.00008 25.8 7.70008C25.3 8.20008 24.8 8.90008 24.5 9.60008C23.8 11.7001 23.3 13.9001 22.6 16.1001L28.1 16.9001L27.7 18.4001L22.4 17.6001Z" fill="white"/>
</g>
<path d="M58.098 27H60.2926V20.6577H66.4716V18.7756H60.2926V14.3438H67.1179V12.4545H58.098V27ZM69.6463 27H71.7699V16.0909H69.6463V27ZM70.7188 14.4077C71.4503 14.4077 72.0611 13.8395 72.0611 13.1435C72.0611 12.4474 71.4503 11.8722 70.7188 11.8722C69.9801 11.8722 69.3764 12.4474 69.3764 13.1435C69.3764 13.8395 69.9801 14.4077 70.7188 14.4077ZM76.7504 12.4545H74.6268V27H76.7504V12.4545ZM84.3089 27.2202C86.6882 27.2202 88.3714 26.0483 88.8544 24.2727L86.8445 23.9105C86.4609 24.9403 85.5376 25.4659 84.3303 25.4659C82.5121 25.4659 81.2905 24.2869 81.2337 22.1847H88.9893V21.4318C88.9893 17.4901 86.6314 15.9489 84.1598 15.9489C81.12 15.9489 79.1172 18.2642 79.1172 21.6165C79.1172 25.0043 81.0916 27.2202 84.3089 27.2202ZM81.2408 20.5938C81.326 19.0455 82.4482 17.7031 84.174 17.7031C85.8217 17.7031 86.9013 18.9247 86.9084 20.5938H81.2408ZM95.9407 27.2202C98.5188 27.2202 100.188 25.6719 100.422 23.5483H98.3555C98.0856 24.7273 97.1694 25.4233 95.9549 25.4233C94.158 25.4233 93.0004 23.9247 93.0004 21.5455C93.0004 19.2088 94.1793 17.7386 95.9549 17.7386C97.3043 17.7386 98.1282 18.5909 98.3555 19.6136H100.422C100.195 17.4119 98.3981 15.9489 95.9194 15.9489C92.8441 15.9489 90.8555 18.2642 90.8555 21.5952C90.8555 24.8835 92.7731 27.2202 95.9407 27.2202ZM107.288 27.2202C110.364 27.2202 112.374 24.9688 112.374 21.5952C112.374 18.2003 110.364 15.9489 107.288 15.9489C104.213 15.9489 102.203 18.2003 102.203 21.5952C102.203 24.9688 104.213 27.2202 107.288 27.2202ZM107.295 25.4375C105.286 25.4375 104.348 23.6832 104.348 21.5881C104.348 19.5 105.286 17.7244 107.295 17.7244C109.291 17.7244 110.229 19.5 110.229 21.5881C110.229 23.6832 109.291 25.4375 107.295 25.4375ZM114.744 27H116.868V16.0909H114.744V27ZM115.816 14.4077C116.548 14.4077 117.159 13.8395 117.159 13.1435C117.159 12.4474 116.548 11.8722 115.816 11.8722C115.078 11.8722 114.474 12.4474 114.474 13.1435C114.474 13.8395 115.078 14.4077 115.816 14.4077ZM121.848 20.5227C121.848 18.7827 122.913 17.7884 124.391 17.7884C125.832 17.7884 126.706 18.733 126.706 20.3168V27H128.83V20.0611C128.83 17.3622 127.345 15.9489 125.115 15.9489C123.474 15.9489 122.402 16.7088 121.898 17.8665H121.763V16.0909H119.724V27H121.848V20.5227Z" fill="#4A5568"/>
</svg>
