<svg width="298" height="70" viewBox="0 0 298 70" fill="none" xmlns="http://www.w3.org/2000/svg">
<path fill-rule="evenodd" clip-rule="evenodd" d="M30.3629 0C32.707 0 34.6073 1.90029 34.6073 4.24442C34.6073 6.15069 33.3506 7.76345 31.6205 8.29943V17.5279L44.5897 25.0157C47.2918 23.4596 50.0714 21.8598 52.6591 20.3724C52.248 18.6005 53.0159 16.6952 54.6729 15.7385C56.703 14.5665 59.2989 15.262 60.4709 17.2921C61.643 19.3222 60.9474 21.918 58.9174 23.0901C57.2726 24.0396 55.2566 23.7634 53.9272 22.5447C51.315 24.0461 48.5064 25.6625 45.7789 27.2333V42.1647L53.7398 46.8065C55.0613 45.4344 57.1934 45.0829 58.9174 46.0782C60.9475 47.2503 61.643 49.8461 60.471 51.8762C59.2989 53.9063 56.703 54.6018 54.673 53.4298C53.0972 52.52 52.3255 50.7525 52.6071 49.0576L44.4761 44.3166C44.4481 44.3003 44.4211 44.2831 44.3949 44.2651L31.4955 51.7125V60.8323C33.2898 61.3279 34.6073 62.972 34.6073 64.9239C34.6073 67.268 32.707 69.1683 30.3629 69.1683C28.0187 69.1683 26.1185 67.268 26.1185 64.9239C26.1185 63.0638 27.315 61.4832 28.9803 60.9097V51.531L16.3954 44.2651C16.366 44.2853 16.3355 44.3045 16.304 44.3225L8.39057 48.8375C8.78022 50.5976 8.01142 52.4806 6.36734 53.4298C4.33726 54.6019 1.74142 53.9063 0.569353 51.8762C-0.602711 49.8462 0.0928439 47.2503 2.12292 46.0783C3.7806 45.1212 5.81553 45.4094 7.14446 46.6527L15.0113 42.1642V27.4227L6.88289 22.741C5.55848 23.7905 3.67531 23.9863 2.12296 23.0901C0.0928832 21.918 -0.602672 19.3221 0.569392 17.2921C1.74146 15.262 4.3373 14.5664 6.36738 15.7385C8.11361 16.7467 8.87242 18.8084 8.30449 20.6572L16.0364 25.1105L29.1053 17.5652V8.29944C27.3752 7.76347 26.1185 6.1507 26.1185 4.24442C26.1185 1.90029 28.0187 0 30.3629 0ZM18.5546 26.5609L30.3951 19.7248L42.0716 26.4662C40.8678 27.1597 39.6982 27.8338 38.5886 28.4734C36.023 29.9523 33.7782 31.2469 32.1748 32.1719C31.3731 32.6344 30.7317 33.0044 30.2908 33.2589L30.2373 33.2897L18.5546 26.5609ZM43.2637 42.0138L31.4955 48.8082V35.4676L31.5479 35.4374C31.9887 35.183 32.63 34.813 33.4316 34.3506C35.0348 33.4257 37.2793 32.1312 39.8446 30.6525C40.9346 30.0242 42.0825 29.3627 43.2637 28.6822V42.0138ZM28.9803 48.6267V35.4683L17.5265 28.8714V42.0138L28.9803 48.6267Z" fill="#3182CE"/>
<path d="M89.7648 47.5842C97.7421 47.5842 102.574 42.6496 102.574 34.4678C102.574 26.3115 97.7421 21.4024 89.8415 21.4024H80.4836V47.5842H89.7648ZM86.0191 42.8413V26.1453H89.5475C94.4566 26.1453 97.0518 28.651 97.0518 34.4678C97.0518 40.3101 94.4566 42.8413 89.5347 42.8413H86.0191ZM112.172 47.955C115.074 47.955 116.953 46.6893 117.912 44.8612H118.066V47.5842H123.23V34.3399C123.23 29.6609 119.267 27.6922 114.895 27.6922C110.191 27.6922 107.097 29.9422 106.343 33.5217L111.38 33.9308C111.75 32.6268 112.914 31.668 114.87 31.668C116.723 31.668 117.784 32.6013 117.784 34.2121V34.2888C117.784 35.5544 116.442 35.7206 113.029 36.053C109.142 36.4109 105.652 37.7149 105.652 42.0999C105.652 45.9862 108.426 47.955 112.172 47.955ZM113.732 44.1964C112.057 44.1964 110.855 43.4166 110.855 41.9209C110.855 40.3868 112.121 39.6325 114.039 39.3641C115.228 39.1979 117.171 38.9166 117.823 38.482V40.5658C117.823 42.624 116.122 44.1964 113.732 44.1964ZM137.9 27.9479H134.206V23.2433H128.759V27.9479H126.075V32.0388H128.759V42.266C128.734 46.1141 131.355 48.0189 135.305 47.8527C136.711 47.8016 137.708 47.5203 138.258 47.3413L137.402 43.2888C137.133 43.3399 136.558 43.4678 136.046 43.4678C134.96 43.4678 134.206 43.0587 134.206 41.5501V32.0388H137.9V27.9479ZM147.047 47.955C149.949 47.955 151.828 46.6893 152.787 44.8612H152.941V47.5842H158.105V34.3399C158.105 29.6609 154.142 27.6922 149.77 27.6922C145.066 27.6922 141.972 29.9422 141.218 33.5217L146.255 33.9308C146.625 32.6268 147.789 31.668 149.745 31.668C151.598 31.668 152.659 32.6013 152.659 34.2121V34.2888C152.659 35.5544 151.317 35.7206 147.904 36.053C144.017 36.4109 140.527 37.7149 140.527 42.0999C140.527 45.9862 143.301 47.955 147.047 47.955ZM148.607 44.1964C146.932 44.1964 145.73 43.4166 145.73 41.9209C145.73 40.3868 146.996 39.6325 148.914 39.3641C150.103 39.1979 152.046 38.9166 152.698 38.482V40.5658C152.698 42.624 150.997 44.1964 148.607 44.1964ZM176.636 28.9322H181.941C181.865 24.266 178.029 21.0445 172.2 21.0445C166.46 21.0445 162.254 24.2149 162.279 28.9706C162.267 32.8314 164.99 35.043 169.413 36.1041L172.264 36.82C175.115 37.5104 176.7 38.3285 176.713 40.0928C176.7 42.0104 174.885 43.3143 172.072 43.3143C169.196 43.3143 167.125 41.9848 166.946 39.3641H161.589C161.73 45.0274 165.782 47.955 172.136 47.955C178.528 47.955 182.286 44.8996 182.299 40.1055C182.286 35.7462 179.001 33.4322 174.45 32.4095L172.098 31.847C169.822 31.3229 167.917 30.4791 167.956 28.5999C167.956 26.9124 169.451 25.6723 172.161 25.6723C174.808 25.6723 176.431 26.874 176.636 28.9322ZM196.365 27.9479H192.67V23.2433H187.224V27.9479H184.54V32.0388H187.224V42.266C187.199 46.1141 189.82 48.0189 193.77 47.8527C195.176 47.8016 196.173 47.5203 196.723 47.3413L195.866 43.2888C195.598 43.3399 195.023 43.4678 194.511 43.4678C193.425 43.4678 192.67 43.0587 192.67 41.5501V32.0388H196.365V27.9479ZM205.512 47.955C208.414 47.955 210.293 46.6893 211.252 44.8612H211.405V47.5842H216.57V34.3399C216.57 29.6609 212.607 27.6922 208.235 27.6922C203.53 27.6922 200.437 29.9422 199.682 33.5217L204.719 33.9308C205.09 32.6268 206.253 31.668 208.209 31.668C210.063 31.668 211.124 32.6013 211.124 34.2121V34.2888C211.124 35.5544 209.782 35.7206 206.369 36.053C202.482 36.4109 198.992 37.7149 198.992 42.0999C198.992 45.9862 201.766 47.955 205.512 47.955ZM207.072 44.1964C205.397 44.1964 204.195 43.4166 204.195 41.9209C204.195 40.3868 205.461 39.6325 207.378 39.3641C208.567 39.1979 210.511 38.9166 211.163 38.482V40.5658C211.163 42.624 209.462 44.1964 207.072 44.1964ZM231.24 27.9479H227.545V23.2433H222.099V27.9479H219.415V32.0388H222.099V42.266C222.074 46.1141 224.695 48.0189 228.645 47.8527C230.051 47.8016 231.048 47.5203 231.598 47.3413L230.741 43.2888C230.473 43.3399 229.898 43.4678 229.386 43.4678C228.3 43.4678 227.545 43.0587 227.545 41.5501V32.0388H231.24V27.9479ZM234.788 47.5842H240.234V27.9479H234.788V47.5842ZM237.523 25.4166C239.147 25.4166 240.476 24.1766 240.476 22.6553C240.476 21.1467 239.147 19.9067 237.523 19.9067C235.913 19.9067 234.583 21.1467 234.583 22.6553C234.583 24.1766 235.913 25.4166 237.523 25.4166ZM253.468 47.9678C259.426 47.9678 263.133 43.8896 263.133 37.8428C263.133 31.7575 259.426 27.6922 253.468 27.6922C247.511 27.6922 243.804 31.7575 243.804 37.8428C243.804 43.8896 247.511 47.9678 253.468 47.9678ZM253.494 43.749C250.745 43.749 249.339 41.2305 249.339 37.8044C249.339 34.3783 250.745 31.847 253.494 31.847C256.191 31.847 257.598 34.3783 257.598 37.8044C257.598 41.2305 256.191 43.749 253.494 43.749ZM272.12 36.232C272.133 33.7007 273.642 32.2178 275.84 32.2178C278.027 32.2178 279.343 33.6496 279.331 36.053V47.5842H284.777V35.0814C284.777 30.5047 282.092 27.6922 278.001 27.6922C275.086 27.6922 272.977 29.124 272.095 31.4124H271.865V27.9479H266.674V47.5842H272.12V36.232Z" fill="#2C5282"/>
<rect x="245" width="52.5317" height="24" rx="12" fill="#FEEBCB"/>
<path d="M255 17.804H256.683V16.4265H256.827C257.138 16.9914 257.772 17.9769 259.386 17.9769C261.53 17.9769 263.086 16.2594 263.086 13.3948C263.086 10.5245 261.507 8.83574 259.369 8.83574C257.726 8.83574 257.133 9.83862 256.827 10.3862H256.723V6H255V17.804ZM256.689 13.3775C256.689 11.5274 257.496 10.2997 259 10.2997C260.562 10.2997 261.346 11.6196 261.346 13.3775C261.346 15.1527 260.539 16.5072 259 16.5072C257.519 16.5072 256.689 15.2392 256.689 13.3775Z" fill="#9C4221"/>
<path d="M268.837 17.9827C270.768 17.9827 272.134 17.0317 272.526 15.5908L270.895 15.2968C270.584 16.1326 269.834 16.5591 268.854 16.5591C267.379 16.5591 266.388 15.6023 266.341 13.8963H272.635V13.2853C272.635 10.0865 270.722 8.83574 268.716 8.83574C266.249 8.83574 264.624 10.7147 264.624 13.4352C264.624 16.1844 266.226 17.9827 268.837 17.9827ZM266.347 12.6052C266.416 11.3487 267.327 10.2594 268.728 10.2594C270.065 10.2594 270.941 11.2507 270.947 12.6052H266.347Z" fill="#9C4221"/>
<path d="M278.68 8.95101H276.865V6.82997H275.141V8.95101H273.844V10.3343H275.141V15.562C275.135 17.17 276.363 17.9481 277.723 17.9193C278.271 17.9135 278.64 17.8098 278.841 17.7349L278.53 16.3112C278.415 16.3343 278.202 16.3862 277.925 16.3862C277.366 16.3862 276.865 16.2017 276.865 15.2046V10.3343H278.68V8.95101Z" fill="#9C4221"/>
<path d="M283.163 18C284.627 18 285.451 17.2565 285.78 16.5937H285.849V17.804H287.532V11.9251C287.532 9.3487 285.503 8.83574 284.097 8.83574C282.494 8.83574 281.019 9.48127 280.442 11.0951L282.062 11.464C282.316 10.8357 282.961 10.2305 284.12 10.2305C285.232 10.2305 285.803 10.8127 285.803 11.8156V11.8559C285.803 12.4841 285.157 12.4726 283.566 12.6571C281.889 12.853 280.171 13.2911 280.171 15.3026C280.171 17.0432 281.48 18 283.163 18ZM283.537 16.6167C282.563 16.6167 281.86 16.1787 281.86 15.3256C281.86 14.4035 282.679 14.0749 283.676 13.9424C284.235 13.8674 285.561 13.7176 285.808 13.4697V14.611C285.808 15.6599 284.973 16.6167 283.537 16.6167Z" fill="#9C4221"/>
</svg>
