<svg width="281" height="95" viewBox="0 0 281 95" fill="none" xmlns="http://www.w3.org/2000/svg">
<path d="M39.3311 0H50.4114C72.4689 0 90.3472 21.1364 90.3472 47.215C90.3472 73.2936 72.4689 94.4301 50.4114 94.4301H39.3311C61.3886 94.4301 79.26 73.2936 79.26 47.215C79.26 21.1433 61.3817 0 39.3311 0Z" fill="#D96D00"/>
<path d="M38.8154 0H49.8957C71.9533 0 89.8316 21.1364 89.8316 47.215C89.8316 73.2936 71.9533 94.4301 49.8957 94.4301H38.8154C60.8729 94.4301 78.7444 73.2936 78.7444 47.215C78.7444 21.1433 60.8661 0 38.8154 0Z" fill="url(#paint0_linear)"/>
<path d="M78.3457 40.5959H89.426C89.3985 40.3484 89.371 40.101 89.3367 39.8535H78.2563C78.2907 40.101 78.3182 40.3553 78.3457 40.5959Z" fill="#F5C491"/>
<path d="M87.9414 32.8628H76.8611C76.9298 33.1102 76.9917 33.3577 77.0535 33.6051H88.1338C88.072 33.3577 88.0101 33.1102 87.9414 32.8628Z" fill="#F5C491"/>
<path d="M78.7444 47.2218C78.7444 47.3455 78.7375 47.4692 78.7375 47.5929H89.8179C89.8179 47.4692 89.8247 47.3455 89.8247 47.2218C89.8247 47.098 89.8179 46.9743 89.8179 46.8506H78.7375C78.7375 46.9743 78.7444 47.098 78.7444 47.2218Z" fill="#F5C491"/>
<path d="M87.1097 30.1066C87.0273 29.8592 86.9448 29.6117 86.8623 29.3643H75.782C75.8645 29.6117 75.947 29.8592 76.0294 30.1066H87.1097Z" fill="#F5C491"/>
<path d="M74.7508 26.6144H85.8311C85.728 26.367 85.618 26.1195 85.508 25.8721H74.4277C74.5377 26.1195 74.6477 26.367 74.7508 26.6144Z" fill="#F5C491"/>
<path d="M89.7285 44.0944C89.7148 43.847 89.701 43.5995 89.6804 43.3521H78.6001C78.6138 43.5995 78.6345 43.847 78.6482 44.0944H89.7285Z" fill="#F5C491"/>
<path d="M73.1493 71.3208C73.0256 71.5683 72.895 71.8157 72.7712 72.0632H83.8515C83.9821 71.8157 84.1059 71.5683 84.2296 71.3208H73.1493Z" fill="#F5C491"/>
<path d="M82.2842 74.8193H71.2039C71.0527 75.0668 70.9083 75.3142 70.7502 75.5617H81.8305C81.9886 75.3142 82.133 75.0668 82.2842 74.8193Z" fill="#F5C491"/>
<path d="M89.426 53.8408H78.3457C78.3182 54.0883 78.2907 54.3357 78.2563 54.5832H89.3367C89.371 54.3357 89.3985 54.0883 89.426 53.8408Z" fill="#F5C491"/>
<path d="M88.7524 58.0822C88.8005 57.8347 88.8487 57.5873 88.8968 57.3398H77.8165C77.7684 57.5873 77.7202 57.8347 77.6721 58.0822H88.7524Z" fill="#F5C491"/>
<path d="M65.2927 82.5524H76.373C76.6067 82.305 76.8404 82.0644 77.0673 81.8101H65.987C65.7533 82.0644 65.5264 82.3118 65.2927 82.5524Z" fill="#F5C491"/>
<path d="M87.1097 64.3306H76.0294C75.947 64.578 75.8645 64.8255 75.782 65.0729H86.8623C86.9517 64.8255 87.0273 64.578 87.1097 64.3306Z" fill="#F5C491"/>
<path d="M77.0535 60.832C76.9917 61.0795 76.9298 61.3269 76.8611 61.5744H87.9414C88.0101 61.3269 88.072 61.0795 88.1338 60.832H77.0535Z" fill="#F5C491"/>
<path d="M78.6001 51.0846H89.6804C89.6941 50.8372 89.7148 50.5897 89.7285 50.3423H78.6482C78.6345 50.5897 78.6207 50.8372 78.6001 51.0846Z" fill="#F5C491"/>
<path d="M76.373 11.8843H65.2927C65.5264 12.1249 65.7533 12.3723 65.987 12.6266H77.0673C76.8336 12.3792 76.6067 12.1317 76.373 11.8843Z" fill="#F5C491"/>
<path d="M68.3035 15.3833C68.4891 15.6239 68.6678 15.8782 68.8533 16.1256H79.9337C79.7481 15.8782 79.5694 15.6239 79.3838 15.3833H68.3035Z" fill="#F5C491"/>
<path d="M61.8078 2.13786C61.0654 1.86292 60.3093 1.62234 59.5464 1.39551H48.4661C49.229 1.62234 49.9851 1.86292 50.7275 2.13786H61.8078Z" fill="#F5C491"/>
<path d="M85.508 68.5646C85.6112 68.3172 85.728 68.0697 85.8311 67.8223H74.7508C74.6477 68.0697 74.5377 68.3172 74.4277 68.5646H85.508Z" fill="#F5C491"/>
<path d="M73.4928 9.13493C73.2042 8.88061 72.9086 8.64003 72.613 8.39258H61.5327C61.8283 8.63316 62.1238 8.88061 62.4125 9.13493H73.4928Z" fill="#F5C491"/>
<path d="M70.7502 18.8818C70.9015 19.1224 71.0527 19.3767 71.2039 19.6242H82.2842C82.133 19.3767 81.9886 19.1293 81.8305 18.8818H70.7502Z" fill="#F5C491"/>
<path d="M68.819 5.6364C68.4134 5.38207 68.0079 5.13462 67.5955 4.89404H56.5151C56.9276 5.13462 57.3331 5.38207 57.7386 5.6364H68.819Z" fill="#F5C491"/>
<path d="M57.7386 88.8008C57.3331 89.062 56.9276 89.3026 56.5151 89.5431H67.5955C68.0079 89.3026 68.4134 89.062 68.819 88.8008H57.7386Z" fill="#F5C491"/>
<path d="M50.7275 92.2993C49.9851 92.5743 49.229 92.8149 48.4661 93.0417H59.5464C60.3093 92.8149 61.0654 92.5743 61.8078 92.2993H50.7275Z" fill="#F5C491"/>
<path d="M62.4057 85.3086C62.117 85.5629 61.8214 85.8035 61.5259 86.0509H72.6062C72.9018 85.8104 73.1973 85.5629 73.486 85.3086H62.4057Z" fill="#F5C491"/>
<path d="M72.7712 22.3735C72.9018 22.621 73.0256 22.8684 73.1493 23.1159H84.2296C84.1059 22.8684 83.9753 22.621 83.8515 22.3735H72.7712Z" fill="#F5C491"/>
<path d="M77.6721 36.3613C77.7202 36.6088 77.7684 36.8562 77.8165 37.1037H88.8968C88.8487 36.8562 88.8005 36.6088 88.7524 36.3613H77.6721Z" fill="#F5C491"/>
<path d="M68.8533 78.311C68.6678 78.5585 68.4891 78.8128 68.3035 79.0534H79.3838C79.5694 78.8128 79.7481 78.5585 79.9337 78.311H68.8533Z" fill="#F5C491"/>
<path d="M39.929 94.4369C61.9811 94.4369 79.8579 73.298 79.8579 47.2219C79.8579 21.1457 61.9811 0.00683594 39.929 0.00683594C17.8768 0.00683594 0 21.1457 0 47.2219C0 73.298 17.8768 94.4369 39.929 94.4369Z" fill="url(#paint1_linear)"/>
<g opacity="0.3">
<path opacity="0.3" d="M39.9289 0C32.0173 0 24.6419 2.73571 18.4419 7.4304L68.647 80.0092C75.5893 71.5134 79.8647 59.9588 79.8647 47.215C79.8647 46.9813 79.851 46.7545 79.851 46.5277L48.411 1.07916C45.6684 0.378045 42.8364 0 39.9289 0Z" fill="white"/>
<path opacity="0.3" d="M6.46114 21.4663C2.84561 28.0169 0.577308 35.6879 0.103027 43.95L34.7393 94.0244C36.4371 94.2856 38.1692 94.4369 39.9289 94.4369C45.1254 94.4369 50.0881 93.2477 54.6385 91.1169L6.46114 21.4663Z" fill="white"/>
</g>
<path opacity="0.6" d="M80.8066 47.2219C80.8066 21.1433 62.9282 0.00683594 40.8776 0.00683594C40.7195 0.00683594 40.5614 0.0205862 40.4033 0.0205862C62.2409 0.323026 79.858 21.3357 79.858 47.2219C79.858 73.1149 62.234 94.1207 40.4033 94.4232C40.5614 94.4232 40.7195 94.4369 40.8776 94.4369C62.9282 94.4369 80.8066 73.3005 80.8066 47.2219Z" fill="white"/>
<path opacity="0.6" d="M39.331 12.1182C22.9305 12.1182 9.6438 27.8313 9.6438 47.2218C9.6438 66.6055 22.9305 82.3255 39.331 82.3255C55.7316 82.3255 69.0183 66.6055 69.0183 47.2218C69.0183 27.8313 55.7316 12.1182 39.331 12.1182Z" fill="white"/>
<path d="M39.9289 12.1182C23.5284 12.1182 10.2417 27.8313 10.2417 47.2218C10.2417 66.6055 23.5284 82.3255 39.9289 82.3255C56.3295 82.3255 69.6162 66.6055 69.6162 47.2218C69.6093 27.8313 56.3226 12.1182 39.9289 12.1182Z" fill="#F28500"/>
<path d="M14.1941 47.2223C14.1941 28.6222 26.4292 13.4109 41.9017 12.208C41.2487 12.1599 40.5889 12.1255 39.9221 12.1255C23.5216 12.1255 10.2349 27.8386 10.2349 47.2292C10.2349 66.6128 23.5216 82.3328 39.9221 82.3328C40.5889 82.3328 41.2419 82.2985 41.9017 82.2435C26.4292 81.0337 14.1941 65.8155 14.1941 47.2223Z" fill="#D96D00"/>
<path d="M45.8786 42.1478C46.3063 40.7445 46.6872 39.3441 47.0625 37.9643C47.092 37.8558 47.1215 37.7474 47.151 37.6391C47.6041 35.9749 48.0538 34.3421 48.5769 32.7495C49.0054 31.7448 49.721 30.7296 50.4348 30.0063L50.0877 29.6637L50.4348 30.0063C50.8791 29.5561 51.3428 29.4019 51.7543 29.4423C52.171 29.4832 52.6213 29.7323 53.0116 30.2597L53.0327 30.2882L53.0576 30.3135C53.2668 30.5254 53.4426 30.7388 53.6336 30.971L53.6388 30.9774C53.8253 31.2042 54.0269 31.4493 54.2702 31.6959C54.6293 32.0598 55.0611 32.3156 55.5281 32.3945C56.0053 32.4751 56.486 32.3639 56.8991 32.0499L56.9274 32.0284L56.9524 32.0031C57.2794 31.6717 57.4211 31.252 57.487 30.8736C57.5513 30.5044 57.5513 30.1225 57.5513 29.8251L57.5513 29.8087C57.5513 29.5003 57.4046 29.2424 57.2894 29.079C57.1746 28.9162 57.0421 28.7803 56.9655 28.7027C55.9398 27.5007 54.43 27.0074 52.971 27.0047C49.5694 26.8447 47.3084 28.5133 45.433 31.0472C43.5585 33.58 42.7795 36.4217 42.0281 39.1631L42.0251 39.1739C41.8688 39.5743 41.752 39.9705 41.6401 40.3673C41.6209 40.4357 41.6018 40.504 41.5826 40.5724C41.5216 40.7903 41.4603 41.0096 41.392 41.2365L32.8677 40.0652L32.3655 39.9962L32.3034 40.4994L32.0003 42.957L31.9412 43.4357L32.4175 43.5119L40.5326 44.8103L39.6882 48.5997L31.8116 47.4387L31.3092 47.3646L31.2429 47.8681L30.9398 50.1721L30.8759 50.6575L31.3599 50.7316L38.9689 51.8954L38.9689 52.0296C38.3424 55.0701 37.6132 58.0056 36.8637 61.0224C36.7124 61.6315 36.5602 62.2439 36.408 62.8611C35.9674 64.4959 35.2488 66.0725 33.9964 67.2083C33.4695 67.604 32.9987 67.7282 32.6014 67.6745C32.2101 67.6216 31.7985 67.3839 31.4081 66.8696C31.0794 66.2171 30.6022 65.5769 30.1241 65.0924L30.0407 65.0079L29.9282 64.9699C29.6745 64.8842 29.3401 64.7993 29.0205 64.7561C28.8605 64.7345 28.6924 64.7217 28.5334 64.728C28.3835 64.734 28.1958 64.7582 28.0265 64.844L27.9986 64.8581L27.9726 64.8757C27.6375 65.1021 27.3979 65.4649 27.244 65.8214C27.0873 66.1844 26.9946 66.5972 26.9946 66.9796C26.9946 67.3555 27.1708 67.7248 27.366 68.0104C27.5647 68.3014 27.8295 68.5738 28.1085 68.7656C29.6252 69.9524 31.6021 70.0953 33.3391 69.7764C36.4046 69.2839 38.6517 67.3153 39.9224 64.579L39.9239 64.5756C40.8424 62.5589 41.6063 60.3914 42.3614 58.249C42.7532 57.2931 43.0245 56.2673 43.2705 55.2509C43.3252 55.025 43.3785 54.7999 43.4316 54.5759C43.5872 53.9195 43.7407 53.2722 43.9194 52.6376L51.9777 53.8041L52.4194 53.8681L52.5329 53.4365L53.1392 51.1326L53.2821 50.5894L52.7261 50.5103L44.6025 49.3549L45.329 45.4289L52.8832 46.5844L53.3279 46.6524L53.4424 46.2174L54.0486 43.9134L54.1909 43.373L53.638 43.2915L45.8786 42.1478Z" fill="#D96D00" stroke="#D96D00" stroke-linecap="round"/>
<path opacity="0.5" d="M44.507 40.5254C44.9332 39.1489 45.313 37.7755 45.6872 36.4224C45.7167 36.3156 45.7462 36.209 45.7757 36.1025C46.2287 34.4657 46.6783 32.8602 47.2012 31.2943C47.629 30.3078 48.3437 29.3104 49.0572 28.5993L48.7042 28.2451L49.0572 28.5993C49.5006 28.1573 49.9655 28.0041 50.3803 28.0441C50.7999 28.0845 51.2502 28.3309 51.6392 28.8479L51.6606 28.8763L51.6858 28.9014C51.8948 29.1097 52.0705 29.3194 52.2615 29.5479L52.2667 29.5541C52.4532 29.7772 52.6549 30.0185 52.8984 30.2612C53.2581 30.6198 53.6895 30.8707 54.1546 30.9479C54.6293 31.0268 55.1082 30.9184 55.5212 30.6097L55.5496 30.5884L55.5748 30.5633C55.9031 30.2361 56.0457 29.8209 56.112 29.4465C56.1766 29.0819 56.1765 28.7051 56.1765 28.4128L56.1765 28.3962C56.1765 28.0879 56.0276 27.8313 55.9124 27.6706C55.7973 27.51 55.6645 27.3762 55.588 27.2998C54.5614 26.1167 53.0524 25.6326 51.596 25.63C48.1984 25.4728 45.9376 27.1118 44.0606 29.6064C42.1849 32.0992 41.4054 34.8963 40.654 37.5927L40.6512 37.603C40.4946 37.9972 40.3778 38.3873 40.266 38.7774C40.2467 38.8447 40.2276 38.9119 40.2084 38.9793C40.1478 39.1925 40.0867 39.407 40.019 39.6288L31.4919 38.4764L30.9916 38.4088L30.9288 38.9097L30.6257 41.3269L30.5654 41.8078L31.044 41.8831L39.1557 43.1597L38.3148 46.8713L30.4356 45.7289L29.9353 45.6564L29.8683 46.1575L29.5652 48.4237L29.5 48.9112L29.9864 48.9844L37.5941 50.129L37.5941 50.2512C36.9678 53.2409 36.2387 56.1275 35.4894 59.0944C35.3381 59.6934 35.186 60.2957 35.0337 60.9028C34.5936 62.5089 33.8761 64.0577 32.6248 65.1739C32.0982 65.5629 31.6258 65.6862 31.2255 65.633C30.8318 65.5807 30.4205 65.346 30.0314 64.8421C29.7022 64.1995 29.2246 63.5695 28.7464 63.0928L28.663 63.0096L28.5511 62.9725C28.2977 62.8883 27.9638 62.8049 27.6446 62.7625C27.485 62.7413 27.3174 62.7287 27.159 62.7349C27.0097 62.7407 26.8232 62.7644 26.6547 62.8484L26.6269 62.8622L26.601 62.8794C26.2656 63.1023 26.0251 63.4601 25.8705 63.8126C25.7131 64.171 25.6199 64.5791 25.6199 64.9578C25.6199 65.3323 25.7981 65.6983 25.9934 65.9795C26.1927 66.2665 26.458 66.5347 26.7369 66.7234C28.253 67.8903 30.2279 68.0304 31.9631 67.717C35.0255 67.2331 37.2738 65.298 38.5463 62.6029L38.5478 62.5995C39.4666 60.6153 40.2307 58.4829 40.9856 56.3758C41.3778 55.4346 41.6493 54.4249 41.8953 53.4251C41.95 53.2027 42.0034 52.9813 42.0565 52.7609C42.2118 52.1165 42.3649 51.4814 42.5431 50.8587L50.6041 52.0066L51.0431 52.0691L51.1576 51.6408L51.7639 49.3746L51.91 48.8285L51.3502 48.7502L43.2295 47.6141L43.953 43.7683L51.5097 44.9052L51.9516 44.9717L52.0671 44.54L52.6734 42.2738L52.8187 41.7304L52.2621 41.6497L44.507 40.5254Z" fill="white" stroke="white" stroke-linecap="round"/>
<path d="M43.0934 40.8017C43.4539 39.6051 43.7832 38.4144 44.1065 37.2452C44.1363 37.1377 44.1659 37.0305 44.1956 36.9234C44.6468 35.2931 45.0912 33.7064 45.6065 32.1612C46.0074 31.2451 46.6791 30.3077 47.3481 29.6409L46.6565 28.9471L47.3481 29.6409C47.7044 29.2857 48.028 29.2059 48.2703 29.2293C48.5221 29.2536 48.8544 29.4063 49.1777 29.836L49.2204 29.8929L49.2708 29.943C49.4614 30.133 49.6233 30.3258 49.8159 30.5561L49.8253 30.5674C50.0096 30.7879 50.2237 31.0439 50.4834 31.3028C50.8998 31.7178 51.4215 32.0308 52.0107 32.1287C52.6189 32.2297 53.2358 32.0884 53.7585 31.6976L53.8154 31.6551L53.8657 31.6049C54.295 31.1771 54.4666 30.6489 54.5424 30.2212C54.6147 29.8125 54.6146 29.3978 54.6145 29.1114L54.6145 29.0837C54.6145 28.6181 54.3924 28.2561 54.2568 28.0669C54.1232 27.8804 53.9728 27.7269 53.8914 27.6456C52.7483 26.338 51.0953 25.8228 49.5461 25.8175C45.9338 25.6542 43.5344 27.4212 41.5991 29.9933C39.6664 32.5619 38.8652 35.4369 38.1196 38.113L38.1145 38.1311C37.9533 38.5412 37.8335 38.9428 37.7233 39.3272C37.7035 39.3963 37.6841 39.4647 37.6647 39.5327C37.6427 39.6099 37.6209 39.6867 37.5988 39.7634L29.4968 38.6684L28.4963 38.5332L28.3707 39.5349L28.0675 41.9522L27.9469 42.9138L28.9043 43.0645L36.4879 44.258L35.8673 46.9976L28.4454 45.9216L27.4448 45.7765L27.3107 46.7787L27.0076 49.0449L26.8771 50.02L27.85 50.1663L34.9583 51.2358C34.3536 54.0727 33.659 56.8228 32.9433 59.6566C32.7923 60.2546 32.6403 60.8563 32.4881 61.4633C32.063 63.0123 31.3861 64.4484 30.2474 65.4726C29.8032 65.7957 29.4642 65.8561 29.2294 65.8249C29.0044 65.795 28.7117 65.6593 28.3919 65.2581C28.0375 64.5797 27.5381 63.9253 27.0374 63.4262L26.8705 63.2598L26.6468 63.1855C26.3673 63.0926 26.0025 63.0014 25.6485 62.9543C25.4712 62.9308 25.2734 62.9151 25.0774 62.9228C24.8998 62.9297 24.6308 62.9583 24.3697 63.0884L24.314 63.1161L24.2623 63.1505C23.8188 63.4452 23.5274 63.8964 23.3506 64.2991C23.1685 64.7139 23.0579 65.1902 23.0579 65.6453C23.0579 66.1678 23.3006 66.6353 23.5207 66.9523C23.749 67.2808 24.0522 67.5906 24.3818 67.8162C26.0492 69.0925 28.1801 69.2224 29.9844 68.8975C33.2294 68.3829 35.604 66.3259 36.9364 63.5038L36.9395 63.4971C37.8676 61.4928 38.6379 59.3431 39.3901 57.2438C39.7954 56.2681 40.073 55.2309 40.3188 54.2321C40.3749 54.0042 40.4291 53.7791 40.4828 53.5565C40.6023 53.0609 40.7187 52.5777 40.8458 52.1032L48.4716 53.1891L49.3495 53.3141L49.5786 52.4575L50.1849 50.1913L50.4771 49.0992L49.3575 48.9425L41.7558 47.8791L42.2932 45.0219L49.3733 46.0872L50.2571 46.2201L50.4881 45.3567L51.0944 43.0905L51.3851 42.0038L50.2718 41.8424L43.0934 40.8017Z" fill="#FBB708" stroke="#FBB908" stroke-width="2" stroke-linecap="round"/>
<path d="M129.814 16.5623V36.2183H125.026V24.4303L120.63 36.2183H116.766L112.342 24.4023V36.2183H107.554V16.5623H113.21L118.726 30.1703L124.186 16.5623H129.814ZM135.665 18.9703C134.825 18.9703 134.134 18.7276 133.593 18.2423C133.07 17.7383 132.809 17.1223 132.809 16.3943C132.809 15.6476 133.07 15.0316 133.593 14.5463C134.134 14.0423 134.825 13.7903 135.665 13.7903C136.486 13.7903 137.158 14.0423 137.681 14.5463C138.222 15.0316 138.493 15.6476 138.493 16.3943C138.493 17.1223 138.222 17.7383 137.681 18.2423C137.158 18.7276 136.486 18.9703 135.665 18.9703ZM138.045 20.5943V36.2183H133.257V20.5943H138.045ZM151.035 20.4263C152.864 20.4263 154.32 21.0236 155.403 22.2183C156.504 23.3943 157.055 25.0183 157.055 27.0903V36.2183H152.295V27.7343C152.295 26.6889 152.024 25.8769 151.483 25.2983C150.941 24.7196 150.213 24.4303 149.299 24.4303C148.384 24.4303 147.656 24.7196 147.115 25.2983C146.573 25.8769 146.303 26.6889 146.303 27.7343V36.2183H141.515V20.5943H146.303V22.6663C146.788 21.9756 147.441 21.4343 148.263 21.0423C149.084 20.6316 150.008 20.4263 151.035 20.4263ZM175.11 28.1543C175.11 28.6023 175.082 29.0689 175.026 29.5543H164.19C164.265 30.5249 164.573 31.2716 165.114 31.7943C165.674 32.2983 166.355 32.5503 167.158 32.5503C168.353 32.5503 169.183 32.0463 169.65 31.0383H174.746C174.485 32.0649 174.009 32.9889 173.318 33.8103C172.646 34.6316 171.797 35.2756 170.77 35.7423C169.743 36.2089 168.595 36.4423 167.326 36.4423C165.795 36.4423 164.433 36.1156 163.238 35.4623C162.043 34.8089 161.11 33.8756 160.438 32.6623C159.766 31.4489 159.43 30.0303 159.43 28.4063C159.43 26.7823 159.757 25.3636 160.41 24.1503C161.082 22.9369 162.015 22.0036 163.21 21.3503C164.405 20.6969 165.777 20.3703 167.326 20.3703C168.838 20.3703 170.182 20.6876 171.358 21.3223C172.534 21.9569 173.449 22.8623 174.102 24.0383C174.774 25.2143 175.11 26.5863 175.11 28.1543ZM170.21 26.8943C170.21 26.0729 169.93 25.4196 169.37 24.9343C168.81 24.4489 168.11 24.2063 167.27 24.2063C166.467 24.2063 165.786 24.4396 165.226 24.9063C164.685 25.3729 164.349 26.0356 164.218 26.8943H170.21ZM182.424 23.1983C182.984 22.3396 183.684 21.6676 184.524 21.1823C185.364 20.6783 186.297 20.4263 187.324 20.4263V25.4943H186.008C184.813 25.4943 183.917 25.7556 183.32 26.2783C182.723 26.7823 182.424 27.6783 182.424 28.9663V36.2183H177.636V20.5943H182.424V23.1983Z" fill="#2A4365"/>
<path d="M127.518 58.8423V78.2183H124.97V63.7703L118.53 78.2183H116.738L110.27 63.7423V78.2183H107.722V58.8423H110.466L117.634 74.8583L124.802 58.8423H127.518ZM130.887 70.4903C130.887 68.9223 131.204 67.5503 131.839 66.3743C132.474 65.1796 133.342 64.2556 134.443 63.6023C135.563 62.9489 136.804 62.6223 138.167 62.6223C139.511 62.6223 140.678 62.9116 141.667 63.4903C142.656 64.0689 143.394 64.7969 143.879 65.6743V62.8743H146.455V78.2183H143.879V75.3623C143.375 76.2583 142.619 77.0049 141.611 77.6023C140.622 78.1809 139.464 78.4703 138.139 78.4703C136.776 78.4703 135.544 78.1343 134.443 77.4623C133.342 76.7903 132.474 75.8476 131.839 74.6343C131.204 73.4209 130.887 72.0396 130.887 70.4903ZM143.879 70.5183C143.879 69.3609 143.646 68.3529 143.179 67.4943C142.712 66.6356 142.078 65.9823 141.275 65.5343C140.491 65.0676 139.623 64.8343 138.671 64.8343C137.719 64.8343 136.851 65.0583 136.067 65.5063C135.283 65.9543 134.658 66.6076 134.191 67.4663C133.724 68.3249 133.491 69.3329 133.491 70.4903C133.491 71.6663 133.724 72.6929 134.191 73.5703C134.658 74.4289 135.283 75.0916 136.067 75.5583C136.851 76.0063 137.719 76.2303 138.671 76.2303C139.623 76.2303 140.491 76.0063 141.275 75.5583C142.078 75.0916 142.712 74.4289 143.179 73.5703C143.646 72.6929 143.879 71.6756 143.879 70.5183ZM153.309 65.3663C153.757 64.4889 154.392 63.8076 155.213 63.3223C156.053 62.8369 157.07 62.5943 158.265 62.5943V65.2263H157.593C154.737 65.2263 153.309 66.7756 153.309 69.8743V78.2183H150.761V62.8743H153.309V65.3663ZM169.774 78.2183L163.754 71.4423V78.2183H161.206V57.4983H163.754V69.6783L169.662 62.8743H173.218L165.994 70.5183L173.246 78.2183H169.774ZM189.616 69.9583C189.616 70.4436 189.588 70.9569 189.532 71.4983H177.268C177.362 73.0103 177.875 74.1956 178.808 75.0543C179.76 75.8943 180.908 76.3143 182.252 76.3143C183.354 76.3143 184.268 76.0623 184.996 75.5583C185.743 75.0356 186.266 74.3449 186.564 73.4863H189.308C188.898 74.9609 188.076 76.1649 186.844 77.0983C185.612 78.0129 184.082 78.4703 182.252 78.4703C180.796 78.4703 179.49 78.1436 178.332 77.4903C177.194 76.8369 176.298 75.9129 175.644 74.7183C174.991 73.5049 174.664 72.1049 174.664 70.5183C174.664 68.9316 174.982 67.5409 175.616 66.3463C176.251 65.1516 177.138 64.2369 178.276 63.6023C179.434 62.9489 180.759 62.6223 182.252 62.6223C183.708 62.6223 184.996 62.9396 186.116 63.5743C187.236 64.2089 188.095 65.0863 188.692 66.2063C189.308 67.3076 189.616 68.5583 189.616 69.9583ZM186.984 69.4263C186.984 68.4556 186.77 67.6249 186.34 66.9343C185.911 66.2249 185.323 65.6929 184.576 65.3383C183.848 64.9649 183.036 64.7783 182.14 64.7783C180.852 64.7783 179.751 65.1889 178.836 66.0103C177.94 66.8316 177.427 67.9703 177.296 69.4263H186.984ZM196.088 64.9743V74.0183C196.088 74.7649 196.246 75.2969 196.564 75.6143C196.881 75.9129 197.432 76.0623 198.216 76.0623H200.092V78.2183H197.796C196.377 78.2183 195.313 77.8916 194.604 77.2383C193.894 76.5849 193.54 75.5116 193.54 74.0183V64.9743H191.552V62.8743H193.54V59.0103H196.088V62.8743H200.092V64.9743H196.088ZM205.727 65.7023C206.231 64.8249 206.978 64.0969 207.967 63.5183C208.975 62.9209 210.142 62.6223 211.467 62.6223C212.83 62.6223 214.062 62.9489 215.163 63.6023C216.283 64.2556 217.16 65.1796 217.795 66.3743C218.43 67.5503 218.747 68.9223 218.747 70.4903C218.747 72.0396 218.43 73.4209 217.795 74.6343C217.16 75.8476 216.283 76.7903 215.163 77.4623C214.062 78.1343 212.83 78.4703 211.467 78.4703C210.16 78.4703 209.003 78.1809 207.995 77.6023C207.006 77.0049 206.25 76.2676 205.727 75.3903V85.4983H203.179V62.8743H205.727V65.7023ZM216.143 70.4903C216.143 69.3329 215.91 68.3249 215.443 67.4663C214.976 66.6076 214.342 65.9543 213.539 65.5063C212.755 65.0583 211.887 64.8343 210.935 64.8343C210.002 64.8343 209.134 65.0676 208.331 65.5343C207.547 65.9823 206.912 66.6449 206.427 67.5223C205.96 68.3809 205.727 69.3796 205.727 70.5183C205.727 71.6756 205.96 72.6929 206.427 73.5703C206.912 74.4289 207.547 75.0916 208.331 75.5583C209.134 76.0063 210.002 76.2303 210.935 76.2303C211.887 76.2303 212.755 76.0063 213.539 75.5583C214.342 75.0916 214.976 74.4289 215.443 73.5703C215.91 72.6929 216.143 71.6663 216.143 70.4903ZM224.649 57.4983V78.2183H222.101V57.4983H224.649ZM228.039 70.4903C228.039 68.9223 228.357 67.5503 228.991 66.3743C229.626 65.1796 230.494 64.2556 231.595 63.6023C232.715 62.9489 233.957 62.6223 235.319 62.6223C236.663 62.6223 237.83 62.9116 238.819 63.4903C239.809 64.0689 240.546 64.7969 241.031 65.6743V62.8743H243.607V78.2183H241.031V75.3623C240.527 76.2583 239.771 77.0049 238.763 77.6023C237.774 78.1809 236.617 78.4703 235.291 78.4703C233.929 78.4703 232.697 78.1343 231.595 77.4623C230.494 76.7903 229.626 75.8476 228.991 74.6343C228.357 73.4209 228.039 72.0396 228.039 70.4903ZM241.031 70.5183C241.031 69.3609 240.798 68.3529 240.331 67.4943C239.865 66.6356 239.23 65.9823 238.427 65.5343C237.643 65.0676 236.775 64.8343 235.823 64.8343C234.871 64.8343 234.003 65.0583 233.219 65.5063C232.435 65.9543 231.81 66.6076 231.343 67.4663C230.877 68.3249 230.643 69.3329 230.643 70.4903C230.643 71.6663 230.877 72.6929 231.343 73.5703C231.81 74.4289 232.435 75.0916 233.219 75.5583C234.003 76.0063 234.871 76.2303 235.823 76.2303C236.775 76.2303 237.643 76.0063 238.427 75.5583C239.23 75.0916 239.865 74.4289 240.331 73.5703C240.798 72.6929 241.031 71.6756 241.031 70.5183ZM246.961 70.5183C246.961 68.9316 247.279 67.5503 247.913 66.3743C248.548 65.1796 249.425 64.2556 250.545 63.6023C251.684 62.9489 252.981 62.6223 254.437 62.6223C256.323 62.6223 257.872 63.0796 259.085 63.9943C260.317 64.9089 261.129 66.1783 261.521 67.8023H258.777C258.516 66.8689 258.003 66.1316 257.237 65.5903C256.491 65.0489 255.557 64.7783 254.437 64.7783C252.981 64.7783 251.805 65.2823 250.909 66.2903C250.013 67.2796 249.565 68.6889 249.565 70.5183C249.565 72.3663 250.013 73.7943 250.909 74.8023C251.805 75.8103 252.981 76.3143 254.437 76.3143C255.557 76.3143 256.491 76.0529 257.237 75.5303C257.984 75.0076 258.497 74.2609 258.777 73.2903H261.521C261.111 74.8583 260.289 76.1183 259.057 77.0703C257.825 78.0036 256.285 78.4703 254.437 78.4703C252.981 78.4703 251.684 78.1436 250.545 77.4903C249.425 76.8369 248.548 75.9129 247.913 74.7183C247.279 73.5236 246.961 72.1236 246.961 70.5183ZM278.921 69.9583C278.921 70.4436 278.893 70.9569 278.837 71.4983H266.573C266.666 73.0103 267.18 74.1956 268.113 75.0543C269.065 75.8943 270.213 76.3143 271.557 76.3143C272.658 76.3143 273.573 76.0623 274.301 75.5583C275.048 75.0356 275.57 74.3449 275.869 73.4863H278.613C278.202 74.9609 277.381 76.1649 276.149 77.0983C274.917 78.0129 273.386 78.4703 271.557 78.4703C270.101 78.4703 268.794 78.1436 267.637 77.4903C266.498 76.8369 265.602 75.9129 264.949 74.7183C264.296 73.5049 263.969 72.1049 263.969 70.5183C263.969 68.9316 264.286 67.5409 264.921 66.3463C265.556 65.1516 266.442 64.2369 267.581 63.6023C268.738 62.9489 270.064 62.6223 271.557 62.6223C273.013 62.6223 274.301 62.9396 275.421 63.5743C276.541 64.2089 277.4 65.0863 277.997 66.2063C278.613 67.3076 278.921 68.5583 278.921 69.9583ZM276.289 69.4263C276.289 68.4556 276.074 67.6249 275.645 66.9343C275.216 66.2249 274.628 65.6929 273.881 65.3383C273.153 64.9649 272.341 64.7783 271.445 64.7783C270.157 64.7783 269.056 65.1889 268.141 66.0103C267.245 66.8316 266.732 67.9703 266.601 69.4263H276.289Z" fill="#2B6CB0"/>
<defs>
<linearGradient id="paint0_linear" x1="68.267" y1="80.7126" x2="47.2542" y2="7.29066" gradientUnits="userSpaceOnUse">
<stop stop-color="#F28500"/>
<stop offset="1" stop-color="#FBA905"/>
</linearGradient>
<linearGradient id="paint1_linear" x1="24.2733" y1="4.61767" x2="52.7028" y2="81.9957" gradientUnits="userSpaceOnUse">
<stop stop-color="#FBCF0A"/>
<stop offset="1" stop-color="#FBA505"/>
</linearGradient>
</defs>
</svg>
