<svg width="295" height="73" viewBox="0 0 295 73" fill="none" xmlns="http://www.w3.org/2000/svg">
<path fill-rule="evenodd" clip-rule="evenodd" d="M30.3629 3C32.707 3 34.6073 4.90029 34.6073 7.24442C34.6073 9.15069 33.3506 10.7634 31.6205 11.2994V20.5279L44.5897 28.0157C47.2918 26.4596 50.0714 24.8598 52.6591 23.3724C52.248 21.6005 53.0159 19.6952 54.6729 18.7385C56.703 17.5665 59.2989 18.262 60.4709 20.2921C61.643 22.3222 60.9474 24.918 58.9174 26.0901C57.2726 27.0396 55.2566 26.7634 53.9272 25.5447C51.315 27.0461 48.5064 28.6625 45.7789 30.2333V45.1647L53.7398 49.8065C55.0613 48.4344 57.1934 48.0829 58.9174 49.0782C60.9475 50.2503 61.643 52.8461 60.471 54.8762C59.2989 56.9063 56.703 57.6018 54.673 56.4298C53.0972 55.52 52.3255 53.7525 52.6071 52.0576L44.4761 47.3166C44.4481 47.3003 44.4211 47.2831 44.3949 47.2651L31.4955 54.7125V63.8323C33.2898 64.3279 34.6073 65.972 34.6073 67.9239C34.6073 70.268 32.707 72.1683 30.3629 72.1683C28.0187 72.1683 26.1185 70.268 26.1185 67.9239C26.1185 66.0638 27.315 64.4832 28.9803 63.9097V54.531L16.3954 47.2651C16.366 47.2853 16.3355 47.3045 16.304 47.3225L8.39057 51.8375C8.78022 53.5976 8.01142 55.4806 6.36734 56.4298C4.33726 57.6019 1.74142 56.9063 0.569353 54.8762C-0.602711 52.8462 0.0928439 50.2503 2.12292 49.0783C3.7806 48.1212 5.81553 48.4094 7.14446 49.6527L15.0113 45.1642V30.4227L6.88289 25.741C5.55848 26.7905 3.67531 26.9863 2.12296 26.0901C0.0928832 24.918 -0.602672 22.3221 0.569392 20.2921C1.74146 18.262 4.3373 17.5664 6.36738 18.7385C8.11361 19.7467 8.87242 21.8084 8.30449 23.6572L16.0364 28.1105L29.1053 20.5652V11.2994C27.3752 10.7635 26.1185 9.1507 26.1185 7.24442C26.1185 4.90029 28.0187 3 30.3629 3ZM18.5546 29.5609L30.3951 22.7248L42.0716 29.4662C40.8678 30.1597 39.6982 30.8338 38.5886 31.4734C36.023 32.9523 33.7782 34.2469 32.1748 35.1719C31.3731 35.6344 30.7317 36.0044 30.2908 36.2589L30.2373 36.2897L18.5546 29.5609ZM43.2637 45.0138L31.4955 51.8082V38.4676L31.5479 38.4374C31.9887 38.183 32.63 37.813 33.4316 37.3506C35.0348 36.4257 37.2793 35.1312 39.8446 33.6525C40.9346 33.0242 42.0825 32.3627 43.2637 31.6822V45.0138ZM28.9803 51.6267V38.4683L17.5265 31.8714V45.0138L28.9803 51.6267Z" fill="#3182CE"/>
<path d="M87.06 50.6C94.6684 50.6 99.2773 45.8935 99.2773 38.0901C99.2773 30.311 94.6684 25.629 87.1332 25.629H78.208V50.6H87.06ZM83.4875 46.0764V30.1525H86.8528C91.5348 30.1525 94.01 32.5423 94.01 38.0901C94.01 43.6622 91.5348 46.0764 86.8406 46.0764H83.4875Z" fill="#171923"/>
<path d="M108.431 50.9536C111.199 50.9536 112.991 49.7465 113.906 48.0029H114.052V50.6H118.978V37.9682C118.978 33.5056 115.198 31.6279 111.028 31.6279C106.541 31.6279 103.591 33.7738 102.871 37.1878L107.675 37.578C108.029 36.3343 109.138 35.4198 111.004 35.4198C112.772 35.4198 113.784 36.3099 113.784 37.8462V37.9194C113.784 39.1265 112.504 39.285 109.248 39.602C105.541 39.9434 102.213 41.1871 102.213 45.3692C102.213 49.0759 104.859 50.9536 108.431 50.9536ZM109.919 47.3689C108.321 47.3689 107.175 46.6251 107.175 45.1985C107.175 43.7354 108.382 43.016 110.211 42.76C111.345 42.6015 113.199 42.3332 113.82 41.9187V43.9061C113.82 45.8692 112.199 47.3689 109.919 47.3689Z" fill="#171923"/>
<path d="M132.969 31.8717H129.446V27.3847H124.251V31.8717H121.691V35.7734H124.251V45.5278C124.227 49.1978 126.727 51.0146 130.494 50.856C131.835 50.8073 132.786 50.539 133.311 50.3683L132.494 46.5032C132.238 46.552 131.689 46.6739 131.201 46.6739C130.165 46.6739 129.446 46.2837 129.446 44.845V35.7734H132.969V31.8717Z" fill="#171923"/>
<path d="M141.693 50.9536C144.461 50.9536 146.253 49.7465 147.168 48.0029H147.314V50.6H152.24V37.9682C152.24 33.5056 148.46 31.6279 144.29 31.6279C139.803 31.6279 136.853 33.7738 136.133 37.1878L140.937 37.578C141.291 36.3343 142.401 35.4198 144.266 35.4198C146.034 35.4198 147.046 36.3099 147.046 37.8462V37.9194C147.046 39.1265 145.766 39.285 142.51 39.602C138.804 39.9434 135.475 41.1871 135.475 45.3692C135.475 49.0759 138.121 50.9536 141.693 50.9536ZM143.181 47.3689C141.584 47.3689 140.437 46.6251 140.437 45.1985C140.437 43.7354 141.645 43.016 143.473 42.76C144.607 42.6015 146.461 42.3332 147.083 41.9187V43.9061C147.083 45.8692 145.461 47.3689 143.181 47.3689Z" fill="#171923"/>
<path d="M177.86 32.8106H182.921C182.847 28.3602 179.19 25.2876 173.63 25.2876C168.155 25.2876 164.143 28.3114 164.168 32.8471C164.156 36.5294 166.753 38.6388 170.971 39.6508L173.691 40.3336C176.41 40.992 177.921 41.7723 177.934 43.455C177.921 45.2839 176.19 46.5276 173.508 46.5276C170.764 46.5276 168.789 45.2595 168.618 42.76H163.509C163.644 48.1614 167.509 50.9536 173.569 50.9536C179.665 50.9536 183.25 48.0395 183.262 43.4672C183.25 39.3094 180.116 37.1025 175.775 36.127L173.532 35.5906C171.362 35.0906 169.545 34.2859 169.582 32.4936C169.582 30.8841 171.008 29.7014 173.593 29.7014C176.117 29.7014 177.665 30.8475 177.86 32.8106Z" fill="#171923"/>
<path d="M196.677 31.8717H193.153V27.3847H187.959V31.8717H185.399V35.7734H187.959V45.5278C187.935 49.1978 190.434 51.0146 194.202 50.856C195.543 50.8073 196.494 50.539 197.019 50.3683L196.202 46.5032C195.946 46.552 195.397 46.6739 194.909 46.6739C193.873 46.6739 193.153 46.2837 193.153 44.845V35.7734H196.677V31.8717Z" fill="#171923"/>
<path d="M205.401 50.9536C208.169 50.9536 209.961 49.7465 210.876 48.0029H211.022V50.6H215.948V37.9682C215.948 33.5056 212.168 31.6279 207.998 31.6279C203.511 31.6279 200.561 33.7738 199.841 37.1878L204.645 37.578C204.999 36.3343 206.108 35.4198 207.974 35.4198C209.742 35.4198 210.754 36.3099 210.754 37.8462V37.9194C210.754 39.1265 209.474 39.285 206.218 39.602C202.511 39.9434 199.183 41.1871 199.183 45.3692C199.183 49.0759 201.829 50.9536 205.401 50.9536ZM206.889 47.3689C205.291 47.3689 204.145 46.6251 204.145 45.1985C204.145 43.7354 205.352 43.016 207.181 42.76C208.315 42.6015 210.169 42.3332 210.79 41.9187V43.9061C210.79 45.8692 209.169 47.3689 206.889 47.3689Z" fill="#171923"/>
<path d="M229.939 31.8717H226.416V27.3847H221.221V31.8717H218.661V35.7734H221.221V45.5278C221.197 49.1978 223.697 51.0146 227.464 50.856C228.805 50.8073 229.756 50.539 230.281 50.3683L229.464 46.5032C229.208 46.552 228.659 46.6739 228.171 46.6739C227.135 46.6739 226.416 46.2837 226.416 44.845V35.7734H229.939V31.8717Z" fill="#171923"/>
<path d="M233.323 50.6H238.517V31.8717H233.323V50.6ZM235.932 29.4575C237.481 29.4575 238.749 28.2748 238.749 26.8239C238.749 25.3851 237.481 24.2024 235.932 24.2024C234.396 24.2024 233.128 25.3851 233.128 26.8239C233.128 28.2748 234.396 29.4575 235.932 29.4575Z" fill="#171923"/>
<path d="M251.14 50.9658C256.822 50.9658 260.358 47.0763 260.358 41.309C260.358 35.5052 256.822 31.6279 251.14 31.6279C245.458 31.6279 241.922 35.5052 241.922 41.309C241.922 47.0763 245.458 50.9658 251.14 50.9658ZM251.164 46.9421C248.543 46.9421 247.201 44.5401 247.201 41.2724C247.201 38.0047 248.543 35.5906 251.164 35.5906C253.737 35.5906 255.078 38.0047 255.078 41.2724C255.078 44.5401 253.737 46.9421 251.164 46.9421Z" fill="#171923"/>
<path d="M268.929 39.7727C268.941 37.3585 270.38 35.9441 272.477 35.9441C274.562 35.9441 275.818 37.3097 275.806 39.602V50.6H281V38.6754C281 34.3103 278.44 31.6279 274.538 31.6279C271.758 31.6279 269.746 32.9935 268.905 35.176H268.685V31.8717H263.735V50.6H268.929V39.7727Z" fill="#171923"/>
<rect x="240" width="55" height="26" rx="13" fill="#FEEBCB"/>
<path d="M253.119 18H254.57V16.8118H254.695C254.963 17.299 255.51 18.1491 256.902 18.1491C258.751 18.1491 260.094 16.6676 260.094 14.1967C260.094 11.7209 258.732 10.2642 256.887 10.2642C255.47 10.2642 254.958 11.1293 254.695 11.6016H254.605V7.81818H253.119V18ZM254.575 14.1818C254.575 12.5859 255.271 11.527 256.569 11.527C257.916 11.527 258.592 12.6655 258.592 14.1818C258.592 15.7131 257.896 16.8814 256.569 16.8814C255.291 16.8814 254.575 15.7876 254.575 14.1818ZM265.054 18.1541C266.72 18.1541 267.898 17.3338 268.236 16.0909L266.829 15.8374C266.561 16.5582 265.914 16.9261 265.069 16.9261C263.796 16.9261 262.941 16.1009 262.901 14.6293H268.33V14.1023C268.33 11.343 266.68 10.2642 264.95 10.2642C262.822 10.2642 261.42 11.8849 261.42 14.2315C261.42 16.603 262.802 18.1541 265.054 18.1541ZM262.906 13.5156C262.966 12.4318 263.752 11.4922 264.96 11.4922C266.113 11.4922 266.869 12.3473 266.874 13.5156H262.906ZM273.544 10.3636H271.978V8.53409H270.492V10.3636H269.373V11.5568H270.492V16.0661C270.487 17.4531 271.546 18.1243 272.719 18.0994C273.191 18.0945 273.51 18.005 273.684 17.9403L273.415 16.7124C273.316 16.7322 273.132 16.777 272.893 16.777C272.411 16.777 271.978 16.6179 271.978 15.7578V11.5568H273.544V10.3636ZM277.411 18.169C278.674 18.169 279.385 17.5277 279.668 16.956H279.728V18H281.18V12.929C281.18 10.7067 279.43 10.2642 278.216 10.2642C276.834 10.2642 275.562 10.821 275.064 12.2131L276.461 12.5312C276.68 11.9893 277.237 11.4673 278.236 11.4673C279.196 11.4673 279.688 11.9695 279.688 12.8345V12.8693C279.688 13.4112 279.131 13.4013 277.759 13.5604C276.312 13.7294 274.831 14.1072 274.831 15.8423C274.831 17.3438 275.959 18.169 277.411 18.169ZM277.734 16.9759C276.894 16.9759 276.287 16.598 276.287 15.8622C276.287 15.0668 276.993 14.7834 277.854 14.669C278.336 14.6044 279.479 14.4751 279.693 14.2614V15.2457C279.693 16.1506 278.972 16.9759 277.734 16.9759Z" fill="#652B19"/>
</svg>
