<svg width="304" height="62" viewBox="0 0 304 62" fill="none" xmlns="http://www.w3.org/2000/svg">
<path fill-rule="evenodd" clip-rule="evenodd" d="M23.7044 8C25.5345 8 27.0181 9.48357 27.0181 11.3136C27.0181 12.8019 26.037 14.061 24.6863 14.4794V21.6841L34.8114 27.5299C36.9209 26.315 39.091 25.066 41.1112 23.9049C40.7902 22.5215 41.3897 21.034 42.6834 20.2871C44.2683 19.3721 46.2949 19.9151 47.2099 21.5C48.1249 23.0849 47.5819 25.1115 45.997 26.0265C44.713 26.7679 43.1391 26.5522 42.1012 25.6007C40.0619 26.7729 37.8692 28.0349 35.7398 29.2612V40.9182L41.9549 44.542C42.9866 43.4709 44.6511 43.1964 45.9971 43.9735C47.582 44.8885 48.125 46.9151 47.2099 48.5C46.2949 50.0849 44.2683 50.6279 42.6834 49.7129C41.4533 49.0026 40.8508 47.6227 41.0706 46.2995L34.7227 42.5982C34.7009 42.5855 34.6797 42.572 34.6593 42.5579L24.5887 48.3722V55.492C25.9895 55.8789 27.0181 57.1625 27.0181 58.6864C27.0181 60.5164 25.5345 62 23.7044 62C21.8744 62 20.3908 60.5164 20.3908 58.6864C20.3908 57.2342 21.3249 56.0002 22.6251 55.5525V48.2305L12.8 42.5579C12.777 42.5738 12.7532 42.5887 12.7286 42.6028L6.55056 46.1276C6.85475 47.5017 6.25455 48.9718 4.97101 49.7129C3.38612 50.6279 1.35953 50.0849 0.444496 48.5C-0.470539 46.9151 0.0724837 44.8885 1.65737 43.9735C2.95153 43.2263 4.54021 43.4513 5.57771 44.4219L11.7194 40.9178V29.409L5.3735 25.754C4.33953 26.5733 2.86933 26.7262 1.6574 26.0265C0.0725143 25.1115 -0.470508 23.0849 0.444527 21.5C1.35956 19.9151 3.38615 19.3721 4.97104 20.2871C6.33433 21.0742 6.92674 22.6838 6.48335 24.1272L12.5197 27.6039L22.7226 21.7132V14.4794C21.3719 14.061 20.3908 12.8019 20.3908 11.3136C20.3908 9.48357 21.8744 8 23.7044 8ZM14.4857 28.7362L23.7296 23.3992L32.8455 28.6623C31.9057 29.2037 30.9925 29.73 30.1263 30.2293C28.1233 31.3839 26.3708 32.3946 25.119 33.1167C24.4931 33.4778 23.9924 33.7667 23.6481 33.9653L23.6064 33.9894L14.4857 28.7362ZM33.7762 40.8004L24.5887 46.1048V35.6897L24.6296 35.6661C24.9737 35.4675 25.4744 35.1787 26.1002 34.8177C27.3518 34.0956 29.1041 33.085 31.1069 31.9306C31.9579 31.4401 32.854 30.9236 33.7762 30.3923V40.8004ZM22.6251 45.9631V35.6903L13.6831 30.54V40.8004L22.6251 45.9631Z" fill="#3182CE"/>
<path d="M73.694 49.59C82.3231 49.59 87.5504 44.3144 87.5504 35.5672C87.5504 26.8474 82.3231 21.5991 73.777 21.5991H63.6543V49.59H73.694ZM69.6422 44.5194V26.6697H73.4589C78.7691 26.6697 81.5764 29.3485 81.5764 35.5672C81.5764 41.8132 78.7691 44.5194 73.4451 44.5194H69.6422Z" fill="#171923"/>
<path d="M97.9323 49.9863C101.071 49.9863 103.104 48.6333 104.141 46.6788H104.307V49.59H109.894V35.4305C109.894 30.4282 105.607 28.3235 100.878 28.3235C95.7889 28.3235 92.4423 30.7289 91.6264 34.5558L97.075 34.9932C97.476 33.5991 98.7344 32.574 100.85 32.574C102.855 32.574 104.003 33.5718 104.003 35.2939V35.3759C104.003 36.7289 102.551 36.9066 98.8589 37.262C94.6549 37.6446 90.8797 39.0387 90.8797 43.7267C90.8797 47.8816 93.8805 49.9863 97.9323 49.9863ZM99.6195 45.9681C97.8079 45.9681 96.508 45.1344 96.508 43.5353C96.508 41.8952 97.877 41.0888 99.9513 40.8018C101.237 40.6241 103.339 40.3235 104.045 39.8588V42.0866C104.045 44.287 102.205 45.9681 99.6195 45.9681Z" fill="#171923"/>
<path d="M125.763 28.5968H121.766V23.5672H115.875V28.5968H112.971V32.9704H115.875V43.9043C115.848 48.0182 118.682 50.0547 122.955 49.877C124.477 49.8223 125.555 49.5216 126.15 49.3303L125.223 44.9977C124.933 45.0524 124.311 45.1891 123.758 45.1891C122.582 45.1891 121.766 44.7517 121.766 43.139V32.9704H125.763V28.5968Z" fill="#171923"/>
<path d="M135.657 49.9863C138.796 49.9863 140.829 48.6333 141.866 46.6788H142.032V49.59H147.619V35.4305C147.619 30.4282 143.332 28.3235 138.603 28.3235C133.514 28.3235 130.167 30.7289 129.351 34.5558L134.8 34.9932C135.201 33.5991 136.459 32.574 138.575 32.574C140.58 32.574 141.728 33.5718 141.728 35.2939V35.3759C141.728 36.7289 140.276 36.9066 136.584 37.262C132.38 37.6446 128.605 39.0387 128.605 43.7267C128.605 47.8816 131.605 49.9863 135.657 49.9863ZM137.344 45.9681C135.533 45.9681 134.233 45.1344 134.233 43.5353C134.233 41.8952 135.602 41.0888 137.676 40.8018C138.962 40.6241 141.064 40.3235 141.77 39.8588V42.0866C141.77 44.287 139.93 45.9681 137.344 45.9681Z" fill="#171923"/>
<path d="M176.677 29.6492H182.416C182.333 24.6606 178.184 21.2164 171.878 21.2164C165.669 21.2164 161.119 24.6059 161.147 29.6902C161.133 33.8178 164.079 36.1822 168.864 37.3166L171.947 38.082C175.031 38.82 176.746 39.6948 176.76 41.5809C176.746 43.631 174.782 45.0251 171.74 45.0251C168.628 45.0251 166.388 43.6036 166.195 40.8018H160.4C160.552 46.8565 164.936 49.9863 171.809 49.9863C178.723 49.9863 182.789 46.7198 182.803 41.5945C182.789 36.9339 179.235 34.4601 174.312 33.3667L171.768 32.7654C169.306 32.205 167.246 31.303 167.287 29.2939C167.287 27.4898 168.905 26.164 171.837 26.164C174.699 26.164 176.456 27.4487 176.677 29.6492Z" fill="#171923"/>
<path d="M198.018 28.5968H194.022V23.5672H188.13V28.5968H185.226V32.9704H188.13V43.9043C188.103 48.0182 190.938 50.0547 195.211 49.877C196.732 49.8223 197.811 49.5216 198.405 49.3303L197.479 44.9977C197.188 45.0524 196.566 45.1891 196.013 45.1891C194.837 45.1891 194.022 44.7517 194.022 43.139V32.9704H198.018V28.5968Z" fill="#171923"/>
<path d="M207.913 49.9863C211.052 49.9863 213.084 48.6333 214.122 46.6788H214.288V49.59H219.874V35.4305C219.874 30.4282 215.587 28.3235 210.858 28.3235C205.769 28.3235 202.422 30.7289 201.607 34.5558L207.055 34.9932C207.456 33.5991 208.715 32.574 210.83 32.574C212.836 32.574 213.983 33.5718 213.983 35.2939V35.3759C213.983 36.7289 212.531 36.9066 208.839 37.262C204.635 37.6446 200.86 39.0387 200.86 43.7267C200.86 47.8816 203.861 49.9863 207.913 49.9863ZM209.6 45.9681C207.788 45.9681 206.488 45.1344 206.488 43.5353C206.488 41.8952 207.857 41.0888 209.932 40.8018C211.218 40.6241 213.32 40.3235 214.025 39.8588V42.0866C214.025 44.287 212.186 45.9681 209.6 45.9681Z" fill="#171923"/>
<path d="M235.743 28.5968H231.746V23.5672H225.855V28.5968H222.951V32.9704H225.855V43.9043C225.828 48.0182 228.663 50.0547 232.936 49.877C234.457 49.8223 235.535 49.5216 236.13 49.3303L235.204 44.9977C234.913 45.0524 234.291 45.1891 233.738 45.1891C232.562 45.1891 231.746 44.7517 231.746 43.139V32.9704H235.743V28.5968Z" fill="#171923"/>
<path d="M239.58 49.59H245.471V28.5968H239.58V49.59ZM242.54 25.8907C244.296 25.8907 245.734 24.5649 245.734 22.9385C245.734 21.3257 244.296 20 242.54 20C240.797 20 239.359 21.3257 239.359 22.9385C239.359 24.5649 240.797 25.8907 242.54 25.8907Z" fill="#171923"/>
<path d="M259.788 50C266.232 50 270.242 45.6401 270.242 39.1754C270.242 32.6697 266.232 28.3235 259.788 28.3235C253.343 28.3235 249.333 32.6697 249.333 39.1754C249.333 45.6401 253.343 50 259.788 50ZM259.815 45.4898C256.842 45.4898 255.321 42.7973 255.321 39.1344C255.321 35.4715 256.842 32.7654 259.815 32.7654C262.733 32.7654 264.254 35.4715 264.254 39.1344C264.254 42.7973 262.733 45.4898 259.815 45.4898Z" fill="#171923"/>
<path d="M279.964 37.4533C279.978 34.7472 281.609 33.1617 283.988 33.1617C286.353 33.1617 287.777 34.6925 287.763 37.262V49.59H293.654V36.2232C293.654 31.3303 290.75 28.3235 286.325 28.3235C283.172 28.3235 280.89 29.8542 279.936 32.3007H279.687V28.5968H274.073V49.59H279.964V37.4533Z" fill="#171923"/>
<rect x="251" width="52.5317" height="24" rx="12" fill="#FEEBCB"/>
<path d="M261 17.804H262.683V16.4265H262.827C263.138 16.9914 263.772 17.9769 265.386 17.9769C267.53 17.9769 269.086 16.2594 269.086 13.3948C269.086 10.5245 267.507 8.83574 265.369 8.83574C263.726 8.83574 263.133 9.83862 262.827 10.3862H262.723V6H261V17.804ZM262.689 13.3775C262.689 11.5274 263.496 10.2997 265 10.2997C266.562 10.2997 267.346 11.6196 267.346 13.3775C267.346 15.1527 266.539 16.5072 265 16.5072C263.519 16.5072 262.689 15.2392 262.689 13.3775Z" fill="#652B19"/>
<path d="M274.837 17.9827C276.768 17.9827 278.134 17.0317 278.526 15.5908L276.895 15.2968C276.584 16.1326 275.834 16.5591 274.854 16.5591C273.379 16.5591 272.388 15.6023 272.341 13.8963H278.635V13.2853C278.635 10.0865 276.722 8.83574 274.716 8.83574C272.249 8.83574 270.624 10.7147 270.624 13.4352C270.624 16.1844 272.226 17.9827 274.837 17.9827ZM272.347 12.6052C272.416 11.3487 273.327 10.2594 274.728 10.2594C276.065 10.2594 276.941 11.2507 276.947 12.6052H272.347Z" fill="#652B19"/>
<path d="M284.68 8.95101H282.865V6.82997H281.141V8.95101H279.844V10.3343H281.141V15.562C281.135 17.17 282.363 17.9481 283.723 17.9193C284.271 17.9135 284.64 17.8098 284.841 17.7349L284.53 16.3112C284.415 16.3343 284.202 16.3862 283.925 16.3862C283.366 16.3862 282.865 16.2017 282.865 15.2046V10.3343H284.68V8.95101Z" fill="#652B19"/>
<path d="M289.163 18C290.627 18 291.451 17.2565 291.78 16.5937H291.849V17.804H293.532V11.9251C293.532 9.3487 291.503 8.83574 290.097 8.83574C288.494 8.83574 287.019 9.48127 286.442 11.0951L288.062 11.464C288.316 10.8357 288.961 10.2305 290.12 10.2305C291.232 10.2305 291.803 10.8127 291.803 11.8156V11.8559C291.803 12.4841 291.157 12.4726 289.566 12.6571C287.889 12.853 286.171 13.2911 286.171 15.3026C286.171 17.0432 287.48 18 289.163 18ZM289.537 16.6167C288.563 16.6167 287.86 16.1787 287.86 15.3256C287.86 14.4035 288.679 14.0749 289.676 13.9424C290.235 13.8674 291.561 13.7176 291.808 13.4697V14.611C291.808 15.6599 290.973 16.6167 289.537 16.6167Z" fill="#652B19"/>
</svg>
