<svg width="273" height="95" viewBox="0 0 273 95" fill="none" xmlns="http://www.w3.org/2000/svg">
<path d="M39.3311 0.281738H50.4114C72.4689 0.281738 90.3472 21.4182 90.3472 47.4968C90.3472 73.5753 72.4689 94.7118 50.4114 94.7118H39.3311C61.3886 94.7118 79.26 73.5753 79.26 47.4968C79.26 21.425 61.3817 0.281738 39.3311 0.281738Z" fill="#D96D00"/>
<path d="M38.8154 0.281738H49.8957C71.9533 0.281738 89.8316 21.4182 89.8316 47.4968C89.8316 73.5753 71.9533 94.7118 49.8957 94.7118H38.8154C60.8729 94.7118 78.7444 73.5753 78.7444 47.4968C78.7444 21.425 60.8661 0.281738 38.8154 0.281738Z" fill="url(#paint0_linear)"/>
<path d="M78.3457 40.8776H89.426C89.3985 40.6302 89.371 40.3827 89.3367 40.1353H78.2563C78.2907 40.3827 78.3182 40.637 78.3457 40.8776Z" fill="#F5C491"/>
<path d="M87.9414 33.1445H76.8611C76.9298 33.392 76.9917 33.6394 77.0535 33.8869H88.1338C88.072 33.6394 88.0101 33.392 87.9414 33.1445Z" fill="#F5C491"/>
<path d="M78.7444 47.5035C78.7444 47.6272 78.7375 47.751 78.7375 47.8747H89.8179C89.8179 47.751 89.8247 47.6272 89.8247 47.5035C89.8247 47.3798 89.8179 47.256 89.8179 47.1323H78.7375C78.7375 47.256 78.7444 47.3798 78.7444 47.5035Z" fill="#F5C491"/>
<path d="M87.1097 30.3884C87.0273 30.1409 86.9448 29.8934 86.8623 29.646H75.782C75.8645 29.8934 75.947 30.1409 76.0294 30.3884H87.1097Z" fill="#F5C491"/>
<path d="M74.7508 26.8962H85.8311C85.728 26.6487 85.618 26.4013 85.508 26.1538H74.4277C74.5377 26.4013 74.6477 26.6487 74.7508 26.8962Z" fill="#F5C491"/>
<path d="M89.7285 44.3761C89.7148 44.1287 89.701 43.8812 89.6804 43.6338H78.6001C78.6138 43.8812 78.6345 44.1287 78.6482 44.3761H89.7285Z" fill="#F5C491"/>
<path d="M73.1493 71.6025C73.0256 71.85 72.895 72.0975 72.7712 72.3449H83.8515C83.9821 72.0975 84.1059 71.85 84.2296 71.6025H73.1493Z" fill="#F5C491"/>
<path d="M82.2842 75.1011H71.2039C71.0527 75.3485 70.9083 75.596 70.7502 75.8434H81.8305C81.9886 75.596 82.133 75.3485 82.2842 75.1011Z" fill="#F5C491"/>
<path d="M89.426 54.1226H78.3457C78.3182 54.37 78.2907 54.6175 78.2563 54.8649H89.3367C89.371 54.6175 89.3985 54.37 89.426 54.1226Z" fill="#F5C491"/>
<path d="M88.7524 58.3639C88.8005 58.1165 88.8487 57.869 88.8968 57.6216H77.8165C77.7684 57.869 77.7202 58.1165 77.6721 58.3639H88.7524Z" fill="#F5C491"/>
<path d="M65.2927 82.8341H76.373C76.6067 82.5867 76.8404 82.3461 77.0673 82.0918H65.987C65.7533 82.3461 65.5264 82.5936 65.2927 82.8341Z" fill="#F5C491"/>
<path d="M87.1097 64.6123H76.0294C75.947 64.8598 75.8645 65.1072 75.782 65.3546H86.8623C86.9517 65.1072 87.0273 64.8598 87.1097 64.6123Z" fill="#F5C491"/>
<path d="M77.0535 61.1138C76.9917 61.3612 76.9298 61.6087 76.8611 61.8561H87.9414C88.0101 61.6087 88.072 61.3612 88.1338 61.1138H77.0535Z" fill="#F5C491"/>
<path d="M78.6001 51.3664H89.6804C89.6941 51.1189 89.7148 50.8715 89.7285 50.624H78.6482C78.6345 50.8715 78.6207 51.1189 78.6001 51.3664Z" fill="#F5C491"/>
<path d="M76.373 12.166H65.2927C65.5264 12.4066 65.7533 12.654 65.987 12.9084H77.0673C76.8336 12.6609 76.6067 12.4135 76.373 12.166Z" fill="#F5C491"/>
<path d="M68.3035 15.665C68.4891 15.9056 68.6678 16.1599 68.8533 16.4074H79.9337C79.7481 16.1599 79.5694 15.9056 79.3838 15.665H68.3035Z" fill="#F5C491"/>
<path d="M61.8078 2.4196C61.0654 2.14465 60.3093 1.90408 59.5464 1.67725H48.4661C49.229 1.90408 49.9851 2.14465 50.7275 2.4196H61.8078Z" fill="#F5C491"/>
<path d="M85.508 68.8463C85.6112 68.5989 85.728 68.3515 85.8311 68.104H74.7508C74.6477 68.3515 74.5377 68.5989 74.4277 68.8463H85.508Z" fill="#F5C491"/>
<path d="M73.4928 9.41667C73.2042 9.16235 72.9086 8.92177 72.613 8.67432H61.5327C61.8283 8.91489 62.1238 9.16235 62.4125 9.41667H73.4928Z" fill="#F5C491"/>
<path d="M70.7502 19.1636C70.9015 19.4042 71.0527 19.6585 71.2039 19.9059H82.2842C82.133 19.6585 81.9886 19.411 81.8305 19.1636H70.7502Z" fill="#F5C491"/>
<path d="M68.819 5.91814C68.4134 5.66381 68.0079 5.41636 67.5955 5.17578H56.5151C56.9276 5.41636 57.3331 5.66381 57.7386 5.91814H68.819Z" fill="#F5C491"/>
<path d="M57.7386 89.0825C57.3331 89.3437 56.9276 89.5843 56.5151 89.8249H67.5955C68.0079 89.5843 68.4134 89.3437 68.819 89.0825H57.7386Z" fill="#F5C491"/>
<path d="M50.7275 92.5811C49.9851 92.856 49.229 93.0966 48.4661 93.3234H59.5464C60.3093 93.0966 61.0654 92.856 61.8078 92.5811H50.7275Z" fill="#F5C491"/>
<path d="M62.4057 85.5903C62.117 85.8447 61.8214 86.0852 61.5259 86.3327H72.6062C72.9018 86.0921 73.1973 85.8447 73.486 85.5903H62.4057Z" fill="#F5C491"/>
<path d="M72.7712 22.6553C72.9018 22.9027 73.0256 23.1502 73.1493 23.3976H84.2296C84.1059 23.1502 83.9753 22.9027 83.8515 22.6553H72.7712Z" fill="#F5C491"/>
<path d="M77.6721 36.6431C77.7202 36.8905 77.7684 37.138 77.8165 37.3854H88.8968C88.8487 37.138 88.8005 36.8905 88.7524 36.6431H77.6721Z" fill="#F5C491"/>
<path d="M68.8533 78.5928C68.6678 78.8402 68.4891 79.0945 68.3035 79.3351H79.3838C79.5694 79.0945 79.7481 78.8402 79.9337 78.5928H68.8533Z" fill="#F5C491"/>
<path d="M39.929 94.7186C61.9811 94.7186 79.8579 73.5798 79.8579 47.5036C79.8579 21.4275 61.9811 0.288574 39.929 0.288574C17.8768 0.288574 0 21.4275 0 47.5036C0 73.5798 17.8768 94.7186 39.929 94.7186Z" fill="url(#paint1_linear)"/>
<g opacity="0.3">
<path opacity="0.3" d="M39.9289 0.281738C32.0173 0.281738 24.6419 3.01745 18.4419 7.71214L68.647 80.2909C75.5893 71.7951 79.8647 60.2405 79.8647 47.4968C79.8647 47.2631 79.851 47.0362 79.851 46.8094L48.411 1.36089C45.6684 0.659783 42.8364 0.281738 39.9289 0.281738Z" fill="white"/>
<path opacity="0.3" d="M6.46114 21.748C2.84561 28.2986 0.577308 35.9696 0.103027 44.2317L34.7393 94.3062C36.4371 94.5674 38.1692 94.7186 39.9289 94.7186C45.1254 94.7186 50.0881 93.5295 54.6385 91.3986L6.46114 21.748Z" fill="white"/>
</g>
<path opacity="0.6" d="M80.8066 47.5036C80.8066 21.425 62.9282 0.288574 40.8776 0.288574C40.7195 0.288574 40.5614 0.302324 40.4033 0.302324C62.2409 0.604765 79.858 21.6175 79.858 47.5036C79.858 73.3966 62.234 94.4025 40.4033 94.7049C40.5614 94.7049 40.7195 94.7186 40.8776 94.7186C62.9282 94.7186 80.8066 73.5822 80.8066 47.5036Z" fill="white"/>
<path opacity="0.6" d="M39.331 12.3999C22.9305 12.3999 9.6438 28.113 9.6438 47.5036C9.6438 66.8872 22.9305 82.6073 39.331 82.6073C55.7316 82.6073 69.0183 66.8872 69.0183 47.5036C69.0183 28.113 55.7316 12.3999 39.331 12.3999Z" fill="white"/>
<path d="M39.9289 12.3999C23.5284 12.3999 10.2417 28.113 10.2417 47.5036C10.2417 66.8872 23.5284 82.6073 39.9289 82.6073C56.3295 82.6073 69.6162 66.8872 69.6162 47.5036C69.6093 28.113 56.3226 12.3999 39.9289 12.3999Z" fill="#F28500"/>
<path d="M14.1941 47.504C14.1941 28.904 26.4292 13.6926 41.9017 12.4897C41.2487 12.4416 40.5889 12.4072 39.9221 12.4072C23.5216 12.4072 10.2349 28.1204 10.2349 47.5109C10.2349 66.8946 23.5216 82.6146 39.9221 82.6146C40.5889 82.6146 41.2419 82.5802 41.9017 82.5252C26.4292 81.3155 14.1941 66.0972 14.1941 47.504Z" fill="#D96D00"/>
<path d="M45.8786 42.4295C46.3063 41.0262 46.6872 39.6258 47.0625 38.2461C47.092 38.1375 47.1215 38.0291 47.151 37.9209C47.6041 36.2566 48.0538 34.6238 48.5769 33.0313C49.0054 32.0265 49.721 31.0114 50.4348 30.288L50.0877 29.9455L50.4348 30.288C50.8791 29.8378 51.3428 29.6837 51.7543 29.724C52.171 29.7649 52.6213 30.014 53.0116 30.5415L53.0327 30.57L53.0576 30.5952C53.2668 30.8071 53.4426 31.0205 53.6336 31.2528L53.6388 31.2591C53.8253 31.4859 54.0269 31.731 54.2702 31.9776C54.6293 32.3415 55.0611 32.5973 55.5281 32.6762C56.0053 32.7568 56.486 32.6456 56.8991 32.3317L56.9274 32.3101L56.9524 32.2848C57.2794 31.9534 57.4211 31.5338 57.487 31.1554C57.5513 30.7861 57.5513 30.4043 57.5513 30.1069L57.5513 30.0904C57.5513 29.7821 57.4046 29.5241 57.2894 29.3607C57.1746 29.1979 57.0421 29.0621 56.9655 28.9845C55.9398 27.7824 54.43 27.2892 52.971 27.2864C49.5694 27.1265 47.3084 28.795 45.433 31.3289C43.5585 33.8618 42.7795 36.7034 42.0281 39.4449L42.0251 39.4556C41.8688 39.856 41.752 40.2523 41.6401 40.649C41.6209 40.7174 41.6018 40.7857 41.5826 40.8541C41.5216 41.072 41.4603 41.2913 41.392 41.5183L32.8677 40.347L32.3655 40.278L32.3034 40.7811L32.0003 43.2387L31.9412 43.7174L32.4175 43.7936L40.5326 45.0921L39.6882 48.8814L31.8116 47.7204L31.3092 47.6464L31.2429 48.1498L30.9398 50.4538L30.8759 50.9393L31.3599 51.0133L38.9689 52.1772L38.9689 52.3113C38.3424 55.3518 37.6132 58.2873 36.8637 61.3042C36.7124 61.9132 36.5602 62.5256 36.408 63.1428C35.9674 64.7777 35.2488 66.3543 33.9964 67.4901C33.4695 67.8858 32.9987 68.0099 32.6014 67.9562C32.2101 67.9033 31.7985 67.6656 31.4081 67.1513C31.0794 66.4989 30.6022 65.8587 30.1241 65.3741L30.0407 65.2896L29.9282 65.2516C29.6745 65.1659 29.3401 65.081 29.0205 65.0378C28.8605 65.0162 28.6924 65.0034 28.5334 65.0097C28.3835 65.0157 28.1958 65.0399 28.0265 65.1257L27.9986 65.1399L27.9726 65.1574C27.6375 65.3838 27.3979 65.7466 27.244 66.1032C27.0873 66.4662 26.9946 66.879 26.9946 67.2613C26.9946 67.6373 27.1708 68.0065 27.366 68.2922C27.5647 68.5831 27.8295 68.8555 28.1085 69.0473C29.6252 70.2342 31.6021 70.377 33.3391 70.0581C36.4046 69.5656 38.6517 67.597 39.9224 64.8607L39.9239 64.8574C40.8424 62.8406 41.6063 60.6731 42.3614 58.5307C42.7532 57.5748 43.0245 56.549 43.2705 55.5326C43.3252 55.3067 43.3785 55.0817 43.4316 54.8577C43.5872 54.2013 43.7407 53.5539 43.9194 52.9193L51.9777 54.0859L52.4194 54.1498L52.5329 53.7183L53.1392 51.4143L53.2821 50.8711L52.7261 50.792L44.6025 49.6366L45.329 45.7106L52.8832 46.8661L53.3279 46.9342L53.4424 46.4991L54.0486 44.1951L54.1909 43.6547L53.638 43.5732L45.8786 42.4295Z" fill="#D96D00" stroke="#D96D00" stroke-linecap="round"/>
<path opacity="0.5" d="M44.507 40.8071C44.9332 39.4307 45.313 38.0572 45.6872 36.7041C45.7167 36.5974 45.7462 36.4907 45.7757 36.3842C46.2287 34.7474 46.6783 33.1419 47.2012 31.5761C47.629 30.5895 48.3437 29.5921 49.0572 28.881L48.7042 28.5269L49.0572 28.881C49.5006 28.439 49.9655 28.2858 50.3803 28.3258C50.7999 28.3663 51.2502 28.6126 51.6392 29.1297L51.6606 29.1581L51.6858 29.1832C51.8948 29.3914 52.0705 29.6012 52.2615 29.8296L52.2667 29.8359C52.4532 30.0589 52.6549 30.3002 52.8984 30.5429C53.2581 30.9015 53.6895 31.1524 54.1546 31.2297C54.6293 31.3085 55.1082 31.2001 55.5212 30.8914L55.5496 30.8701L55.5748 30.8451C55.9031 30.5178 56.0457 30.1027 56.112 29.7283C56.1766 29.3637 56.1765 28.9869 56.1765 28.6946L56.1765 28.678C56.1765 28.3696 56.0276 28.1131 55.9124 27.9524C55.7973 27.7917 55.6645 27.6579 55.588 27.5816C54.5614 26.3984 53.0524 25.9144 51.596 25.9118C48.1984 25.7545 45.9376 27.3936 44.0606 29.8881C42.1849 32.381 41.4054 35.178 40.654 37.8744L40.6512 37.8847C40.4946 38.279 40.3778 38.6691 40.266 39.0592C40.2467 39.1265 40.2276 39.1937 40.2084 39.261C40.1478 39.4742 40.0867 39.6887 40.019 39.9106L31.4919 38.7581L30.9916 38.6905L30.9288 39.1914L30.6257 41.6087L30.5654 42.0895L31.044 42.1648L39.1557 43.4415L38.3148 47.153L30.4356 46.0107L29.9353 45.9381L29.8683 46.4392L29.5652 48.7054L29.5 49.193L29.9864 49.2661L37.5941 50.4107L37.5941 50.5329C36.9678 53.5227 36.2387 56.4093 35.4894 59.3761C35.3381 59.9752 35.186 60.5775 35.0337 61.1846C34.5936 62.7906 33.8761 64.3394 32.6248 65.4556C32.0982 65.8446 31.6258 65.9679 31.2255 65.9148C30.8318 65.8624 30.4205 65.6277 30.0314 65.1238C29.7022 64.4812 29.2246 63.8512 28.7464 63.3746L28.663 63.2914L28.5511 63.2542C28.2977 63.17 27.9638 63.0866 27.6446 63.0442C27.485 63.023 27.3174 63.0104 27.159 63.0166C27.0097 63.0225 26.8232 63.0462 26.6547 63.1301L26.6269 63.144L26.601 63.1612C26.2656 63.3841 26.0251 63.7419 25.8705 64.0943C25.7131 64.4528 25.6199 64.8609 25.6199 65.2395C25.6199 65.6141 25.7981 65.98 25.9934 66.2613C26.1927 66.5483 26.458 66.8165 26.7369 67.0052C28.253 68.172 30.2279 68.3121 31.9631 67.9987C35.0255 67.5148 37.2738 65.5798 38.5463 62.8846L38.5478 62.8812C39.4666 60.8971 40.2307 58.7646 40.9856 56.6576C41.3778 55.7164 41.6493 54.7066 41.8953 53.7069C41.95 53.4845 42.0034 53.263 42.0565 53.0426C42.2118 52.3983 42.3649 51.7632 42.5431 51.1405L50.6041 52.2883L51.0431 52.3508L51.1576 51.9225L51.7639 49.6563L51.91 49.1102L51.3502 49.0319L43.2295 47.8959L43.953 44.05L51.5097 45.187L51.9516 45.2534L52.0671 44.8217L52.6734 42.5555L52.8187 42.0122L52.2621 41.9315L44.507 40.8071Z" fill="white" stroke="white" stroke-linecap="round"/>
<path d="M43.0934 41.0834C43.4539 39.8868 43.7832 38.6961 44.1065 37.5269C44.1363 37.4195 44.1659 37.3122 44.1956 37.2051C44.6468 35.5748 45.0912 33.9881 45.6065 32.4429C46.0074 31.5268 46.6791 30.5895 47.3481 29.9226L46.6565 29.2288L47.3481 29.9226C47.7044 29.5675 48.028 29.4876 48.2703 29.511C48.5221 29.5353 48.8544 29.6881 49.1777 30.1178L49.2204 30.1746L49.2708 30.2248C49.4614 30.4147 49.6233 30.6075 49.8159 30.8378L49.8253 30.8492C50.0096 31.0696 50.2237 31.3257 50.4834 31.5845C50.8998 31.9996 51.4215 32.3125 52.0107 32.4104C52.6189 32.5115 53.2358 32.3702 53.7585 31.9794L53.8154 31.9368L53.8657 31.8867C54.295 31.4588 54.4666 30.9307 54.5424 30.5029C54.6147 30.0942 54.6146 29.6796 54.6145 29.3932L54.6145 29.3655C54.6145 28.8999 54.3924 28.5378 54.2568 28.3486C54.1232 28.1621 53.9728 28.0087 53.8914 27.9273C52.7483 26.6198 51.0953 26.1045 49.5461 26.0993C45.9338 25.9359 43.5344 27.7029 41.5991 30.275C39.6664 32.8436 38.8652 35.7186 38.1196 38.3947L38.1145 38.4128C37.9533 38.823 37.8335 39.2246 37.7233 39.6089C37.7035 39.678 37.6841 39.7464 37.6647 39.8145C37.6427 39.8917 37.6209 39.9684 37.5988 40.0451L29.4968 38.9501L28.4963 38.8149L28.3707 39.8167L28.0675 42.234L27.9469 43.1956L28.9043 43.3462L36.4879 44.5398L35.8673 47.2794L28.4454 46.2033L27.4448 46.0583L27.3107 47.0604L27.0076 49.3266L26.8771 50.3017L27.85 50.4481L34.9583 51.5175C34.3536 54.3544 33.659 57.1046 32.9433 59.9384C32.7923 60.5364 32.6403 61.1381 32.4881 61.7451C32.063 63.2941 31.3861 64.7301 30.2474 65.7544C29.8032 66.0774 29.4642 66.1378 29.2294 66.1066C29.0044 66.0767 28.7117 65.941 28.3919 65.5398C28.0375 64.8614 27.5381 64.207 27.0374 63.708L26.8705 63.5415L26.6468 63.4672C26.3673 63.3744 26.0025 63.2831 25.6485 63.2361C25.4712 63.2125 25.2734 63.1969 25.0774 63.2045C24.8998 63.2115 24.6308 63.24 24.3697 63.3701L24.314 63.3978L24.2623 63.4322C23.8188 63.7269 23.5274 64.1781 23.3506 64.5808C23.1685 64.9956 23.0579 65.4719 23.0579 65.927C23.0579 66.4495 23.3006 66.917 23.5207 67.234C23.749 67.5626 24.0522 67.8724 24.3818 68.098C26.0492 69.3743 28.1801 69.5041 29.9844 69.1793C33.2294 68.6647 35.604 66.6076 36.9364 63.7856L36.9395 63.7788C37.8676 61.7745 38.6379 59.6248 39.3901 57.5255C39.7954 56.5499 40.073 55.5127 40.3188 54.5139C40.3749 54.2859 40.4291 54.0608 40.4828 53.8383C40.6023 53.3426 40.7187 52.8595 40.8458 52.385L48.4716 53.4708L49.3495 53.5958L49.5786 52.7393L50.1849 50.4731L50.4771 49.3809L49.3575 49.2243L41.7558 48.1608L42.2932 45.3037L49.3733 46.3689L50.2571 46.5019L50.4881 45.6385L51.0944 43.3723L51.3851 42.2856L50.2718 42.1242L43.0934 41.0834Z" fill="#FBB708" stroke="#FBB908" stroke-width="2" stroke-linecap="round"/>
<path d="M107.187 6.63636V27H111.364V13.696H111.533L116.802 26.9006H119.646L124.916 13.7457H125.085V27H129.261V6.63636H123.952L118.344 20.3182H118.105L112.497 6.63636H107.187ZM132.729 27H136.965V11.7273H132.729V27ZM134.857 9.75852C136.12 9.75852 137.154 8.79403 137.154 7.61079C137.154 6.4375 136.12 5.47301 134.857 5.47301C133.604 5.47301 132.57 6.4375 132.57 7.61079C132.57 8.79403 133.604 9.75852 134.857 9.75852ZM144.594 18.1705C144.604 16.2017 145.777 15.0483 147.487 15.0483C149.187 15.0483 150.212 16.1619 150.202 18.0312V27H154.437V17.2756C154.437 13.7159 152.349 11.5284 149.167 11.5284C146.9 11.5284 145.26 12.642 144.574 14.4219H144.395V11.7273H140.358V27H144.594V18.1705ZM164.736 27.2983C168.514 27.2983 171.06 25.4588 171.656 22.625L167.739 22.3665C167.311 23.5298 166.218 24.1364 164.806 24.1364C162.688 24.1364 161.345 22.7344 161.345 20.4574V20.4474H171.746V19.2841C171.746 14.0938 168.604 11.5284 164.567 11.5284C160.073 11.5284 157.159 14.7202 157.159 19.4332C157.159 24.2756 160.033 27.2983 164.736 27.2983ZM161.345 17.8224C161.435 16.0824 162.757 14.6903 164.637 14.6903C166.476 14.6903 167.749 16.0028 167.759 17.8224H161.345ZM174.51 27H178.746V18.3594C178.746 16.4801 180.118 15.1875 181.987 15.1875C182.574 15.1875 183.379 15.2869 183.777 15.4162V11.6577C183.399 11.5682 182.872 11.5085 182.445 11.5085C180.735 11.5085 179.333 12.5028 178.776 14.392H178.617V11.7273H174.51V27Z" fill="#2A4365"/>
<path d="M108.014 40.6364V61H110.937V46.2543H111.126L117.132 60.9702H119.558L125.564 46.2642H125.753V61H128.676V40.6364H124.947L118.464 56.4659H118.226L111.743 40.6364H108.014ZM137.349 61.3381C139.875 61.3381 141.296 60.0554 141.863 58.9119H141.982V61H144.886V50.858C144.886 46.4134 141.386 45.5284 138.96 45.5284C136.196 45.5284 133.65 46.642 132.656 49.4261L135.45 50.0625C135.887 48.9787 137.001 47.9347 139 47.9347C140.919 47.9347 141.903 48.9389 141.903 50.669V50.7386C141.903 51.8224 140.789 51.8026 138.045 52.1207C135.152 52.4588 132.188 53.2145 132.188 56.6847C132.188 59.6875 134.446 61.3381 137.349 61.3381ZM137.995 58.9517C136.315 58.9517 135.102 58.196 135.102 56.7244C135.102 55.1335 136.514 54.5668 138.234 54.3381C139.198 54.2088 141.485 53.9503 141.913 53.5227V55.4915C141.913 57.3011 140.471 58.9517 137.995 58.9517ZM148.846 61H151.819V51.6733C151.819 49.6747 153.36 48.233 155.468 48.233C156.084 48.233 156.78 48.3423 157.019 48.4119V45.5682C156.721 45.5284 156.134 45.4986 155.756 45.4986C153.966 45.4986 152.435 46.5128 151.878 48.1534H151.719V45.7273H148.846V61ZM159.592 61H162.565V55.581L164.046 54.0994L169.237 61H172.886L166.284 52.2798L172.468 45.7273H168.909L162.823 52.1903H162.565V40.6364H159.592V61ZM181.131 61.3082C184.462 61.3082 186.819 59.6676 187.495 57.1818L184.681 56.6747C184.144 58.1165 182.851 58.8523 181.161 58.8523C178.616 58.8523 176.905 57.2017 176.826 54.2585H187.684V53.2045C187.684 47.6861 184.383 45.5284 180.922 45.5284C176.667 45.5284 173.863 48.7699 173.863 53.4631C173.863 58.206 176.627 61.3082 181.131 61.3082ZM176.836 52.0312C176.955 49.8636 178.526 47.9844 180.942 47.9844C183.249 47.9844 184.761 49.6946 184.77 52.0312H176.836ZM198.112 45.7273H194.98V42.0682H192.007V45.7273H189.769V48.1136H192.007V57.1321C191.997 59.9062 194.115 61.2486 196.461 61.1989C197.406 61.1889 198.042 61.0099 198.39 60.8807L197.853 58.4247C197.654 58.4645 197.286 58.554 196.809 58.554C195.845 58.554 194.98 58.2358 194.98 56.5156V48.1136H198.112V45.7273ZM201.4 66.7273H204.373V58.6236H204.552C205.089 59.598 206.183 61.2983 208.967 61.2983C212.666 61.2983 215.351 58.3352 215.351 53.3935C215.351 48.4418 212.626 45.5284 208.937 45.5284C206.104 45.5284 205.079 47.2585 204.552 48.2031H204.304V45.7273H201.4V66.7273ZM204.314 53.3636C204.314 50.1719 205.706 48.054 208.301 48.054C210.996 48.054 212.348 50.331 212.348 53.3636C212.348 56.4261 210.956 58.7628 208.301 58.7628C205.746 58.7628 204.314 56.5753 204.314 53.3636ZM221.655 40.6364H218.682V61H221.655V40.6364ZM230.099 61.3381C232.625 61.3381 234.046 60.0554 234.613 58.9119H234.732V61H237.636V50.858C237.636 46.4134 234.136 45.5284 231.71 45.5284C228.946 45.5284 226.4 46.642 225.406 49.4261L228.2 50.0625C228.637 48.9787 229.751 47.9347 231.75 47.9347C233.669 47.9347 234.653 48.9389 234.653 50.669V50.7386C234.653 51.8224 233.539 51.8026 230.795 52.1207C227.902 52.4588 224.938 53.2145 224.938 56.6847C224.938 59.6875 227.196 61.3381 230.099 61.3381ZM230.745 58.9517C229.065 58.9517 227.852 58.196 227.852 56.7244C227.852 55.1335 229.264 54.5668 230.984 54.3381C231.948 54.2088 234.235 53.9503 234.663 53.5227V55.4915C234.663 57.3011 233.221 58.9517 230.745 58.9517ZM248.029 61.3082C251.638 61.3082 253.975 59.1406 254.303 56.1676H251.41C251.032 57.8182 249.749 58.7926 248.049 58.7926C245.533 58.7926 243.913 56.6946 243.913 53.3636C243.913 50.0923 245.563 48.0341 248.049 48.0341C249.938 48.0341 251.091 49.2273 251.41 50.6591H254.303C253.985 47.5767 251.469 45.5284 247.999 45.5284C243.694 45.5284 240.91 48.7699 240.91 53.4332C240.91 58.0369 243.594 61.3082 248.029 61.3082ZM264.065 61.3082C267.396 61.3082 269.752 59.6676 270.428 57.1818L267.615 56.6747C267.078 58.1165 265.785 58.8523 264.095 58.8523C261.549 58.8523 259.839 57.2017 259.759 54.2585H270.617V53.2045C270.617 47.6861 267.316 45.5284 263.856 45.5284C259.6 45.5284 256.796 48.7699 256.796 53.4631C256.796 58.206 259.561 61.3082 264.065 61.3082ZM259.769 52.0312C259.889 49.8636 261.46 47.9844 263.876 47.9844C266.183 47.9844 267.694 49.6946 267.704 52.0312H259.769Z" fill="#2B6CB0"/>
<rect x="105.347" y="68" width="59" height="27" rx="13.5" fill="#FEEBCB"/>
<path d="M118.581 87H120.604V85.625H120.723C121.047 86.2614 121.723 87.1534 123.223 87.1534C125.28 87.1534 126.819 85.5227 126.819 82.6477C126.819 79.7386 125.234 78.1591 123.217 78.1591C121.677 78.1591 121.035 79.0852 120.723 79.7159H120.638V75.3636H118.581V87ZM120.598 82.6364C120.598 80.9432 121.325 79.8466 122.649 79.8466C124.018 79.8466 124.723 81.0114 124.723 82.6364C124.723 84.2727 124.007 85.4659 122.649 85.4659C121.337 85.4659 120.598 84.3295 120.598 82.6364ZM132.432 87.1705C134.466 87.1705 135.864 86.1761 136.227 84.6591L134.307 84.4432C134.028 85.1818 133.346 85.5682 132.46 85.5682C131.131 85.5682 130.25 84.6932 130.233 83.1989H136.312V82.5682C136.312 79.5057 134.471 78.1591 132.324 78.1591C129.824 78.1591 128.193 79.9943 128.193 82.6875C128.193 85.4261 129.801 87.1705 132.432 87.1705ZM130.239 81.8125C130.301 80.6989 131.125 79.7614 132.352 79.7614C133.534 79.7614 134.329 80.625 134.341 81.8125H130.239ZM142.41 78.2727H140.689V76.1818H138.632V78.2727H137.393V79.8636H138.632V84.7159C138.621 86.358 139.814 87.1648 141.359 87.1193C141.944 87.1023 142.348 86.9886 142.569 86.9148L142.223 85.3068C142.109 85.3352 141.876 85.3864 141.621 85.3864C141.104 85.3864 140.689 85.2045 140.689 84.375V79.8636H142.41V78.2727ZM146.642 87.1761C148.011 87.1761 148.829 86.5341 149.204 85.8011H149.273V87H151.25V81.1591C151.25 78.8523 149.369 78.1591 147.704 78.1591C145.869 78.1591 144.46 78.9773 144.006 80.5682L145.926 80.8409C146.131 80.2443 146.71 79.733 147.716 79.733C148.67 79.733 149.193 80.2216 149.193 81.0795V81.1136C149.193 81.7045 148.574 81.733 147.034 81.8977C145.341 82.0795 143.721 82.5852 143.721 84.5511C143.721 86.267 144.977 87.1761 146.642 87.1761ZM147.176 85.6648C146.318 85.6648 145.704 85.2727 145.704 84.517C145.704 83.7273 146.392 83.3977 147.312 83.267C147.852 83.1932 148.932 83.0568 149.199 82.8409V83.8693C149.199 84.8409 148.415 85.6648 147.176 85.6648Z" fill="#7B341E"/>
<defs>
<linearGradient id="paint0_linear" x1="68.267" y1="80.9943" x2="47.2542" y2="7.5724" gradientUnits="userSpaceOnUse">
<stop stop-color="#F28500"/>
<stop offset="1" stop-color="#FBA905"/>
</linearGradient>
<linearGradient id="paint1_linear" x1="24.2733" y1="4.89941" x2="52.7028" y2="82.2774" gradientUnits="userSpaceOnUse">
<stop stop-color="#FBCF0A"/>
<stop offset="1" stop-color="#FBA505"/>
</linearGradient>
</defs>
</svg>
