<svg width="129" height="129" viewBox="0 0 129 129" fill="none" xmlns="http://www.w3.org/2000/svg">
<g clip-path="url(#clip0)">
<path d="M42.8119 93.4576L55.6665 86.0356L50.0415 76.276L44.4165 66.5166L31.4931 73.9737C31.1156 71.9374 30.9165 69.8817 30.9165 67.8108C30.9165 62.8128 32.0543 57.9488 34.1934 53.4537L24.4361 47.7886C21.3278 54.0274 19.6665 60.8121 19.6665 67.8108C19.6665 75.9983 21.8944 83.6609 25.7179 90.2909C33.0516 103.007 46.3654 112.039 61.854 112.998V101.419C54.7568 100.83 48.1496 98.0035 42.8119 93.4576Z" fill="#57D9AD"/>
<path d="M61.8541 112.998V101.418C54.7569 100.83 48.1498 98.0032 42.812 93.4574L55.6666 86.0354L50.0416 76.2759L25.718 90.2906C33.0517 103.007 46.3655 112.039 61.8541 112.998Z" fill="#26BFA6"/>
<path d="M104.926 47.8306L95.1504 53.5015C97.3689 58.1508 98.4165 63.0237 98.4165 67.8106C98.4165 69.8802 98.2178 71.938 97.8386 73.9812L84.9163 66.5166L79.2913 76.276L73.6663 86.0356L86.5328 93.4478C81.1948 97.9979 74.583 100.829 67.479 101.418V112.998C82.9673 112.039 96.2811 103.008 103.615 90.2911C107.439 83.6614 109.667 75.9985 109.667 67.8106C109.667 60.9829 108.113 54.1799 104.926 47.8306Z" fill="#FFEA80"/>
<path d="M104.926 47.8306L95.1504 53.5015C97.3689 58.1508 98.4165 63.0237 98.4165 67.8106C98.4165 69.8802 98.2177 71.938 97.8386 73.9812L84.9163 66.5166L79.2913 76.276L103.615 90.2911C107.439 83.6614 109.666 75.9985 109.666 67.8106C109.666 60.9829 108.113 54.1799 104.926 47.8306Z" fill="#FFCC66"/>
<path d="M64.6664 22.8105C50.2188 22.8105 36.2217 29.601 27.2041 42.8918L36.9916 48.5727C40.7678 43.008 46.6454 38.4415 53.4164 36.0291V50.9355H64.6664H75.9164V36.0291C82.337 38.3166 88.2595 42.6143 92.3412 48.6291L102.129 42.9479C95.1123 31.6439 80.9011 22.8105 64.6664 22.8105Z" fill="#F25555"/>
<path d="M75.9165 36.0291C82.3371 38.3166 88.2596 42.6143 92.3413 48.6291L102.129 42.9479C95.1124 31.6439 80.9012 22.8105 64.6665 22.8105V50.9355H75.9165V36.0291Z" fill="#D93752"/>
<path d="M64.6665 16.998C60.0066 16.998 56.229 20.9631 56.229 25.623C56.229 30.283 60.0066 34.0605 64.6665 34.0605C69.3264 34.0605 73.104 30.283 73.104 25.623C73.104 20.9631 69.3264 16.998 64.6665 16.998Z" fill="#FFE6CC"/>
<path d="M73.104 25.623C73.104 20.9631 69.3264 16.998 64.6665 16.998V34.0605C69.3264 34.0605 73.104 30.283 73.104 25.623Z" fill="#FFCCB3"/>
<path d="M35.8599 84.4467C33.4275 80.233 28.0352 79.1973 24.3823 81.3173C20.3411 83.642 18.9575 88.8089 21.2897 92.842C23.5907 96.8257 28.7381 98.2823 32.817 95.9292C36.6018 93.7488 38.3658 88.7902 35.8599 84.4467Z" fill="#FFE6CC"/>
<path d="M32.8171 95.9293C36.602 93.749 38.366 88.7902 35.86 84.4468L21.2898 92.8421C23.5906 96.8257 28.738 98.2824 32.8171 95.9293Z" fill="#FFCCB3"/>
<path d="M104.95 81.3148C100.74 78.884 95.8353 80.5453 93.4267 84.4207C91.1883 88.0231 92.2477 93.4679 96.515 95.9292C100.604 98.2891 105.756 96.8006 108.042 92.8421C110.347 88.8517 109.04 83.6757 104.95 81.3148Z" fill="#E77B45"/>
<path d="M104.95 81.3147C100.74 78.884 95.8351 80.5453 93.4265 84.4207L108.042 92.842C110.347 88.8517 109.04 83.6757 104.95 81.3147Z" fill="#CC5229"/>
</g>
<defs>
<clipPath id="clip0">
<rect width="96" height="96" fill="white" transform="translate(16.6665 16.998)"/>
</clipPath>
</defs>
</svg>
