<svg width="128" height="129" viewBox="0 0 128 129" fill="none" xmlns="http://www.w3.org/2000/svg">
<path d="M106.272 70.7302C106.235 70.6937 106.198 70.6567 106.162 70.6201C104.132 68.5909 100.844 68.5897 98.8151 70.6193C94.4999 74.9361 87.5518 81.8842 84.5927 84.8438C83.6875 85.7489 82.4655 86.2518 81.1854 86.2518H71.0966C74.4283 86.2343 77.1246 83.5295 77.1246 80.1938C77.1246 76.8471 74.4116 74.1342 71.0649 74.1342H57.9609C54.6991 74.1342 51.5767 75.4545 49.3041 77.7945L41.0906 86.2522H37.9978V106.43H71.6999C75.5406 106.43 79.2237 104.904 81.9398 102.189L106.272 77.8615C108.24 75.8916 108.241 72.6993 106.272 70.7302Z" fill="#FCC4AE"/>
<path d="M106.558 71.0464C106.643 72.4378 106.158 73.8572 105.095 74.9208L80.7636 99.2483C78.0479 101.964 74.3644 103.489 70.5237 103.489H37.9973V106.429H71.6994C75.5401 106.429 79.2231 104.903 81.9393 102.188L106.271 77.8604C108.139 75.9933 108.232 73.0277 106.558 71.0464Z" fill="#F2AD97"/>
<path d="M71.0644 86.253H61.143C60.6559 86.253 60.261 85.8582 60.261 85.3711C60.261 84.884 60.6559 84.4891 61.143 84.4891H69.8887C73.2354 84.4891 75.9483 81.7762 75.9483 78.4295C75.9483 77.5699 75.7667 76.7537 75.4442 76.0127C76.4826 77.1002 77.124 78.5704 77.124 80.1934C77.124 83.5401 74.4111 86.253 71.0644 86.253Z" fill="#F2AD97"/>
<path d="M69.0183 84.0173H70.2472C72.042 84.0173 73.4972 82.5621 73.4972 80.7673V79.6196C73.4972 77.8248 72.042 76.3696 70.2472 76.3696H69.0183C68.5694 76.3696 68.2058 76.7332 68.2058 77.1821V83.2048C68.2058 83.6533 68.5698 84.0173 69.0183 84.0173Z" fill="#FFD2C0"/>
<path d="M35.9662 112.463H22.2825C21.1608 112.463 20.2512 111.553 20.2512 110.431V82.249C20.2512 81.1274 21.1608 80.2178 22.2825 80.2178H35.9662C37.0878 80.2178 37.9974 81.1274 37.9974 82.249V110.431C37.9974 111.553 37.0883 112.463 35.9662 112.463Z" fill="#478CF7"/>
<path d="M22.6892 102.713C22.2407 102.713 21.8767 102.349 21.8767 101.9V86.0564C21.8767 85.6079 22.2407 85.2439 22.6892 85.2439C23.1377 85.2439 23.5017 85.6079 23.5017 86.0564V101.9C23.5017 102.349 23.1377 102.713 22.6892 102.713ZM22.6892 83.6189C22.2407 83.6189 21.8767 83.2549 21.8767 82.8064V82.6553C21.8767 82.2068 22.2407 81.8428 22.6892 81.8428C23.1377 81.8428 23.5017 82.2068 23.5017 82.6553V82.8064C23.5017 83.2549 23.1377 83.6189 22.6892 83.6189Z" fill="#5E9CF7"/>
<path d="M37.9974 82.249C37.9974 81.1274 37.0878 80.2178 35.9662 80.2178H29.8724V102.306C29.8724 103.428 28.9628 104.338 27.8412 104.338H20.2512V110.431C20.2512 111.553 21.1608 112.463 22.2825 112.463H35.9662C37.0878 112.463 37.9974 111.553 37.9974 110.431V82.249Z" fill="#377DE2"/>
<path d="M37.9974 82.249C37.9974 81.1274 37.0878 80.2178 35.9662 80.2178H33.9349V106.369C33.9349 107.491 33.0253 108.4 31.9037 108.4H20.2512V110.431C20.2512 111.553 21.1608 112.463 22.2825 112.463H35.9662C37.0878 112.463 37.9974 111.553 37.9974 110.431V82.249Z" fill="#2266D3"/>
<path d="M79.983 51.334C79.1104 52.064 78.573 53.1698 78.6099 54.3845C78.6973 57.2705 75.6796 59.21 73.091 57.9315C71.3056 57.0495 69.1419 57.6849 68.1165 59.3924C68.1063 59.409 68.0941 59.4228 68.084 59.4395L75.7385 71.8248C76.1988 72.5695 77.2851 72.5597 77.7316 71.807L80.8069 66.6248L87.1042 66.0662C87.9679 65.9895 88.4481 65.0303 87.9923 64.293L79.983 51.334Z" fill="#E63950"/>
<path d="M61.5561 59.3924C60.5308 57.6849 58.3671 57.0499 56.5816 57.9315C53.993 59.21 50.975 57.2705 51.0627 54.3845C51.0997 53.1698 50.5622 52.064 49.6896 51.334L41.6808 64.2921C41.225 65.0295 41.7056 65.9886 42.5688 66.0654L48.8661 66.624L51.9414 71.8061C52.3883 72.5589 53.4742 72.5687 53.9345 71.824L61.5891 59.4387C61.5785 59.4228 61.5663 59.409 61.5561 59.3924Z" fill="#E63950"/>
<path d="M67.4283 18.5472C69.5517 16.5911 72.9939 17.6019 73.7231 20.3957C74.226 22.3225 76.1228 23.5417 78.0846 23.1988C80.9288 22.7015 83.2777 25.4124 82.3807 28.1567C81.762 30.0498 82.6988 32.1009 84.5346 32.8728C87.196 33.992 87.7066 37.5431 85.4682 39.3663C83.924 40.6241 83.6035 42.856 84.7305 44.4981C86.3644 46.8783 84.8739 50.1417 82.0053 50.4659C80.0265 50.6893 78.5498 52.3935 78.6103 54.3842C78.698 57.2702 75.68 59.2096 73.0914 57.9311C71.3059 57.0492 69.1422 57.6845 68.1169 59.392C66.6304 61.8669 63.0428 61.8669 61.5563 59.392C60.531 57.6845 58.3673 57.0496 56.5818 57.9311C53.9932 59.2096 50.9751 57.2702 51.0629 54.3842C51.1234 52.3935 49.6467 50.6893 47.6679 50.4659C44.7989 50.1417 43.3088 46.8787 44.9427 44.4981C46.0697 42.856 45.7487 40.6241 44.205 39.3663C41.9665 37.5427 42.4772 33.9916 45.1385 32.8728C46.9744 32.1009 47.9112 30.0498 47.2925 28.1567C46.3955 25.4124 48.7448 22.7011 51.5886 23.1988C53.5504 23.5421 55.4471 22.3229 55.9501 20.3957C56.6789 17.6023 60.121 16.5915 62.2449 18.5472C63.7086 19.8968 65.9637 19.8968 67.4283 18.5472Z" fill="#FFC91D"/>
<path d="M64.8361 55.7024C73.845 55.7024 81.1482 48.3992 81.1482 39.3903C81.1482 30.3813 73.845 23.0781 64.8361 23.0781C55.8271 23.0781 48.5239 30.3813 48.5239 39.3903C48.5239 48.3992 55.8271 55.7024 64.8361 55.7024Z" fill="#FFA91A"/>
<path d="M64.8363 53.5218C72.6407 53.5218 78.9673 47.1951 78.9673 39.3908C78.9673 31.5864 72.6407 25.2598 64.8363 25.2598C57.032 25.2598 50.7053 31.5864 50.7053 39.3908C50.7053 47.1951 57.032 53.5218 64.8363 53.5218Z" fill="#F79219"/>
<path d="M66.7584 25.3931C69.2828 27.9455 70.8428 31.4543 70.8428 35.3279C70.8428 43.1324 64.5163 49.4589 56.7118 49.4589C56.0598 49.4589 55.4188 49.411 54.7903 49.3252C57.3517 51.9155 60.9064 53.5214 64.8368 53.5214C72.6413 53.5214 78.9678 47.1949 78.9678 39.3904C78.9674 32.2384 73.6529 26.3311 66.7584 25.3931Z" fill="#EF7816"/>
<path d="M62.4816 48.2869C61.9169 48.2869 61.3693 48.0764 60.948 47.6929L54.2774 41.6134C53.3479 40.7664 53.2813 39.3266 54.1283 38.3971C54.9753 37.4676 56.4151 37.401 57.3446 38.248L62.1741 42.6493L70.1841 32.0921C70.9438 31.0903 72.3722 30.8945 73.374 31.6546C74.3758 32.4147 74.5716 33.8427 73.8115 34.8445L64.2959 47.3866C63.9096 47.8961 63.3266 48.2194 62.69 48.2775C62.6197 48.2836 62.5507 48.2869 62.4816 48.2869Z" fill="white"/>
</svg>
