<svg width="128" height="128" viewBox="0 0 128 128" fill="none" xmlns="http://www.w3.org/2000/svg">
<path d="M83.8077 36.0859L55.2052 77.5324L51.1519 110.69L93.5077 115.999L100.562 57.408L83.8077 36.0859Z" fill="#FF641A"/>
<path d="M113.326 14.6026C111.722 12.9985 109.514 12.1094 107.254 12.0103C104.794 11.9024 102.273 12.7308 100.401 14.6026L79.2581 35.8153L81.3535 37.9107L83.5665 40.1238L89.8451 33.7733C95.8024 37.7119 103.851 37.0032 109.018 31.8367L113.326 27.5282C116.891 23.9634 116.891 18.1672 113.326 14.6026ZM109.018 23.2195L104.709 27.528C101.898 30.3399 97.7022 30.9348 94.3041 29.3133L104.709 18.911C105.9 17.7209 107.828 17.7209 109.018 18.911C110.205 20.0983 110.205 22.0323 109.018 23.2195Z" fill="#516373"/>
<path d="M89.8452 33.7731C95.8024 37.7117 103.851 37.003 109.018 31.8365L113.326 27.528C116.891 23.9633 116.891 18.1672 113.326 14.6025C111.722 12.9985 109.514 12.1094 107.254 12.0103L81.3535 37.9107L83.5666 40.1238L89.8452 33.7731ZM104.71 18.911C105.9 17.7209 107.828 17.7209 109.018 18.911C110.205 20.0983 110.205 22.0322 109.018 23.2195L104.71 27.528C101.898 30.3398 97.7024 30.9348 94.3044 29.3133L104.71 18.911Z" fill="#3E4D59"/>
<path d="M84.3094 34.9521H54.2969L12 77.1022L27.0812 92.1834L42.1622 107.265L84.3125 65.0849V34.9521H84.3094Z" fill="#FFE680"/>
<path d="M84.3123 65.0849V34.9521L27.0811 92.1834L42.1621 107.265L84.3123 65.0849Z" fill="#FFC550"/>
<path d="M57.3518 65.2334C58.2509 64.581 59.1215 63.9108 59.9784 63.2512C60.0485 63.1972 60.1186 63.1432 60.1886 63.0894C61.2612 62.264 62.3146 61.4585 63.395 60.7133C64.1276 60.2975 65.0463 60.0085 65.8283 59.8986C66.2974 59.8327 66.6337 59.9523 66.8513 60.1519C67.0725 60.3548 67.2327 60.6973 67.2315 61.1909L67.2315 61.2264L67.2364 61.2616C67.2684 61.4891 67.2791 61.7025 67.2908 61.9399L67.2912 61.9479C67.3025 62.1785 67.3149 62.4327 67.3537 62.7084C67.4122 63.1252 67.5728 63.513 67.8491 63.8038C68.1322 64.1017 68.5154 64.2735 68.9541 64.2745L68.9896 64.2746L69.0248 64.2696C69.4191 64.2142 69.7273 64.0033 69.957 63.7891C70.1795 63.5816 70.3649 63.3356 70.5044 63.1504L70.5139 63.1378C70.6808 62.9163 70.7105 62.656 70.7147 62.4912C70.7189 62.3272 70.6984 62.173 70.6862 62.0866C70.5987 60.8067 69.8529 59.7529 68.914 59.042C66.7965 57.2877 64.5348 57.2543 62.1261 57.9509C59.7195 58.6469 57.8685 60.066 56.1 61.4219L56.0918 61.4282C55.8003 61.6065 55.5369 61.8007 55.2796 61.995C55.2347 62.0289 55.1901 62.0627 55.1455 62.0965C55.0268 62.1865 54.9082 62.2764 54.785 62.3672L49.9848 57.6133L49.6258 57.2578L49.274 57.6204L47.9208 59.0157L47.5837 59.3632L47.9202 59.7113L52.3837 64.329L50.2211 66.1614L45.8321 61.7299L45.476 61.3704L45.1208 61.7307L43.8401 63.0297L43.495 63.3797L43.839 63.7307L48.0599 68.0385L48.0597 68.0388C46.2305 69.6401 44.3858 71.127 42.4879 72.6567C42.1043 72.9659 41.7186 73.2768 41.3303 73.5908C40.2888 74.3964 39.1095 75.0265 37.8083 75.1377C37.3083 75.1328 36.9792 74.9913 36.7754 74.7904C36.576 74.5938 36.4342 74.2787 36.4275 73.7959C36.5273 73.2199 36.526 72.5832 36.4502 72.0441L36.4338 71.9272L36.3668 71.83C36.2431 71.6503 36.0669 71.4322 35.8793 71.2473C35.7855 71.1548 35.6804 71.0623 35.5704 70.986C35.468 70.9149 35.3238 70.8312 35.1555 70.8002L35.1248 70.7945L35.0938 70.7928C34.7472 70.7727 34.4031 70.8946 34.1261 71.0505C33.8433 71.2097 33.5772 71.4339 33.3862 71.6873C33.1887 71.9495 33.1241 72.2919 33.1128 72.5734C33.1012 72.8619 33.1419 73.1711 33.2322 73.4372C33.6461 74.9432 34.8603 75.9955 36.1259 76.6331C38.3375 77.8082 40.7304 77.6464 42.8575 76.525L42.8607 76.5232C44.401 75.6965 45.9133 74.7014 47.4032 73.721C48.1105 73.305 48.772 72.7878 49.4082 72.2687C49.5506 72.1524 49.6914 72.0364 49.8313 71.9211C50.2157 71.6044 50.5931 71.2934 50.9784 70.9993L55.4838 75.5252L55.797 75.8398L56.1464 75.5661L57.6197 74.4122L58.0642 74.0641L57.6649 73.6649L53.128 69.1297L55.284 67.1624L59.4683 71.4329L59.7814 71.7525L60.1337 71.4766L61.607 70.3227L62.0492 69.9763L61.6539 69.5772L57.3518 65.2334Z" fill="#FF7B4A" stroke="#FF7B4A" stroke-linecap="round"/>
</svg>
