<svg width="128" height="129" viewBox="0 0 128 129" fill="none" xmlns="http://www.w3.org/2000/svg">
<g clip-path="url(#clip0)">
<path d="M118 81.02V93.3165C118 97.4925 106.864 100.973 93.1753 100.973C79.4869 100.973 68.5827 97.6087 68.5827 93.4326V92.0406L68.3506 82.2963H68.4666C70.3226 85.8924 80.531 88.6765 92.8272 88.6765C105.123 88.6765 117.768 85.1965 117.768 81.0202H118V81.02Z" fill="#E2A63B"/>
<path d="M92.4795 35.3149V47.4953H92.2474C92.2474 51.7875 80.7632 55.1516 67.1907 55.1516C61.9706 55.2675 56.6344 54.6875 51.5302 53.4115L51.2982 53.6435C48.7461 51.5554 45.846 49.9315 42.714 48.8874V48.6554L42.366 35.779C43.178 39.7231 53.9664 42.8551 67.0748 42.8551C80.1833 42.8551 92.2474 39.491 92.2474 35.3149H92.4795Z" fill="#F4B844"/>
<path d="M92.4795 35.5468C92.4795 39.7229 80.9953 43.087 67.3069 43.087C53.6185 43.087 43.2942 39.9549 42.4822 36.0109C42.4822 35.895 42.3663 35.6629 42.3663 35.5468C42.3663 31.3707 53.5026 27.8905 67.3071 27.8905C81.1112 27.7746 92.4795 31.2546 92.4795 35.5468Z" fill="#FEDB41"/>
<path d="M68.4665 82.296L68.3506 79.7439L68.1186 69.3037C68.9306 73.2478 79.7189 76.3798 92.8274 76.3798C105.936 76.3798 117.536 73.0157 117.884 68.9556H118V81.02H117.768C117.768 85.1961 106.516 88.6763 92.8272 88.6763C79.139 88.6761 70.3228 85.8921 68.4665 82.296Z" fill="#F4B844"/>
<path d="M51.8778 90.0683C55.0099 87.1682 57.4461 83.456 58.7219 79.396H59.3019C61.854 79.628 64.4061 79.7439 67.1902 79.7439H68.3501V82.296L68.5821 92.0404H67.3061C62.2019 92.1563 57.2138 91.5763 52.2257 90.4164L51.8778 90.0683Z" fill="#E2A63B"/>
<path d="M68.4665 68.376V68.956L68.6985 79.7443H67.5384C64.6383 79.7443 61.9701 79.6284 59.4182 79.3964H58.8383C59.6502 76.9604 59.9982 74.4083 59.9982 71.8562C59.9982 70.1161 59.7662 68.4921 59.4182 66.8682H59.9982C62.4342 67.1002 64.8703 67.2161 67.5384 67.2161L68.5824 67.7961C68.4665 68.0279 68.4665 68.2599 68.4665 68.376Z" fill="#F4B844"/>
<path d="M51.5301 53.4113C56.6343 54.6874 61.9703 55.2673 67.1906 55.1514C80.7629 55.1514 92.2474 51.7873 92.2474 47.4951H92.4794V61.1835C79.835 61.1835 69.5107 64.1997 68.2346 68.0276L67.1906 67.4476C64.6385 67.4476 62.2026 67.3317 59.8825 67.0997H59.3025C58.2585 61.7635 55.4744 57.0074 51.2983 53.5272L51.5301 53.4113Z" fill="#E2A63B"/>
<path d="M59.5343 67.1C58.3744 61.7638 55.4742 56.8918 51.2981 53.2957C48.746 50.9756 45.7298 49.3516 42.4818 48.4235C40.1618 47.6115 37.6097 47.2636 35.1737 47.2636C21.3692 47.1473 10.1167 58.1677 10.0008 71.9719C9.88494 85.7762 20.9051 97.0287 34.7096 97.1446C41.0899 97.1446 47.122 94.8245 51.878 90.5323C55.1262 87.5161 57.5622 83.6882 58.8382 79.5119C59.6502 77.0759 59.9982 74.6397 59.9982 72.0876C59.9984 70.4641 59.5343 68.724 59.5343 67.1Z" fill="#FEDB41"/>
<path d="M117.884 68.724V68.9561C117.536 73.0163 106.284 76.3803 92.8274 76.3803C79.371 76.3803 68.9306 73.2483 68.1186 69.3042V68.7243C68.1186 68.4922 68.1186 68.2602 68.2345 68.0282C69.5105 64.2 79.8349 61.1841 92.4792 61.1841H92.8272C106.516 61.1839 117.884 64.548 117.884 68.724Z" fill="#FEDB41"/>
<path d="M38.0143 68.182C38.3096 67.2154 38.5752 66.2517 38.8366 65.3036C38.8583 65.2247 38.88 65.146 38.9017 65.0674C39.2338 63.8635 39.5625 62.686 39.9444 61.5381C40.2515 60.83 40.7649 60.1112 41.2769 59.5992C41.5794 59.2967 41.8829 59.2037 42.1409 59.2287C42.4037 59.2541 42.703 59.4103 42.9713 59.7682L42.9927 59.7966L43.0178 59.8217C43.1663 59.9703 43.2917 60.1203 43.4323 60.289L43.4374 60.2951C43.5736 60.4586 43.725 60.6402 43.908 60.8232C44.187 61.1022 44.5278 61.3037 44.9026 61.3662C45.2871 61.4303 45.6757 61.3415 46.0081 61.0922L46.0365 61.0709L46.0616 61.0457C46.3292 60.7781 46.4414 60.4427 46.4925 60.1532C46.5419 59.8732 46.5419 59.5859 46.5419 59.3724V59.3569C46.5419 59.0889 46.4135 58.8724 46.3236 58.7464C46.2341 58.6211 46.1319 58.5173 46.0746 58.46C45.2901 57.5555 44.1438 57.1905 43.0495 57.1878C40.4974 57.0704 38.8008 58.3121 37.4077 60.1696C36.0158 62.0255 35.4379 64.106 34.8879 66.0863L34.8851 66.0962C34.769 66.3907 34.6824 66.6811 34.6008 66.9669C34.5865 67.0169 34.5724 67.0668 34.5582 67.1165C34.5237 67.2384 34.4892 67.3601 34.4525 67.484L28.3055 66.6505L27.8048 66.5826L27.7421 67.084L27.5196 68.8643L27.4596 69.3447L27.9378 69.4202L33.753 70.3384L33.1935 72.8158L27.5313 71.9923L27.0306 71.9194L26.9638 72.421L26.7412 74.0901L26.6763 74.5772L27.1622 74.6505L32.6268 75.4754C32.1699 77.6571 31.6393 79.7648 31.0933 81.9337C30.9823 82.3746 30.8707 82.8181 30.7589 83.2653C30.4397 84.4334 29.9235 85.5444 29.0346 86.3421C28.6696 86.6112 28.3587 86.6848 28.1096 86.6516C27.8665 86.6192 27.5961 86.4735 27.3282 86.1291C27.0799 85.6462 26.7235 85.1757 26.3664 84.8186L26.2829 84.7351L26.171 84.6978C25.9779 84.6334 25.7245 84.5699 25.4808 84.5374C25.3589 84.5211 25.2277 84.5111 25.1013 84.516C24.9841 84.5206 24.825 84.5394 24.6765 84.6136L24.6487 84.6275L24.6228 84.6448C24.3478 84.8281 24.158 85.1163 24.0387 85.389C23.9167 85.6677 23.8438 85.9861 23.8438 86.2848C23.8438 86.5992 23.9913 86.8953 24.1413 87.1119C24.2952 87.3342 24.4999 87.5428 24.7182 87.6916C25.8716 88.5804 27.3633 88.6808 28.6559 88.4469C30.9531 88.0822 32.637 86.6242 33.5867 84.6061L33.5883 84.6027C34.2652 83.1361 34.8277 81.561 35.3812 80.0112C35.6725 79.309 35.8734 78.5581 36.054 77.8221C36.0945 77.6568 36.1339 77.4928 36.173 77.3299C36.2777 76.8943 36.3803 76.4671 36.497 76.0477L42.2992 76.8766L42.7386 76.9393L42.853 76.5104L43.2981 74.8413L43.4436 74.2958L42.8845 74.2174L37.0604 73.3999L37.5426 70.828L42.9629 71.6462L43.4053 71.713L43.5206 71.2806L43.9657 69.6115L44.1105 69.0688L43.5546 68.9879L38.0143 68.182Z" fill="#E2A63B" stroke="#E2A63B" stroke-linecap="round"/>
</g>
<defs>
<clipPath id="clip0">
<rect width="108" height="108" fill="white" transform="translate(10 10.4302)"/>
</clipPath>
</defs>
</svg>
