<svg width="129" height="129" viewBox="0 0 129 129" fill="none" xmlns="http://www.w3.org/2000/svg">
<g clip-path="url(#clip0)">
<path d="M101.079 80.5383C98.4988 87.5315 94.5965 93.6121 89.479 98.6094C83.6541 104.297 76.0266 108.817 66.8083 112.041C66.5059 112.147 66.1902 112.233 65.873 112.297C65.4541 112.38 65.0278 112.424 64.6052 112.43H64.5225C64.072 112.43 63.6194 112.385 63.1704 112.297C62.8533 112.233 62.542 112.147 62.241 112.043C53.0117 108.824 45.3747 104.307 39.5439 98.6189C34.4243 93.6216 30.5227 87.5447 27.946 80.5515C23.2607 67.8367 23.5273 53.8298 23.7419 42.5739L23.7456 42.4011C23.7888 41.4716 23.8166 40.4953 23.832 39.4172C23.9104 34.124 28.1189 29.7448 33.4128 29.4497C44.4504 28.8337 52.989 25.2338 60.2847 18.1228L60.3484 18.0642C61.5598 16.9531 63.0862 16.4082 64.6052 16.4309C66.0701 16.4499 67.529 16.9941 68.6973 18.0642L68.7595 18.1228C76.0566 25.2338 84.5952 28.8337 95.6328 29.4497C100.927 29.7448 105.135 34.124 105.214 39.4172C105.229 40.5027 105.257 41.4775 105.3 42.4011L105.302 42.4743C105.516 53.7514 105.781 67.7861 101.079 80.5383Z" fill="#00DD80"/>
<path d="M101.079 80.5381C98.4987 87.5313 94.5964 93.6119 89.4789 98.6092C83.654 104.297 76.0265 108.817 66.8083 112.041C66.5058 112.147 66.1901 112.233 65.873 112.297C65.454 112.379 65.0277 112.424 64.6051 112.43V16.4307C66.07 16.4497 67.529 16.9939 68.6972 18.064L68.7594 18.1226C76.0566 25.2336 84.5951 28.8335 95.6327 29.4495C100.927 29.7446 105.135 34.1238 105.214 39.417C105.229 40.5025 105.257 41.4773 105.3 42.4009L105.302 42.4741C105.516 53.7513 105.781 67.7859 101.079 80.5381Z" fill="#00AA63"/>
<path d="M88.4462 64.4302C88.4462 77.594 77.7579 88.3094 64.6051 88.3563H64.5209C51.3292 88.3563 40.5948 77.6226 40.5948 64.4302C40.5948 51.2385 51.3292 40.5049 64.5209 40.5049H64.6051C77.7579 40.5518 88.4462 51.2671 88.4462 64.4302Z" fill="white"/>
<path d="M88.4462 64.4302C88.4462 77.594 77.758 88.3094 64.6051 88.3563V40.5049C77.758 40.5518 88.4462 51.2671 88.4462 64.4302Z" fill="#E1EBF0"/>
<path d="M75.3802 60.9848L64.6048 71.7617L62.2765 74.09C61.7264 74.6401 61.005 74.9147 60.2843 74.9147C59.5628 74.9147 58.8421 74.6401 58.2914 74.09L53.2852 69.0817C52.1852 67.9816 52.1852 66.1997 53.2852 65.0988C54.3839 63.9987 56.1681 63.9987 57.2682 65.0988L60.2843 68.1149L71.3973 57.0019C72.4974 55.9011 74.2816 55.9011 75.3802 57.0019C76.4803 58.102 76.4803 59.8862 75.3802 60.9848Z" fill="#B4D2D7"/>
<path d="M75.3805 60.9848L64.6051 71.7617V63.7937L71.3976 57.0019C72.4977 55.9011 74.2819 55.9011 75.3805 57.0019C76.4806 58.102 76.4806 59.8862 75.3805 60.9848Z" fill="#6FA5AA"/>
</g>
<defs>
<clipPath id="clip0">
<rect width="96" height="96" fill="white" transform="translate(16.3333 16.4302)"/>
</clipPath>
</defs>
</svg>
