<svg width="129" height="128" viewBox="0 0 129 128" fill="none" xmlns="http://www.w3.org/2000/svg">
<g clip-path="url(#clip0)">
<path d="M37.6531 112L26.7534 89.461C18.5608 72.5202 23.36 52.6608 37.2238 41.1649C45.8538 34.0088 54.0875 26.3877 61.6436 18.1054L63.5643 16L68.0308 21.9012C73.5419 29.1826 77.7474 36.9252 80.2319 44.7706L37.6531 112Z" fill="#00AA95"/>
<path d="M104.227 44.1134L102.775 36.8564C95.5996 53.7703 77.1952 62.7575 66.6459 74.4283C48.1974 94.838 37.6533 112 37.6533 112H48.5763C97.1253 112 111.253 79.2328 104.227 44.1134Z" fill="#00CC76"/>
<path d="M102.775 36.8564L100.129 37.9156C93.6093 40.5254 86.9631 42.7859 80.2319 44.7706V44.7708C76.2171 45.9547 72.1722 47.0403 68.1055 48.0434C50.6196 52.3569 37.6531 68.1461 37.6531 86.9638V112C37.6533 112 83.051 83.3489 102.775 36.8564Z" fill="#A5E887"/>
</g>
<defs>
<clipPath id="clip0">
<rect width="96" height="96" fill="white" transform="translate(16.3333 16)"/>
</clipPath>
</defs>
</svg>
