<svg width="129" height="128" viewBox="0 0 129 128" fill="none" xmlns="http://www.w3.org/2000/svg">
<g clip-path="url(#clip0)">
<path d="M92.74 25.9623C92.74 21.9131 89.427 18.6001 85.3778 18.6001H24.0287C19.9795 18.6001 16.6665 21.9131 16.6665 25.9623V102.038C16.6665 106.087 19.9795 109.4 24.0287 109.4H85.3802C89.4294 109.4 92.7424 106.087 92.7424 102.038L92.74 25.9623Z" fill="#DADEE0"/>
<path d="M78.0181 79.9519C72.4327 79.9519 67.3099 77.9838 63.2961 74.7099L92.4995 103.913C92.6576 103.314 92.7425 102.686 92.7425 102.04L92.7413 74.7075C88.7275 77.9836 83.6035 79.9519 78.0181 79.9519Z" fill="#C7CED2"/>
<path d="M78.018 37.0054C67.193 37.0054 58.3855 45.8117 58.3855 56.6367C58.3855 67.4628 67.193 76.2703 78.018 76.2703C83.8818 76.2703 89.1399 73.6715 92.7411 69.5818L92.74 43.6927C89.1399 39.603 83.8833 37.0054 78.018 37.0054Z" fill="#1BB7EA"/>
<path d="M35.5888 83.0195H51.5402C52.5561 83.0195 53.3808 82.1948 53.3808 81.1789C53.3808 80.1618 52.5561 79.3384 51.5402 79.3384H35.5888C34.5729 79.3384 33.7483 80.1618 33.7483 81.1789C33.7483 82.1948 34.5727 83.0195 35.5888 83.0195Z" fill="#A4ABB1"/>
<path d="M57.1894 67.0679H35.5888C34.5729 67.0679 33.7483 67.8913 33.7483 68.9084C33.7483 69.9243 34.5729 70.749 35.5888 70.749H59.49C58.6139 69.5991 57.8434 68.3709 57.1894 67.0679Z" fill="#A4ABB1"/>
<path d="M54.7046 56.6367C54.7046 56.0158 54.7499 55.4061 54.7966 54.7974H35.5888C34.5729 54.7974 33.7483 55.6208 33.7483 56.6379C33.7483 57.6538 34.5729 58.4785 35.5888 58.4785H54.7981C54.7499 57.8685 54.7046 57.2586 54.7046 56.6367Z" fill="#A4ABB1"/>
<path d="M59.49 42.5273H35.5888C34.5729 42.5273 33.7483 43.3508 33.7483 44.3679C33.7483 45.3838 34.5729 46.2084 35.5888 46.2084H57.1894C57.8422 44.9052 58.6139 43.677 59.49 42.5273Z" fill="#A4ABB1"/>
<path d="M111.767 85.1442L96.8996 70.2763C99.6764 66.4394 101.331 61.7374 101.331 56.6366C101.331 43.7614 90.8943 33.3242 78.0179 33.3242C65.1389 33.3242 54.7043 43.7614 54.7043 56.6366C54.7043 69.513 65.1389 79.9514 78.0179 79.9514C83.5813 79.9514 88.6833 77.9967 92.692 74.7439L107.43 89.4817C108.628 90.6804 110.57 90.6804 111.767 89.4817C112.966 88.2856 112.966 86.342 111.767 85.1442ZM64.4015 70.7489H73.6275C74.6433 70.7489 75.468 69.9242 75.468 68.9083C75.468 67.8912 74.6433 67.0678 73.6275 67.0678H61.4173C59.8174 64.5327 58.7744 61.6161 58.4799 58.4786H73.6275C74.6433 58.4786 75.468 57.6539 75.468 56.638C75.468 55.6209 74.6433 54.7975 73.6275 54.7975H58.4799C58.7732 51.6599 59.8174 48.7433 61.4161 46.2083H73.6275C74.6433 46.2083 75.468 45.3836 75.468 44.3677C75.468 43.3506 74.6433 42.5272 73.6275 42.5272H64.4015C67.9354 39.1159 72.7307 37.0055 78.0191 37.0055C88.8441 37.0055 97.6516 45.8119 97.6516 56.6368C97.6516 67.463 88.8441 76.2705 78.0191 76.2705C72.7319 76.2705 67.9354 74.1599 64.4015 70.7489Z" fill="#1F4254"/>
</g>
<defs>
<clipPath id="clip0">
<rect width="96" height="96" fill="white" transform="translate(16.6665 16)"/>
</clipPath>
</defs>
</svg>
